EBGaramond-Regular.sfdir

StartChar: exclam
Encoding: 1 33 66
Width: 270
VWidth: 0
Flags: W
HStem: -14 120<98.7454 191.255>
VStem: 85 120<-0.254639 92.2546> 93 104<352.256 636.289>
LayerCount: 3
Fore
SplineSet
145 106 m 24xc0
 178 106 205 79 205 46 c 24
 205 13 178 -14 145 -14 c 24
 112 -14 85 13 85 46 c 24
 85 79 112 106 145 106 c 24xc0
93 573 m 0xa0
 93 612 109 649 146 649 c 0
 180 649 197 612 197 575 c 0
 197 488 176 358 161 244 c 0
 158 222 153 205 143 205 c 0
 133 205 128 215 125 244 c 0
 113 358 93 510 93 573 c 0xa0
EndSplineSet
Validated: 1
Substitution2: "sups subtable" exclam.sups
Substitution2: "sinf subtable" exclam.sinf
Substitution2: "ordn subtable" exclam.ordn
Substitution2: "subs subtable" exclam.subs
EndChar

StartChar: quotedbl
Encoding: 34 34 68
Width: 309
VWidth: 0
Flags: W
HStem: 444 232<80.2416 89.4949 211.242 220.495>
VStem: 65 73<538.333 659.629> 196 73<538.333 659.629>
LayerCount: 3
Back
SplineSet
65 467 m 0
 67 520 67 557 62 619 c 0
 61 633 72 648 81 655 c 0
 97 667 108 676 124 676 c 0
 139 676 139 645 136 624 c 4
 126 555 107 505 91 469 c 0
 86 457 77 444 72 444 c 0
 67 444 65 458 65 467 c 0
196 467 m 0
 198 520 198 557 193 619 c 0
 192 633 203 648 212 655 c 0
 228 667 239 676 255 676 c 0
 270 676 270 645 267 624 c 0
 257 555 238 505 222 469 c 0
 217 457 208 444 203 444 c 0
 198 444 196 458 196 467 c 0
EndSplineSet
Fore
SplineSet
193 620 m 0
 193 634 204 648 212 655 c 0
 228 668 239 676 255 676 c 0
 265 676 269 661 269 644 c 0
 269 592 238 505 222 469 c 0
 217 457 208 444 203 444 c 0
 198 444 196 458 196 467 c 0
 197 488 196 506 196 524 c 0
 196 560 193 619 193 620 c 0
62 620 m 0
 62 634 73 648 81 655 c 0
 97 668 108 676 124 676 c 0
 134 676 138 661 138 644 c 0
 138 592 107 505 91 469 c 0
 86 457 77 444 72 444 c 0
 67 444 65 458 65 467 c 0
 66 488 65 506 65 524 c 0
 65 560 62 619 62 620 c 0
EndSplineSet
Validated: 33
Substitution2: "sups subtable" quotedbl.sups
Substitution2: "sinf subtable" quotedbl.sinf
Substitution2: "ordn subtable" quotedbl.ordn
Substitution2: "subs subtable" quotedbl.subs
EndChar

StartChar: numbersign
Encoding: 3 35 94
Width: 468
VWidth: 0
Flags: W
HStem: 204 60<21.8772 94 149 191> 214 60<206 248 303 368.693> 402 60<68.8772 142 198 239.5> 412 60<254.5 296 352 415.271> 630 20G<225 234.5 380 389.5>
LayerCount: 3
Back
SplineSet
134 206 m 1x58
 90 27 l 2
 87 14 73 12 60 12 c 0
 53 12 48 20 50 27 c 2
 94 204 l 1
 31 201 l 2
 24 201 17 207 17 213 c 0
 17 222 20 260 41 261 c 2
 108 264 l 1
 142 402 l 1
 78 399 l 2
 71 399 64 405 64 411 c 0
 64 420 67 458 88 459 c 2
 157 462 l 1xa8
 199 633 l 2
 202 647 218 650 232 650 c 0
 239 650 241 640 239 633 c 2
 198 464 l 1
 311 470 l 1
 354 644 l 2
 357 658 373 661 387 661 c 0
 394 661 396 651 394 644 c 2
 352 472 l 1
 411 475 l 2
 418 475 426 468 424 461 c 0
 418 440 415 416 393 415 c 2
 337 412 l 1
 303 274 l 1
 364 277 l 2
 371 277 379 270 377 263 c 0
 371 242 368 218 346 217 c 2
 288 214 l 1
 245 38 l 2
 242 25 228 23 215 23 c 0
 208 23 203 31 205 38 c 2
 248 212 l 1
 134 206 l 1x58
149 266 m 1
 263 272 l 1
 296 410 l 1
 183 404 l 1
 149 266 l 1
EndSplineSet
Fore
SplineSet
134 206 m 1x58
 90 27 l 2
 87 14 73 12 60 12 c 0
 54 12 50 18 50 24 c 0
 50 25 50 26 50 27 c 2
 94 204 l 1
 31 201 l 2
 24 201 17 206 17 213 c 0
 17 223 20 260 41 261 c 2
 108 264 l 1
 142 402 l 1
 78 399 l 2
 71 399 64 404 64 411 c 0
 64 421 67 458 88 459 c 2
 157 462 l 1xa8
 199 633 l 2
 202 647 218 650 232 650 c 0
 237 650 240 644 240 638 c 0
 240 636 239 635 239 633 c 2
 198 464 l 1
 311 470 l 1
 354 644 l 2
 357 658 373 661 387 661 c 0
 392 661 395 655 395 649 c 0
 395 647 394 646 394 644 c 2
 352 472 l 1
 411 475 l 2
 418 475 424 471 424 464 c 0
 424 454 415 416 393 415 c 2
 337 412 l 1
 303 274 l 1
 364 277 l 2
 371 277 377 272 377 265 c 0
 377 255 368 218 346 217 c 2
 288 214 l 1
 245 38 l 2
 242 25 228 23 215 23 c 0
 209 23 205 29 205 35 c 0
 205 36 205 37 205 38 c 2
 248 212 l 1
 134 206 l 1x58
149 266 m 1
 263 272 l 1
 296 410 l 1
 183 404 l 1
 149 266 l 1
EndSplineSet
Validated: 1
Substitution2: "sups subtable" numbersign.sups
Substitution2: "sinf subtable" numbersign.sinf
Substitution2: "ordn subtable" numbersign.ordn
Substitution2: "subs subtable" numbersign.subs
EndChar

StartChar: ampersand
Encoding: 38 38 1016
Width: 788
VWidth: 0
Flags: W
HStem: -15 65<163.723 295.99> -15 49<548.541 663.235> 382 20G<555 560> 384 28<663.601 734.198> 571 28<233.081 315.355>
VStem: 37 80<94.737 215.453> 147 60<443.174 550.105> 347 60<420.308 548.032>
LayerCount: 3
Back
SplineSet
147 489 m 0x8f
 147 559 215 599 284 599 c 0
 347 599 407 559 407 496 c 0
 407 433 371 384 310 361 c 1
 296 356 l 1
 305 346 l 1
 354 290 395 259 435 201 c 1
 447 183 l 1
 463 200 l 2
 511 251 558 308 569 343 c 0
 575 362 561 380 541 387 c 0
 535 389 529 404 538 404 c 0xaf
 576 404 597 400 635 400 c 0
 670 400 718 413 733 413 c 0
 753 413 739 392 724 390 c 0
 687 385 646 365 616 333 c 2
 459 165 l 1
 476 141 l 2
 518 80 546 34 621 34 c 0
 649 34 661 52 688 60 c 0
 694 62 699 63 703 59 c 0
 708 54 714 44 708 40 c 0
 664 12 641 -15 586 -15 c 0x5f
 511 -15 483 21 432 101 c 1
 419 122 l 1
 413 116 l 1
 350 48 305 -15 212 -15 c 0
 126 -15 38 34 37 119 c 0
 35 228 108 297 205 342 c 1
 225 351 l 1
 210 367 l 1
 191 389 147 430 147 489 c 0x8f
240 334 m 1
 219 326 l 2
 126 290 117 216 117 157 c 0
 117 96 171 50 232 50 c 0
 304 50 349 79 398 131 c 1
 407 140 l 1
 395 159 l 2
 362 210 309 259 252 321 c 2
 240 334 l 1
279 376 m 1
 292 382 l 2
 338 403 347 451 347 493 c 0
 347 529 319 571 277 571 c 0
 242 571 207 548 207 513 c 0
 207 460 252 408 264 393 c 2
 279 376 l 1
EndSplineSet
Fore
SplineSet
724 412 m 0x1f
 727 412 736 407 736 403 c 0
 736 395 720 385 711 384 c 0
 680 382 654 367 638 353 c 0
 625 342 459 165 459 165 c 1
 476 141 l 2
 518 80 546 34 621 34 c 0
 649 34 658 42 681 57 c 0
 686 60 692 62 698 62 c 0
 707 62 708 50 708 40 c 0
 708 31 641 -15 586 -15 c 0x5f
 511 -15 483 21 432 101 c 1
 419 122 l 1
 413 116 l 1
 350 48 305 -15 212 -15 c 0
 124 -15 37 34 37 123 c 0
 37 229 109 298 205 342 c 2
 225 351 l 1
 210 367 l 1
 191 389 147 430 147 489 c 0
 147 559 215 599 284 599 c 0
 347 599 407 559 407 496 c 0
 407 433 371 384 310 361 c 1
 296 356 l 1
 305 346 l 1
 354 290 395 259 435 201 c 1
 447 183 l 1
 465 202 l 2
 513 253 575 337 575 352 c 0
 575 360 564 377 547 380 c 0
 544 381 535 388 535 391 c 0
 535 401 553 402 557 402 c 0xaf
 563 402 613 397 628 397 c 0
 658 397 700 412 724 412 c 0x1f
240 334 m 1
 219 326 l 2
 126 290 117 216 117 157 c 0
 117 96 171 50 232 50 c 0x8f
 304 50 349 79 398 131 c 1
 407 140 l 1
 395 159 l 2
 362 210 309 259 252 321 c 2
 240 334 l 1
279 376 m 1
 292 382 l 2x2f
 338 403 347 451 347 493 c 0
 347 529 319 571 277 571 c 0
 242 571 207 548 207 513 c 0
 207 460 252 408 264 393 c 2
 279 376 l 1
EndSplineSet
Substitution2: "sups subtable" ampersand.sups
Substitution2: "sinf subtable" ampersand.sinf
Substitution2: "ordn subtable" ampersand.ordn
Substitution2: "subs subtable" ampersand.subs
EndChar

StartChar: quotesingle
Encoding: 39 39 69
Width: 178
VWidth: 0
Flags: W
HStem: 444 232<80.2416 89.4949>
VStem: 65 73<538.333 659.629>
LayerCount: 3
Fore
SplineSet
62 620 m 0
 62 634 73 648 81 655 c 0
 97 668 108 676 124 676 c 0
 134 676 138 661 138 644 c 0
 138 592 107 505 91 469 c 0
 86 457 77 444 72 444 c 0
 67 444 65 458 65 467 c 0
 66 488 66 506 66 524 c 0
 66 560 62 619 62 620 c 0
EndSplineSet
Validated: 1
Substitution2: "sups subtable" quotesingle.sups
Substitution2: "sinf subtable" quotesingle.sinf
Substitution2: "ordn subtable" quotesingle.ordn
Substitution2: "subs subtable" quotesingle.subs
EndChar

StartChar: parenleft
Encoding: 8 40 107
Width: 315
VWidth: 0
Flags: W
HStem: 685 20G<238 246.5>
VStem: 40 60<123.565 411.858>
LayerCount: 3
Fore
SplineSet
264 -192 m 0
 264 -206 250 -214 237 -214 c 0
 231 -214 225 -212 220 -207 c 0
 149 -136 40 99 40 269 c 0
 40 439 145 623 216 694 c 0
 222 700 233 705 243 705 c 0
 250 705 265 698 265 689 c 0
 265 687 254 672 252 670 c 0
 181 599 100 451 100 281 c 0
 100 111 177 -102 248 -173 c 0
 250 -175 264 -190 264 -192 c 0
EndSplineSet
Validated: 1
Substitution2: "sups subtable" parenleft.sups
Substitution2: "sinf subtable" parenleft.sinf
Substitution2: "ordn subtable" parenleft.ordn
Substitution2: "subs subtable" parenleft.subs
EndChar

StartChar: asterisk
Encoding: 42 42 1017
Width: 340
VWidth: 0
Flags: W
HStem: 372 298<166.594 174.406> 428 21G<60 66> 451 21G<288.5 294.5>
VStem: 140 34<602.462 669.947> 167 34<372.053 439.538>
LayerCount: 3
Fore
SplineSet
34 577 m 0x48
 34 587 42 591 51 591 c 0
 54 591 56 591 59 590 c 0
 91 576 120 566 146 555 c 1
 143 583 141 613 140 648 c 0
 140 659 145 669 156 670 c 1
 157 670 l 2x90
 166 670 173 661 174 652 c 2
 187 560 l 1
 210 576 236 592 266 610 c 1
 269 613 273 614 277 614 c 0
 285 614 295 610 295 600 c 0
 295 594 291 588 286 583 c 2
 213 525 l 1
 239 513 264 501 295 483 c 0
 302 480 307 472 307 465 c 0
 307 455 299 451 290 451 c 0x30
 287 451 285 451 282 452 c 0
 250 466 221 476 195 487 c 1
 198 459 200 429 201 394 c 0
 201 383 196 373 185 372 c 1
 184 372 l 2x88
 175 372 168 381 167 390 c 2
 154 482 l 1
 131 466 105 450 75 432 c 1
 72 429 68 428 64 428 c 0
 56 428 46 432 46 442 c 0
 46 448 50 454 55 459 c 2
 128 517 l 1
 102 529 77 541 46 559 c 0
 39 562 34 570 34 577 c 0x48
EndSplineSet
Validated: 1
Substitution2: "sups subtable" asterisk.sups
Substitution2: "sinf subtable" asterisk.sinf
Substitution2: "ordn subtable" asterisk.ordn
Substitution2: "subs subtable" asterisk.subs
EndChar

StartChar: plus
Encoding: 43 43 99
Width: 590
VWidth: 0
Flags: W
HStem: -8 21G<279 286.5> 222 50<53.1042 269.999 330.001 545.949>
VStem: 270 60<-4.10672 221.999 272.001 475.117>
LayerCount: 3
Fore
SplineSet
330 278 m 2
 330 273 330 272 332 272 c 0
 400 272 469 272 537 272 c 8
 544 272 550 268 550 262 c 0
 550 245 538 222 519 222 c 18
 334 222 l 2
 331 222 330 221 330 218 c 2
 330 16 l 10
 330 -5 291 -8 282 -8 c 0
 276 -8 270 -1 270 6 c 18
 270 217 l 2
 270 220 269 222 266 222 c 2
 64 222 l 10
 57 222 50 228 50 234 c 0
 50 243 56 272 74 272 c 18
 263 272 l 2
 269 272 270 274 270 280 c 2
 270 451 l 10
 270 473 310 482 316 482 c 0
 323 482 330 476 330 469 c 18
 330 278 l 2
EndSplineSet
Validated: 1
Substitution2: "sups subtable" plus.sups
Substitution2: "sinf subtable" plus.sinf
Substitution2: "ordn subtable" plus.ordn
Substitution2: "subs subtable" plus.subs
EndChar

StartChar: period
Encoding: 46 46 39
Width: 230
VWidth: 0
Flags: W
HStem: -14 110<71.8467 158.153>
VStem: 60 110<-2.15331 84.1533>
LayerCount: 3
Fore
SplineSet
115 96 m 24
 145 96 170 71 170 41 c 24
 170 11 145 -14 115 -14 c 24
 85 -14 60 11 60 41 c 24
 60 71 85 96 115 96 c 24
EndSplineSet
Validated: 1
Substitution2: "sups subtable" period.sups
Substitution2: "sinf subtable" period.sinf
Substitution2: "ordn subtable" period.ordn
Substitution2: "subs subtable" period.subs
EndChar

StartChar: slash
Encoding: 47 47 95
Width: 399
VWidth: 0
Flags: W
LayerCount: 3
Fore
SplineSet
30 -47 m 10
 327 648 l 26
 334 663 349 665 366 665 c 16
 373 665 380 659 380 652 c 0
 380 651 379 649 379 648 c 10
 82 -47 l 26
 76 -61 61 -62 46 -62 c 16
 38 -62 29 -57 29 -50 c 0
 29 -49 30 -48 30 -47 c 10
EndSplineSet
Substitution2: "frac_slash subtable" fraction
Substitution2: "sups subtable" slash.sups
Substitution2: "sinf subtable" slash.sinf
Substitution2: "ordn subtable" slash.ordn
Substitution2: "subs subtable" slash.subs
EndChar

StartChar: zero
Encoding: 48 48 83
Width: 507
VWidth: 0
Flags: W
HStem: -15 41<188.038 322.338> 372 41<189.661 322.113>
VStem: 40 78<110.115 295.638> 389 78<109.761 293.718>
LayerCount: 3
Fore
SplineSet
259 372 m 0
 177 372 118 301 118 204 c 0
 118 119 165 26 247 26 c 0
 329 26 389 78 389 203 c 0
 389 286 343 372 259 372 c 0
252 413 m 0
 370 413 467 320 467 203 c 16
 467 84 372 -15 254 -15 c 0
 134 -15 40 85 40 204 c 16
 40 320 136 413 252 413 c 0
EndSplineSet
Substitution2: "'tnum' Tabular Numbers lookup 32 subtable" zero.taboldstyle
Substitution2: "'lnum' Lining Figures lookup 30 subtable" zero.lnum
Substitution2: "Single Substitution lookup 29 subtable" zero.ordn
Substitution2: "Single Substitution lookup 28 subtable" zero.subs
Substitution2: "sups subtable" zero.sups
Substitution2: "sinf subtable" zero.sinf
Substitution2: "ordn subtable" zero.ordn
Substitution2: "subs subtable" zero.subs
EndChar

StartChar: one
Encoding: 49 49 50
Width: 289
VWidth: 0
Flags: W
HStem: -3 25<25.0807 90.5827 196.701 263.988> 384 22<39.0015 89.9044 201 249.946>
VStem: 109 72<32.9094 374.011>
LayerCount: 3
Fore
SplineSet
109 68 m 2
 109 333 l 2
 109 380 73 380 46 384 c 0
 41 384 39 390 39 395 c 0
 39 401 41 406 46 406 c 0
 106 406 106 403 145 403 c 24
 183 403 184 406 242 406 c 0
 248 406 250 401 250 396 c 0
 250 391 247 385 242 384 c 0
 214 378 181 379 181 333 c 2
 181 68 l 2
 181 29 208 28 252 22 c 0
 260 21 264 15 264 9 c 0
 264 3 260 -3 252 -3 c 0
 195 -3 187 2 145 2 c 24
 102 2 90 -3 36 -3 c 0
 29 -3 25 4 25 11 c 0
 25 17 28 22 36 22 c 0
 63 24 109 27 109 68 c 2
EndSplineSet
Substitution2: "one_variants subtable" one.01
Substitution2: "'tnum' Tabular Numbers lookup 32 subtable" one.taboldstyle
Substitution2: "'lnum' Lining Figures lookup 30 subtable" one.lnum
Substitution2: "Single Substitution lookup 29 subtable" one.ordn
Substitution2: "Single Substitution lookup 28 subtable" one.subs
Substitution2: "sups subtable" one.sups
Substitution2: "sinf subtable" one.sinf
Substitution2: "ordn subtable" one.ordn
Substitution2: "subs subtable" one.subs
EndChar

StartChar: two
Encoding: 50 50 77
Width: 422
VWidth: 0
Flags: W
HStem: 0 65<131.73 355.557> 345 68<102.764 207.552>
VStem: 226 68<219.734 327.421>
LayerCount: 3
Fore
SplineSet
363 -4 m 0
 349 -4 259 0 192 0 c 24
 128 0 34 -3 29 -3 c 0
 26 -3 22 1 22 5 c 0
 22 9 25 13 29 17 c 0
 46 34 74 61 90 74 c 0
 112 92 226 186 226 267 c 0
 226 314 199 345 161 345 c 0
 116 345 79 335 45 297 c 0
 41 293 38 290 32 290 c 8
 26 290 25 298 25 304 c 0
 25 313 72 413 190 413 c 0
 254 413 294 353 294 290 c 0
 294 258 277 220 253 191 c 0
 223 155 142 80 132 73 c 0
 126 69 135 65 141 65 c 2
 296 65 l 2
 334 65 370 90 389 128 c 0
 392 133 399 138 408 138 c 0
 411 138 412 135 412 132 c 0
 412 130 412 128 411 126 c 0
 395 81 378 22 378 12 c 0
 378 2 365 -4 363 -4 c 0
EndSplineSet
Validated: 1
Substitution2: "'tnum' Tabular Numbers lookup 25 subtable" two.taboldstyle
Substitution2: "'lnum' Lining Figures lookup 23 subtable" two.lnum
Substitution2: "Single Substitution lookup 22 subtable" two.ordn
Substitution2: "Single Substitution lookup 21 subtable" two.subs
Substitution2: "sups subtable" two.sups
Substitution2: "sinf subtable" two.sinf
Substitution2: "ordn subtable" two.ordn
Substitution2: "subs subtable" two.subs
EndChar

StartChar: four
Encoding: 52 52 79
Width: 492
VWidth: 0
Flags: W
HStem: -181 21G<289 296.5> 43 61<116 259.185> 53 51<117.124 277.99 351.065 459.476> 401 20G<346.5 354>
VStem: 278 73<-162.906 49.9258 104.023 282.138>
LayerCount: 3
Fore
SplineSet
266 104 m 2xb8
 271 104 278 108 278 112 c 2
 278 281 l 2
 278 284 271 285 268 282 c 24
 206 218 174 180 116 113 c 24
 114 110 112 104 116 104 c 2xd8
 266 104 l 2xb8
311 377 m 24
 326 394 343 420 350 421 c 1
 351 421 l 2
 357 421 354 414 354 409 c 8
 354 292 350 226 350 109 c 24
 350 106 352 103 355 103 c 16
 370 102 383 102 395 102 c 0
 414 102 432 103 454 104 c 0
 460 104 465 101 465 97 c 0
 465 81 451 53 444 53 c 0xb8
 429 53 411 54 395 54 c 0
 383 54 372 53 364 52 c 0
 359 51 351 47 351 46 c 2
 351 -133 l 2
 351 -158 300 -181 293 -181 c 0
 285 -181 278 -178 278 -168 c 2
 278 41 l 2
 278 47 264 50 263 50 c 0
 181 50 139 44 34 43 c 0
 29 43 21 43 21 48 c 0
 21 49 24 55 25 56 c 0
 91 134 199 252 311 377 c 24
EndSplineSet
Validated: 1
Substitution2: "'tnum' Tabular Numbers lookup 24 subtable" four.taboldstyle
Substitution2: "'lnum' Lining Figures lookup 22 subtable" four.lnum
Substitution2: "Single Substitution lookup 21 subtable" four.ordn
Substitution2: "Single Substitution lookup 20 subtable" four.subs
Substitution2: "sups subtable" four.sups
Substitution2: "sinf subtable" four.sinf
Substitution2: "ordn subtable" four.ordn
Substitution2: "subs subtable" four.subs
EndChar

StartChar: seven
Encoding: 55 55 80
Width: 460
VWidth: 0
Flags: W
HStem: 281 21G<27 33.5> 326 75<56.5231 340.016>
LayerCount: 3
Fore
SplineSet
344 313 m 2
 346 318 349 322 334 323 c 0
 295 324 160 326 128 326 c 2
 115 326 l 2
 95 326 71 324 55 303 c 0
 50 297 38 281 29 281 c 0
 25 281 24 284 24 289 c 0
 24 296 27 306 28 311 c 0
 35 340 40 370 40 395 c 0
 40 405 47 406 50 406 c 0
 53 406 88 403 113 402 c 0
 142 401 180 401 220 401 c 0
 309 401 407 403 426 407 c 0
 430 407 433 398 433 393 c 0
 433 377 405 340 395 323 c 2
 115 -166 l 10
 109 -177 100 -193 96 -193 c 0
 81 -193 68 -182 68 -167 c 0
 68 -163 80 -142 89 -126 c 18
 344 313 l 2
EndSplineSet
Validated: 1
Substitution2: "'tnum' Tabular Numbers lookup 32 subtable" seven.taboldstyle
Substitution2: "'lnum' Lining Figures lookup 30 subtable" seven.lnum
Substitution2: "Single Substitution lookup 29 subtable" seven.ordn
Substitution2: "Single Substitution lookup 28 subtable" seven.subs
Substitution2: "sups subtable" seven.sups
Substitution2: "sinf subtable" seven.sinf
Substitution2: "ordn subtable" seven.ordn
Substitution2: "subs subtable" seven.subs
EndChar

StartChar: eight
Encoding: 24 56 85
Width: 452
VWidth: 0
Flags: W
HStem: -13 37<182.29 294.073> 565 24<188.041 275.712>
VStem: 61 70<73.3158 201.713> 72 70<418.737 526.356> 319 70<401.999 529.481> 333 70<78.5432 179.326>
LayerCount: 3
Fore
SplineSet
265 340 m 0xd8
 308 375 319 416 319 472 c 16
 319 519 284 565 237 565 c 8
 189 565 142 532 142 486 c 8
 142 414 188 393 253 340 c 0
 257 337 261 337 265 340 c 0xd8
286 315 m 0
 356 269 403 232 403 157 c 8
 403 60 314 -13 222 -13 c 12
 137 -13 61 47 61 132 c 16xe4
 61 214 135 256 183 282 c 0
 192 287 188 289 180 295 c 0
 123 342 72 388 72 467 c 16
 72 543 160 589 242 589 c 16
 316 589 389 540 389 465 c 16
 389 420 363 393 341 374 c 0
 323 358 313 351 291 335 c 0
 275 323 276 322 286 315 c 0
197 261 m 0
 157 229 131 207 131 147 c 8
 131 84 173 24 236 24 c 16
 292 24 333 65 333 118 c 16
 333 176 277 222 223 259 c 0
 216 264 213 267 208 267 c 0
 205 267 202 265 197 261 c 0
EndSplineSet
Validated: 1
Substitution2: "'tnum' Tabular Numbers lookup 25 subtable" eight.taboldstyle
Substitution2: "'lnum' Lining Figures lookup 23 subtable" eight.lnum
Substitution2: "Single Substitution lookup 22 subtable" eight.ordn
Substitution2: "Single Substitution lookup 21 subtable" eight.subs
Substitution2: "sups subtable" eight.sups
Substitution2: "sinf subtable" eight.sinf
Substitution2: "ordn subtable" eight.ordn
Substitution2: "subs subtable" eight.subs
EndChar

StartChar: nine
Encoding: 57 57 82
Width: 466
VWidth: 0
Flags: W
HStem: -186 18<41.9316 75.6465> 89 53<168.428 255.77> 378 36<172.378 277.51>
VStem: 53 69<192.647 300.858> 346 80<102.36 310.427>
LayerCount: 3
Fore
SplineSet
251 414 m 0
 348 414 426 328 426 210 c 0
 426 96 354 6 300 -47 c 0
 245 -101 124 -176 55 -186 c 1
 50 -186 l 2
 45 -186 41 -185 41 -181 c 8
 41 -174 48 -170 55 -168 c 0
 112 -150 228 -56 270 0 c 0
 306 48 346 114 346 227 c 0
 346 310 291 378 218 378 c 0
 153 378 122 316 122 267 c 0
 122 206 167 142 220 142 c 0
 261 142 275 156 300 168 c 0
 305 170 309 161 307 157 c 0
 300 144 285 130 274 122 c 0
 259 111 219 89 182 89 c 0
 113 89 53 143 53 215 c 0
 53 306 130 414 251 414 c 0
EndSplineSet
Validated: 1
Substitution2: "'tnum' Tabular Numbers lookup 25 subtable" nine.taboldstyle
Substitution2: "'lnum' Lining Figures lookup 23 subtable" nine.lnum
Substitution2: "Single Substitution lookup 22 subtable" nine.ordn
Substitution2: "Single Substitution lookup 21 subtable" nine.subs
Substitution2: "sups subtable" nine.sups
Substitution2: "sinf subtable" nine.sinf
Substitution2: "ordn subtable" nine.ordn
Substitution2: "subs subtable" nine.subs
EndChar

StartChar: colon
Encoding: 58 58 70
Width: 248
VWidth: 0
Flags: W
HStem: -14 110<81.8467 168.153> 263 110<81.8467 168.153>
VStem: 70 110<-2.15331 84.1533 274.847 361.153>
LayerCount: 3
Fore
SplineSet
125 96 m 24
 155 96 180 71 180 41 c 24
 180 11 155 -14 125 -14 c 24
 95 -14 70 11 70 41 c 24
 70 71 95 96 125 96 c 24
125 373 m 24
 155 373 180 348 180 318 c 24
 180 288 155 263 125 263 c 24
 95 263 70 288 70 318 c 24
 70 348 95 373 125 373 c 24
EndSplineSet
Substitution2: "sups subtable" colon.sups
Substitution2: "sinf subtable" colon.sinf
Substitution2: "ordn subtable" colon.ordn
Substitution2: "subs subtable" colon.subs
EndChar

StartChar: semicolon
Encoding: 59 59 71
Width: 228
VWidth: 0
Flags: W
HStem: -147 23<18.0329 65.1406> 29 88<50.4428 120.388> 263 110<62.8467 149.153>
VStem: 51 110<274.847 361.153> 128 52<-60.0924 49.1868>
LayerCount: 3
Fore
SplineSet
36 -147 m 0xe8
 24 -147 18 -142 18 -136 c 0
 18 -131 23 -126 32 -124 c 0
 75 -115 128 -85 128 -15 c 0
 128 1 111 27 89 29 c 0
 60 32 42 49 42 71 c 0
 42 98 68 117 97 117 c 0
 145 117 180 76 180 20 c 0
 180 -81 87 -147 36 -147 c 0xe8
106 373 m 24
 136 373 161 348 161 318 c 24
 161 288 136 263 106 263 c 24
 76 263 51 288 51 318 c 24xf0
 51 348 76 373 106 373 c 24
EndSplineSet
Validated: 1
Substitution2: "sups subtable" semicolon.sups
Substitution2: "sinf subtable" semicolon.sinf
Substitution2: "ordn subtable" semicolon.ordn
Substitution2: "subs subtable" semicolon.subs
EndChar

StartChar: less
Encoding: 60 60 100
Width: 590
VWidth: 0
Flags: W
HStem: -6 21G<525.5 529>
LayerCount: 3
Fore
SplineSet
133 229 m 2
 513 55 l 10
 532 46 537 16 537 7 c 0
 537 2 532 -6 526 -6 c 0
 525 -6 524 -5 523 -5 c 10
 94 195 l 26
 77 203 53 216 53 222 c 0
 53 231 66 259 86 268 c 26
 523 468 l 18
 524 468 525 469 526 469 c 0
 532 469 536 465 536 459 c 0
 536 447 525 417 505 408 c 18
 132 234 l 2
 129 233 130 230 133 229 c 2
EndSplineSet
Substitution2: "sups subtable" less.sups
Substitution2: "sinf subtable" less.sinf
Substitution2: "ordn subtable" less.ordn
Substitution2: "subs subtable" less.subs
EndChar

StartChar: greater
Encoding: 62 62 101
Width: 590
VWidth: 0
Flags: W
HStem: -6 21G<61 64.5>
LayerCount: 3
Fore
SplineSet
457 234 m 2
 77 408 l 10
 58 417 53 447 53 456 c 0
 53 461 58 469 64 469 c 0
 65 469 66 468 67 468 c 10
 496 268 l 26
 513 260 537 247 537 241 c 0
 537 232 524 204 504 195 c 26
 67 -5 l 18
 66 -5 65 -6 64 -6 c 0
 58 -6 54 -1 54 4 c 0
 54 16 65 46 85 55 c 18
 458 229 l 2
 461 230 460 233 457 234 c 2
EndSplineSet
Validated: 1
Substitution2: "sups subtable" greater.sups
Substitution2: "sinf subtable" greater.sinf
Substitution2: "ordn subtable" greater.ordn
Substitution2: "subs subtable" greater.subs
EndChar

StartChar: at
Encoding: 32 64 1020
Width: 749
VWidth: 0
Flags: W
HStem: -131 40<285.786 481.766> 47 34<306.838 396.313 471.5 575.64> 325 30<343.972 444.313> 467 40<282.801 491.002>
VStem: 50 47<88.8546 298.864> 204 71<106.898 246.874> 652 47<148.276 316.333>
LayerCount: 3
Back
SplineSet
524 395 m 0xd7d0
 459 395 304 249 304 124 c 0
 304 97 317 84 336 84 c 0
 407 84 574 323 574 363 c 0
 574 381 548 395 524 395 c 0xd7d0
582 70 m 1xafd0
 717 70 820 172 820 301 c 16
 820 470 663 578 496 578 c 8
 269 578 115 361 115 138 c 0
 115 -32 270 -180 450 -180 c 16
 603 -180 685 -124 739 -64 c 0
 745 -57 752 -55 757 -55 c 0
 764 -55 768 -59 765 -66 c 0
 757 -86 644 -226 448 -226 c 0
 248 -226 50 -71 50 140 c 16
 50 388 244 612 498 612 c 16
 687 612 866 496 866 307 c 0
 866 135 706 27 525 27 c 2
 518 27 l 2xafd0
 499 27 487 49 487 71 c 0
 487 75 487 79 488 82 c 0
 494 110 503 150 518 191 c 0
 525 210 517 209 511 202 c 0
 427 89 342 24 261 24 c 0
 244 24 226 32 226 67 c 0
 226 205 449 444 551 444 c 0
 566 444 574 439 587 428 c 0
 596 420 600 420 602 426 c 0xd7b0
 608 448 619 464 629 464 c 0
 646 464 663 454 663 444 c 0
 663 439 660 430 656 419 c 2
 558 114 l 2
 556 108 555 103 555 98 c 0
 555 81 566 71 582 70 c 1xafd0
527 363 m 0xdf80
 454 363 290 143 290 94 c 0
 290 89 287 68 298 68 c 16
 360 68 557 311 557 351 c 0
 557 356 540 363 527 363 c 0xdf80
500 18 m 8xbf80
 478 18 468 44 470 66 c 16
 473 96 494 168 514 206 c 0
 523 224 518 237 512 230 c 8
 425 129 318 8 253 8 c 0xdf80
 236 8 211 34 211 60 c 16
 211 94 440 405 538 405 c 0
 559 405 570 388 576 394 c 0
 580 398 594 436 617 436 c 16
 634 436 634 430 640 422 c 16
 643 418 640 405 636 394 c 8
 598 288 579 228 541 122 c 8
 531 95 547 56 576 56 c 16
 711 56 820 160 820 292 c 16
 820 461 663 578 496 578 c 8
 275 578 115 381 115 158 c 0
 115 -12 267 -171 450 -171 c 16
 603 -171 685 -124 739 -64 c 0
 753 -49 770 -54 765 -66 c 0
 757 -86 736 -107 723 -120 c 0
 701 -142 644 -217 448 -217 c 0
 248 -217 50 -54 50 160 c 16
 50 408 250 612 498 612 c 16
 687 612 866 487 866 298 c 8
 866 118 683 18 500 18 c 8xbf80
EndSplineSet
Fore
SplineSet
492 47 m 4
 451 47 448 84 438 84 c 4
 428 84 385 47 322 47 c 4
 256 47 204 86 204 156 c 4
 204 277 305 355 415 355 c 4
 435 355 468 351 480 347 c 4
 495 342 499 341 503 341 c 4
 513 341 518 360 528 360 c 4
 532 360 549 356 546 352 c 4
 537 328 527 288 524 272 c 14
 503 140 l 22
 502 131 500 122 500 113 c 4
 500 98 504 84 518 84 c 4
 588 84 652 137 652 220 c 12
 652 359 533 467 394 467 c 12
 236 467 97 360 97 191 c 12
 97 32 234 -91 393 -91 c 20
 458 -91 550 -56 600 -14 c 12
 606 -9 613 -4 618 -4 c 4
 627 -4 632 -8 632 -17 c 4
 632 -41 490 -131 382 -131 c 12
 204 -131 50 -3 50 181 c 4
 50 395 223 507 414 507 c 20
 563 507 699 384 699 235 c 4
 699 118 599 47 492 47 c 4
393 325 m 4
 336 325 275 273 275 175 c 4
 275 103 320 81 358 81 c 4
 382 81 398 89 418 103 c 4
 430 111 439 121 445 152 c 6
 464 255 l 6
 465 259 465 263 465 267 c 4
 465 304 436 325 393 325 c 4
EndSplineSet
Validated: 1
Substitution2: "at_alternates subtable" at.01
Substitution2: "sups subtable" at.sups
Substitution2: "sinf subtable" at.sinf
Substitution2: "ordn subtable" at.ordn
Substitution2: "subs subtable" at.subs
EndChar

StartChar: A
Encoding: 33 65 31
Width: 684
VWidth: 0
Flags: W
HStem: -5 36<-0.573315 70.1888 195.015 266.525 395.098 475.898 612.158 694.277> 244 43<241.006 430.907>
VStem: -2 178<4 93.5> 489 208<1 90.5>
AnchorPoint: "cedilla" 124 8 basechar 0
AnchorPoint: "ogonek" 508 18 basechar 0
AnchorPoint: "below_accent" 334 -100 basechar 0
AnchorPoint: "top_accent" 363 700 basechar 0
LayerCount: 3
Back
Fore
SplineSet
668 -5 m 0
 640 -5 574 1 529 1 c 0
 490 1 448 0 424 0 c 0
 407 0 395 4 395 12 c 0
 395 21 410 28 428 31 c 0
 472 38 489 54 489 76 c 0
 489 105 466 183 451 233 c 0
 448 243 442 244 424 244 c 2
 233 244 l 2
 227 244 221 240 216 226 c 0
 207 200 176 100 176 87 c 0
 176 58 202 38 234 30 c 0
 257 24 267 19 267 10 c 0
 267 2 255 -1 238 -1 c 0
 220 -1 184 1 147 1 c 0
 103 1 60 -5 27 -5 c 0
 10 -5 -2 0 -2 8 c 0
 -2 17 9 24 31 31 c 0
 65 41 95 58 117 108 c 0
 192 279 237 393 304 578 c 0
 319 620 316 635 318 636 c 0
 330 640 342 643 354 651 c 0
 368 660 370 676 375 676 c 0
 380 676 382 671 385 662 c 0
 449 459 530 223 563 128 c 0
 591 48 624 35 664 28 c 0
 687 24 697 14 697 5 c 0
 697 -3 685 -5 668 -5 c 0
333 542 m 2
 243 302 l 2
 242 299 241 296 241 294 c 0
 241 287 249 287 262 287 c 2
 417 287 l 2
 427 287 431 287 431 292 c 0
 431 294 430 298 429 302 c 2
 350 541 l 2
 346 553 344 559 341 559 c 0
 339 559 337 553 333 542 c 2
EndSplineSet
Validated: 1
Substitution2: "c2sc subtable" A.sc
Substitution2: "sups subtable" A.sups
Substitution2: "sinf subtable" A.sinf
Substitution2: "ordn subtable" A.ordn
Substitution2: "subs subtable" A.subs
EndChar

StartChar: C
Encoding: 67 67 32
Width: 640
VWidth: 0
Flags: W
HStem: -15 31<326.024 480.938> 632 31<314.682 483.324>
VStem: 46 100<217.847 434.419> 576 37<473.764 560.679>
AnchorPoint: "cedilla" 426 8 basechar 0
AnchorPoint: "below_accent" 404 -100 basechar 0
AnchorPoint: "top_accent" 381 710 basechar 0
LayerCount: 3
Back
Fore
SplineSet
586 137 m 0
 592 148 606 152 611 156 c 0
 612 157 612 157 613 157 c 0
 617 157 620 147 620 138 c 0
 620 135 619 132 619 130 c 0
 615 105 601 49 586 26 c 0
 581 18 562 13 537 5 c 0
 502 -6 429 -15 369 -15 c 8
 187 -15 46 141 46 323 c 0
 46 517 216 663 410 663 c 0
 442 663 498 657 516 651 c 0
 534 645 572 636 592 633 c 0
 600 632 604 617 605 603 c 0
 609 572 612 546 613 494 c 0
 614 485 612 470 602 471 c 0
 591 472 580 485 576 508 c 1
 571 548 553 570 541 581 c 0
 531 591 486 632 394 632 c 8
 247 632 146 494 146 347 c 8
 146 184 244 16 400 16 c 0
 512 16 560 86 586 137 c 0
EndSplineSet
Substitution2: "c2sc subtable" C.sc
Substitution2: "sups subtable" C.sups
Substitution2: "sinf subtable" C.sinf
Substitution2: "ordn subtable" C.ordn
Substitution2: "subs subtable" C.subs
EndChar

StartChar: E
Encoding: 69 69 35
Width: 535
VWidth: 0
Flags: W
HStem: -5 40<221.438 455.39> -5 29<23.6924 99.9253> 320 32<211.086 367.094> 388 20G<400.5 405.5> 618 35<32.1729 114.247 215.59 433.859>
VStem: 130 80<44.9696 319.486 352 605.889> 383 32<253.771 304.565> 466 25<526.084 573.315>
AnchorPoint: "cedilla" 322 8 basechar 0
AnchorPoint: "ogonek" 450 18 basechar 0
AnchorPoint: "below_accent" 280 -100 basechar 0
AnchorPoint: "top_accent" 287 710 basechar 0
LayerCount: 3
Back
Fore
SplineSet
210 102 m 2x7f
 210 51 231 35 276 35 c 2
 380 35 l 2xbf
 430 35 443 43 456 53 c 0
 474 67 490 99 498 116 c 0
 502 124 505 127 512 126 c 16
 519 125 525 123 525 115 c 0
 525 97 515 38 508 12 c 0
 506 3 502 -5 494 -5 c 8
 366 -5 267 1 167 1 c 8
 122 1 106 -5 52 -5 c 0
 35 -5 23 -2 23 6 c 0
 23 15 33 20 56 24 c 0
 106 33 130 51 130 99 c 2
 130 549 l 2
 130 597 113 613 63 622 c 0
 40 626 30 633 30 642 c 4
 30 650 42 653 59 653 c 0
 134 653 166 650 236 650 c 0
 327 650 448 653 458 653 c 0
 465 653 475 651 476 644 c 0
 483 606 491 568 491 541 c 0
 491 529 483 526 477 526 c 0
 470 526 468 529 466 536 c 0
 459 558 453 581 444 591 c 0
 425 612 402 618 377 618 c 2
 246 618 l 2
 235 618 210 605 210 586 c 2
 210 374 l 2
 210 362 218 352 228 352 c 2
 324 352 l 2
 353 352 375 368 385 391 c 0
 387 396 398 408 403 408 c 0
 408 408 416 402 416 392 c 0
 416 383 413 353 413 337 c 0
 413 317 415 277 415 269 c 0
 415 260 414 252 406 252 c 8
 393 252 385 268 383 275 c 0
 373 306 354 320 337 320 c 2
 244 320 l 2
 221 320 210 317 210 294 c 2
 210 102 l 2x7f
EndSplineSet
Validated: 1
Substitution2: "c2sc subtable" E.sc
Substitution2: "sups subtable" E.sups
Substitution2: "sinf subtable" E.sinf
Substitution2: "ordn subtable" E.ordn
Substitution2: "subs subtable" E.subs
EndChar

StartChar: F
Encoding: 70 70 41
Width: 512
VWidth: 0
Flags: W
HStem: -5 29<30.6924 104.863 240.561 311.308> 318 37<211.16 382.438> 391 20G<412.5 417.5> 611 39<214.231 429.753> 622 31<37.0745 105.304>
VStem: 130 80<46.2759 315.741 352.008 603.448> 396 32<256.771 304.694> 461 24<523.355 565.46>
AnchorPoint: "top_accent" 279 700 basechar 0
LayerCount: 3
Back
SplineSet
65 653 m 0xef
 138 653 168 650 237 650 c 0
 328 650 421 653 453 653 c 0
 457 653 460 653 462 653 c 0xef
 469 653 479 651 480 644 c 0
 484.293 620.696 484.825 601.529 484.825 582.116 c 0
 484.825 575.721 484.767 569.299 484.767 562.694 c 0
 484.767 556.656 484.815 550.464 485 544 c 0
 485 538 482 523 476 523 c 0
 469 523 463 528 461 535 c 0
 454 557 447 574 438 584 c 0
 419 605 396 611 371 611 c 2
 244 611 l 2xf7
 213 611 211 587 210 561 c 0
 209 536 209 502 209 467 c 0
 209 433 209 398 210 374 c 0
 210 363 211 352 220 352 c 0
 262 352 312 355 336 355 c 0
 365 355 387 371 397 394 c 0
 399 399 410 411 415 411 c 0
 420 411 429 404 428 395 c 0
 425.799 372.11 424.954 355.421 424.954 339.559 c 0
 424.954 319.386 426.321 300.551 428 272 c 0
 428 263 427 255 419 255 c 8
 406 255 398 271 396 278 c 0
 386 309 365 317 349 317 c 0
 332 317 315 318 299 318 c 0
 276 318 255 317 234 316 c 0
 221 315 210 308 210 291 c 0
 210 230 210 167 213 101 c 0
 215 58 229 33 279 24 c 0
 302 20 312 15 312 6 c 0
 312 -2 300 -5 283 -5 c 0
 229 -5 223 2 185 2 c 24
 136 2 113 -5 59 -5 c 0
 42 -5 30 -2 30 6 c 0
 30 15 40 20 63 24 c 0
 113 33 130 51 130 100 c 2
 130 522 l 2
 130 582 119 613 69 622 c 0
 46 626 36 633 36 642 c 0
 36 650 48 653 65 653 c 0xef
EndSplineSet
Fore
SplineSet
485 544 m 0xef
 485 532 482 523 476 523 c 0
 469 523 463 528 461 535 c 0
 454 557 447 574 438 584 c 0
 419 605 396 611 371 611 c 2
 244 611 l 2xf7
 213 611 211 587 210 561 c 0
 209 536 209 502 209 467 c 0
 209 433 209 398 210 374 c 0
 210 363 211 352 220 352 c 0
 262 352 312 355 336 355 c 0
 365 355 387 371 397 394 c 0
 399 399 410 411 415 411 c 0
 420 411 429 404 428 395 c 0
 426 372 425 356 425 340 c 0
 425 320 426 301 428 272 c 0
 428 263 427 255 419 255 c 8
 406 255 398 271 396 278 c 0
 386 309 365 317 349 317 c 0
 332 317 315 318 299 318 c 0
 276 318 255 317 234 316 c 0
 221 315 210 308 210 291 c 0
 210 230 210 167 213 101 c 0
 215 58 229 33 279 24 c 0
 302 20 312 15 312 6 c 0
 312 -2 300 -5 283 -5 c 0
 229 -5 223 2 185 2 c 24
 136 2 113 -5 59 -5 c 0
 42 -5 30 -2 30 6 c 0
 30 15 40 20 63 24 c 0
 113 33 130 51 130 100 c 2
 130 522 l 2
 130 582 119 613 69 622 c 0
 46 626 36 633 36 642 c 0
 36 650 48 653 65 653 c 0xef
 138 653 168 650 237 650 c 0xf7
 328 650 462 653 462 653 c 0
 469 653 479 651 480 644 c 0
 484 621 485 558 485 544 c 0xef
EndSplineSet
Validated: 1
Substitution2: "c2sc subtable" F.sc
Substitution2: "sups subtable" F.sups
Substitution2: "sinf subtable" F.sinf
Substitution2: "ordn subtable" F.ordn
Substitution2: "subs subtable" F.subs
EndChar

StartChar: G
Encoding: 71 71 40
Width: 729
VWidth: 0
Flags: W
HStem: -14 37<315.229 500.441> 256 34<437.011 535.328 642.232 692.897> 625 38<314.976 509.098>
VStem: 45 99<204.234 428.131> 560 65<72.4729 237.12> 594 38<492.515 554.786>
AnchorPoint: "below_accent" 401 -100 basechar 0
AnchorPoint: "top_accent" 400 710 basechar 0
LayerCount: 3
Back
Fore
SplineSet
621 624 m 0xf8
 627 582 632 538 632 512 c 0
 632 502 625 492 617 492 c 8
 603 492 598 507 594 519 c 0xf4
 586 540 579 553 563 572 c 0
 550 588 499 625 404 625 c 8
 249 625 144 482 144 324 c 0
 144 134 273 23 406 23 c 0
 483 23 516 48 528 60 c 0
 543 75 558 102 558 137 c 0
 558 154 560 177 560 195 c 0
 560 209 559 220 555 225 c 0
 538 247 477 256 457 256 c 0
 452 256 437 263 437 273 c 0
 437 283 452 290 457 290 c 8
 506 290 528 286 583 286 c 8
 618 286 636 290 672 290 c 0
 677 290 693 287 693 274 c 0
 693 265 677 257 672 256 c 0
 643 248 634 234 630 207 c 0
 626 178 625 157 625 132 c 2
 625 105 l 10
 625 98 628 95 631 89 c 24
 635 82 644 77 644 72 c 0
 644 67 644 55 630 53 c 0
 610 50 519 -14 392 -14 c 8
 207 -14 45 126 45 311 c 0
 45 509 214 663 413 663 c 16
 463 663 619 639 621 624 c 0xf8
EndSplineSet
Validated: 1
Substitution2: "c2sc subtable" G.sc
Substitution2: "sups subtable" G.sups
Substitution2: "sinf subtable" G.sinf
Substitution2: "ordn subtable" G.ordn
Substitution2: "subs subtable" G.subs
EndChar

StartChar: H
Encoding: 72 72 47
Width: 810
VWidth: 0
Flags: W
HStem: -5 29<37.6924 109.801 250.294 321.308 501.692 572.618 698.672 769.308> 302 48<210 601.981> 622 31<45.0745 116.701 235.842 309.926 504.074 576.241 697.262 766.926>
VStem: 130 80<53.5983 302 350 603.314> 602 80<44.8548 302 350 604.033>
AnchorPoint: "below_accent" 423 -100 basechar 0
AnchorPoint: "top_accent" 406 700 basechar 0
LayerCount: 3
Back
Fore
SplineSet
682 100 m 2
 682 51 687 33 737 24 c 0
 760 20 770 15 770 6 c 0
 770 -2 758 -5 741 -5 c 0
 687 -5 678 0 637 0 c 24
 595 0 584 -5 530 -5 c 0
 513 -5 501 -2 501 6 c 0
 501 15 511 20 534 24 c 0
 576 32 602 54 602 97 c 2
 602 287 l 2
 602 294 603 302 597 302 c 2
 215 302 l 2
 210 302 210 299 210 291 c 2
 210 106 l 2
 210 64 243 32 289 24 c 0
 312 20 322 15 322 6 c 0
 322 -2 310 -5 293 -5 c 0
 239 -5 222 0 176 0 c 24
 133 0 120 -5 66 -5 c 0
 49 -5 37 -2 37 6 c 0
 37 15 47 20 70 24 c 0
 120 33 130 51 130 99 c 2
 130 551 l 2
 130 597 127 613 77 622 c 0
 54 626 44 633 44 642 c 0
 44 650 56 653 73 653 c 0
 127 653 136 650 176 650 c 24
 217 650 228 653 282 653 c 0
 299 653 311 650 311 642 c 0
 311 633 301 626 278 622 c 0
 228 613 210 590 210 551 c 2
 210 359 l 2
 210 351 218 350 224 350 c 2
 595 350 l 2
 600 350 602 353 602 362 c 2
 602 552 l 2
 602 588 586 613 536 622 c 0
 513 626 503 633 503 642 c 0
 503 650 515 653 532 653 c 0
 586 653 603 650 648 650 c 24
 684 650 685 653 739 653 c 0
 756 653 768 650 768 642 c 0
 768 633 758 626 735 622 c 0
 685 613 682 590 682 552 c 2
 682 100 l 2
EndSplineSet
Validated: 1
Substitution2: "c2sc subtable" H.sc
Substitution2: "sups subtable" H.sups
Substitution2: "sinf subtable" H.sinf
Substitution2: "ordn subtable" H.ordn
Substitution2: "subs subtable" H.subs
EndChar

StartChar: L
Encoding: 76 76 36
Width: 574
VWidth: 0
Flags: W
HStem: -5 40<220.001 480.636> -5 29<27.3563 94.228> 622 31<37.0745 116.488 238.822 330.926>
VStem: 130 80<47.25 603.136> 541 34<139.048 159.894>
AnchorPoint: "cedilla" 183 8 basechar 0
AnchorPoint: "below_accent" 314 -100 basechar 0
AnchorPoint: "top_accent" 186 700 basechar 0
LayerCount: 3
Back
Fore
SplineSet
210 567 m 2x78
 210 96 l 2
 210 55 221 35 287 35 c 2
 433 35 l 2xb8
 438 35 471 45 489 61 c 24
 515 84 524 96 541 132 c 0
 544 140 554 162 563 162 c 0
 571 162 575 152 575 144 c 0
 575 142 574 140 574 139 c 0
 560 87 551 54 547 12 c 0
 546 3 543 -5 533 -5 c 8
 399 -5 290 0 190 0 c 0
 140 0 55 -5 55 -5 c 2
 37 -5 27 0 27 7 c 0
 27 19 45 23 49 24 c 0
 101 34 130 52 130 96 c 2
 130 560 l 2
 130 608 119 613 69 622 c 0
 46 626 36 633 36 642 c 0
 36 650 48 653 65 653 c 0
 119 653 133 650 177 650 c 24
 226 650 249 653 303 653 c 0
 320 653 332 650 332 642 c 0
 332 633 322 626 299 622 c 0
 249 613 210 606 210 567 c 2x78
EndSplineSet
Validated: 1
Substitution2: "c2sc subtable" L.sc
Substitution2: "sups subtable" L.sups
Substitution2: "sinf subtable" L.sinf
Substitution2: "ordn subtable" L.ordn
Substitution2: "subs subtable" L.subs
Substitution2: "loclCAT subtable" L.CAT
EndChar

StartChar: M
Encoding: 77 77 27
Width: 901
VWidth: 0
Flags: W
HStem: -10 21G<399.5 404> -5 29<19.6924 82.5 196.62 261.308 585.692 653.169 789.765 864.308> 623 33<42.7778 120.744 771.253 841.562>
VStem: 657 78<325.525 479.996> 669 88<45.3904 347.143>
AnchorPoint: "below_accent" 406 -100 basechar 0
AnchorPoint: "top_accent" 449 710 basechar 0
LayerCount: 3
Back
Fore
SplineSet
735 568 m 0x70
 735 382 749 246 757 95 c 0
 759 54 782 33 832 24 c 0
 855 20 865 15 865 6 c 0
 865 -2 853 -5 836 -5 c 0
 782 -5 765 0 719 0 c 24
 678 0 668 -5 614 -5 c 0
 597 -5 585 -2 585 6 c 0
 585 15 595 21 618 24 c 0
 657 29 669 49 669 96 c 8x68
 669 240 663 329 657 464 c 0
 657 475 655 480 652 480 c 0
 650 480 646 474 641 464 c 2
 419 14 l 2
 411 -3 406 -10 402 -10 c 0xb0
 397 -10 393 1 388 16 c 0
 336 172 284 296 209 471 c 16
 203 485 198 486 196 471 c 8
 177 330 164 238 164 102 c 0
 164 76 180 33 229 24 c 0
 252 20 262 15 262 6 c 0
 262 -2 250 -5 233 -5 c 0
 179 -5 176 0 139 0 c 24
 103 0 102 -5 48 -5 c 0
 31 -5 19 -2 19 6 c 0
 19 15 29 20 52 24 c 0
 102 33 112 89 114 102 c 0
 138 282 155 454 155 538 c 0
 155 548 154 555 154 561 c 0
 154 572 150 580 139 593 c 0
 119 616 80 621 56 627 c 0
 50 629 42 635 42 644 c 0
 42 654 59 655 65 655 c 0
 102 655 205 647 231 647 c 0
 249 647 257 581 267 554 c 2
 425 153 l 2
 429 143 433 138 437 138 c 0
 440 138 444 142 448 150 c 2
 645 560 l 2
 660 592 658 648 673 648 c 2
 709 648 l 10
 752 648 800 656 820 656 c 2
 823 656 l 2
 829 656 844 655 844 646 c 0
 844 635 824 625 818 623 c 0
 784 613 735 600 735 568 c 0x70
EndSplineSet
Substitution2: "c2sc subtable" M.sc
Substitution2: "sups subtable" M.sups
Substitution2: "sinf subtable" M.sinf
Substitution2: "ordn subtable" M.ordn
Substitution2: "subs subtable" M.subs
EndChar

StartChar: O
Encoding: 79 79 46
Width: 763
VWidth: 0
Flags: W
HStem: -14 39<309.694 487.027> 625 39<289.881 469.419>
VStem: 45 97<219.261 444.186> 621 97<206.698 451.883>
AnchorPoint: "cedilla" 412 8 basechar 0
AnchorPoint: "ogonek" 520 18 basechar 0
AnchorPoint: "below_accent" 370 -100 basechar 0
AnchorPoint: "top_accent" 383 710 basechar 0
LayerCount: 3
Back
Fore
SplineSet
375 625 m 0
 227 625 142 490 142 350 c 0
 142 179 247 25 395 25 c 0
 545 25 621 134 621 305 c 0
 621 495 535 625 375 625 c 0
45 320 m 0
 45 501 166 664 390 664 c 0
 564 664 718 532 718 335 c 0
 718 155 601 -14 382 -14 c 0
 205 -14 45 130 45 320 c 0
EndSplineSet
Validated: 1
Substitution2: "c2sc subtable" O.sc
Substitution2: "sups subtable" O.sups
Substitution2: "sinf subtable" O.sinf
Substitution2: "ordn subtable" O.ordn
Substitution2: "subs subtable" O.subs
EndChar

StartChar: P
Encoding: 48 80 26
Width: 552
VWidth: 0
Flags: W
HStem: -5 29<24.6924 100.631 239.305 309.308> 254 25<261.331 369.017> 622 31<37.0745 105.304> 630 28<221.934 346.854>
VStem: 130 80<45.1651 603.448> 441 90<377.799 555.339>
AnchorPoint: "below_accent" 170 -100 basechar 0
AnchorPoint: "top_accent" 286 700 basechar 0
LayerCount: 3
Back
Fore
SplineSet
441 458 m 0xdc
 441 580 371 630 274 630 c 0xdc
 236 630 210 618 210 588 c 2
 210 111 l 2
 210 63 227 33 277 24 c 0
 300 20 310 15 310 6 c 0
 310 -2 298 -5 281 -5 c 0
 227 -5 221 2 183 2 c 24
 132 2 107 -5 53 -5 c 0
 36 -5 24 -2 24 6 c 0
 24 15 34 20 57 24 c 0
 107 33 130 51 130 100 c 2
 130 522 l 2
 130 582 119 613 69 622 c 0
 46 626 36 633 36 642 c 0
 36 650 48 653 65 653 c 0xec
 119 653 122 652 163 652 c 0
 203 652 246 658 274 658 c 0
 423 658 531 590 531 482 c 0
 531 359 456 254 303 254 c 0
 274 254 258 265 258 273 c 0
 258 278 267 284 274 284 c 0
 280 284 293 279 320 279 c 0
 400 279 441 340 441 458 c 0xdc
EndSplineSet
Validated: 1
Substitution2: "c2sc subtable" P.sc
Substitution2: "sups subtable" P.sups
Substitution2: "sinf subtable" P.sinf
Substitution2: "ordn subtable" P.ordn
Substitution2: "subs subtable" P.subs
EndChar

StartChar: R
Encoding: 50 82 29
Width: 689
VWidth: 0
Flags: W
HStem: -21 46<603.627 713.254> -5 29<24.6924 100.631 240.775 309.308> 627 30<36.0088 96.507 226.614 350.078>
VStem: 130 80<46.2739 302.04 331.373 603.448> 413 90<411.17 576.45>
AnchorPoint: "below_accent" 374 -100 basechar 0
AnchorPoint: "top_accent" 283 700 basechar 0
LayerCount: 3
Back
Fore
SplineSet
413 477 m 0x38
 413 558 391 627 278 627 c 0
 223 627 215 603 214 573 c 0
 211 500 210 444 210 364 c 0
 210 331 230 329 263 329 c 0
 355 329 413 400 413 477 c 0x38
385 325 m 0
 380 323 381 318 385 312 c 0
 447 218 494 143 588 58 c 24
 623 27 656 25 703 25 c 0
 713 25 718 22 718 14 c 0
 718 -15 662 -21 637 -21 c 0xb8
 580 -21 534 -10 499 33 c 0
 450 93 416 129 347 241 c 0
 336 259 324 270 304 280 c 24
 275 294 243 300 225 302 c 0
 214 303 210 294 210 282 c 2
 210 110 l 2
 210 67 227 33 277 24 c 0
 300 20 310 15 310 6 c 0
 310 -2 298 -5 281 -5 c 0
 227 -5 221 2 183 2 c 24
 132 2 107 -5 53 -5 c 0
 36 -5 24 -2 24 6 c 0
 24 15 34 20 57 24 c 0x78
 107 33 130 51 130 100 c 2
 130 522 l 2
 130 582 119 613 69 622 c 0
 46 626 36 633 36 642 c 0
 36 650 48 653 65 653 c 0
 119 653 122 652 163 652 c 0
 201 652 220 657 278 657 c 0
 424 657 503 602 503 493 c 0
 503 403 440 353 385 325 c 0
EndSplineSet
Validated: 1
Substitution2: "c2sc subtable" R.sc
Substitution2: "sups subtable" R.sups
Substitution2: "sinf subtable" R.sinf
Substitution2: "ordn subtable" R.ordn
Substitution2: "subs subtable" R.subs
EndChar

StartChar: S
Encoding: 51 83 45
Width: 465
VWidth: 0
Flags: W
HStem: -16 33<150.471 288.315> 631 33<190.87 312.057>
VStem: 59 77<467.614 571.876> 338 84<76.5835 196.667>
AnchorPoint: "cedilla" 265 8 basechar 0
AnchorPoint: "below_accent" 225 -100 basechar 0
AnchorPoint: "top_accent" 240 700 basechar 0
LayerCount: 3
Back
Fore
SplineSet
223 17 m 0
 298 17 338 62 338 132 c 0
 338 198 268 263 186 318 c 0
 116 365 59 417 59 497 c 0
 59 584 140 664 260 664 c 0
 324 664 369 644 379 644 c 0
 388 644 394 631 396 621 c 0
 397 618 405 568 405 537 c 0
 405 522 403 512 398 512 c 0
 379 512 366 525 363 540 c 0
 353 598 307 631 251 631 c 0
 189 631 136 590 136 523 c 0
 136 459 218 408 269 375 c 0
 326 338 422 262 422 160 c 0
 422 80 364 -16 214 -16 c 0
 141 -16 97 0 80 8 c 0
 67 14 61 20 59 25 c 0
 48 48 41 104 41 140 c 0
 41 149 51 169 62 169 c 0
 71 169 82 135 92 103 c 0
 111 42 165 17 223 17 c 0
EndSplineSet
Validated: 1
Substitution2: "c2sc subtable" S.sc
Substitution2: "sups subtable" S.sups
Substitution2: "sinf subtable" S.sinf
Substitution2: "ordn subtable" S.ordn
Substitution2: "subs subtable" S.subs
EndChar

StartChar: bracketleft
Encoding: 91 91 51
Width: 373
VWidth: 0
Flags: W
HStem: -200 33<246.692 332.909> 667 35<171.713 332.265>
VStem: 112 48<-149.297 659.67>
LayerCount: 3
Back
Fore
SplineSet
150 702 m 10
 315 701 l 26
 324 701 333 698 333 688 c 0
 333 678 320 674 307 673 c 2
 199 667 l 2
 184 667 160 643 160 624 c 2
 160 -105 l 2
 160 -132 177 -152 195 -154 c 2
 307 -167 l 2
 320 -169 333 -173 333 -185 c 24
 333 -197 319 -200 307 -200 c 26
 143 -200 l 18
 120 -200 112 -199 112 -175 c 2
 112 668 l 2
 112 702 118 702 150 702 c 10
EndSplineSet
Substitution2: "sups subtable" bracketleft.sups
Substitution2: "sinf subtable" bracketleft.sinf
Substitution2: "ordn subtable" bracketleft.ordn
Substitution2: "subs subtable" bracketleft.subs
EndChar

StartChar: backslash
Encoding: 60 92 96
Width: 399
VWidth: 0
Flags: W
LayerCount: 3
Fore
SplineSet
378 -47 m 18
 378 -48 379 -49 379 -50 c 0
 379 -57 370 -62 362 -62 c 8
 347 -62 332 -61 326 -47 c 26
 29 648 l 18
 29 649 28 651 28 652 c 0
 28 659 35 665 42 665 c 8
 59 665 74 663 81 648 c 26
 378 -47 l 18
EndSplineSet
Validated: 1
Substitution2: "sups subtable" backslash.sups
Substitution2: "sinf subtable" backslash.sinf
Substitution2: "ordn subtable" backslash.ordn
Substitution2: "subs subtable" backslash.subs
EndChar

StartChar: asciicircum
Encoding: 94 94 89
Width: 500
VWidth: 0
Flags: W
HStem: 284 319
LayerCount: 3
Fore
SplineSet
250 603 m 1
 276 566 408 375 449 305 c 0
 451 302 452 298 452 295 c 0
 452 289 448 284 443 284 c 2
 441 284 l 1
 429 287 410 295 404 302 c 0
 368 341 284 470 254 514 c 0
 249 520 248 520 244 514 c 0
 214 470 123 332 96 302 c 0
 89 295 71 287 59 284 c 1
 57 284 l 2
 52 284 48 289 48 295 c 0
 48 298 49 302 51 305 c 0
 89 369 222 564 250 603 c 1
EndSplineSet
Substitution2: "sups subtable" asciicircum.sups
Substitution2: "sinf subtable" asciicircum.sinf
Substitution2: "ordn subtable" asciicircum.ordn
Substitution2: "subs subtable" asciicircum.subs
EndChar

StartChar: underscore
Encoding: 95 95 102
Width: 500
VWidth: 0
Flags: W
HStem: -182 50<3.10421 494.632>
LayerCount: 3
Fore
SplineSet
24 -132 m 26
 487 -132 l 18
 493 -132 501 -137 501 -143 c 0
 501 -144 500 -145 500 -146 c 8
 494 -163 488 -182 469 -182 c 26
 14 -182 l 26
 7 -182 0 -176 0 -170 c 0
 0 -161 6 -132 24 -132 c 26
EndSplineSet
Validated: 1
Substitution2: "sups subtable" underscore.sups
Substitution2: "sinf subtable" underscore.sinf
Substitution2: "ordn subtable" underscore.ordn
Substitution2: "subs subtable" underscore.subs
EndChar

StartChar: grave
Encoding: 64 96 87
Width: 279
VWidth: 0
Flags: W
HStem: 449 215
VStem: 40 178
LayerCount: 3
Fore
SplineSet
40 636 m 0
 40 650 57 664 75 664 c 0
 97 664 114 655 125 637 c 0
 146 603 218 477 218 462 c 0
 218 453 214 449 205 449 c 0
 196 449 183 464 178 471 c 0
 98 582 40 617 40 636 c 0
EndSplineSet
Validated: 1
Substitution2: "sups subtable" grave.sups
Substitution2: "sinf subtable" grave.sinf
Substitution2: "ordn subtable" grave.ordn
Substitution2: "subs subtable" grave.subs
EndChar

StartChar: a
Encoding: 65 97 0
Width: 399
VWidth: 0
Flags: W
HStem: -14 46<100.5 201.116 314.769 371.14> 365 49<152.989 252.5>
VStem: 35 80<42.662 121.94 279.95 317.037> 238 68<59.2835 168.996 199.884 352.817>
AnchorPoint: "ogonek" 341 18 basechar 0
AnchorPoint: "below_accent" 178 -100 basechar 0
AnchorPoint: "top_accent" 191 550 basechar 0
LayerCount: 3
Back
SplineSet
115 87 m 0
 115 49 145 32 164 32 c 0
 190 32 208 45 224 59 c 0
 231 65 236 74 236 99 c 9
 238 148 l 18
 239 163 235 168 227 168 c 0
 224 168 220 167 215 166 c 0
 139 144 115 110 115 87 c 0
318 -14 m 0
 261 -14 252 38 244 38 c 0
 231 38 203 -13 121 -14 c 0
 80 -14 35 26 35 65 c 0
 35 107 59 135 108 155 c 10
 210 197 l 18
 236 208 237 210 238 237 c 2
 240 299 l 26
 241 334 218 365 181 365 c 0
 157 365 128 347 120 333 c 0
 115 324 116 312 117 300 c 0
 118 286 70 270 48 264 c 0
 42 262 37 274 41 285 c 0
 50 310 55 321 80 343 c 0
 111 371 176 414 229 414 c 0
 277 414 312 372 311 325 c 10
 306 109 l 26
 305 76 312 32 342 32 c 0
 360 32 371 36 382 46 c 0
 389 53 400 44 397 34 c 0
 395 28 356 -14 318 -14 c 0
EndSplineSet
Fore
SplineSet
115 87 m 0
 115 49 145 32 164 32 c 0
 190 32 208 45 224 59 c 0
 231 65 235 74 236 99 c 10
 238 148 l 18
 239 163 237 169 229 169 c 4
 226 169 220 168 215 166 c 0
 138 140 115 110 115 87 c 0
342 32 m 0
 360 32 371 36 382 46 c 0
 388 52 398 45 398 37 c 0
 398 29 356 -14 318 -14 c 0
 261 -14 252 38 244 38 c 0
 231 38 203 -13 121 -14 c 0
 80 -14 35 26 35 65 c 0
 35 107 59 135 108 155 c 10
 210 197 l 18
 236 208 237 210 238 237 c 2
 240 301 l 2
 241 335 217 365 181 365 c 0
 157 365 128 347 120 333 c 0
 117 328 116 321 116 314 c 0
 116 309 117 305 117 300 c 0
 117 286 61 265 48 265 c 0
 42 265 40 271 40 274 c 0
 40 295 55 321 80 343 c 0
 111 371 176 414 229 414 c 0
 276 414 312 374 311 325 c 10
 306 109 l 18
 306 70 313 32 342 32 c 0
EndSplineSet
Validated: 33
Substitution2: "Smallcaps subtable" a.sc
Substitution2: "sups subtable" a.sups
Substitution2: "sinf subtable" a.sinf
Substitution2: "ordn subtable" a.ordn
Substitution2: "subs subtable" a.subs
EndChar

StartChar: b
Encoding: 66 98 9
Width: 515
VWidth: 0
Flags: W
HStem: -14 31<214.194 335.777> -3 21G<80 86.5> 373 41<217.462 329.343> 685 20G<141.5 143.5>
VStem: 75 70<69.4872 337.996 355.054 626.017> 405 75<110.27 288.838>
AnchorPoint: "below_accent" 252 -100 basechar 0
LayerCount: 3
Back
SplineSet
120 13 m 0
 110 13 97 4 92 0 c 0
 84 -5 66 2 68 10 c 4
 72 39 75 80 75 105 c 2
 75 566 l 2
 75 601 61 632 28 639 c 8
 18 641 18 662 27 664 c 16
 78 676 108 692 140 704 c 0
 141 704 141 705 142 705 c 0
 145 705 148 701 148 698 c 0
 148 693 145 649 145 593 c 2
 145 388 l 2
 145 367 145 356 154 355 c 1
 200 406 266 414 300 414 c 0
 404 414 480 325 480 217 c 0
 480 100 408 -14 257 -14 c 0
 195 -14 134 13 120 13 c 0
282 17 m 0
 358 17 404 92 405 192 c 0
 406 269 361 373 265 373 c 0
 237 373 188 362 166 338 c 0
 152 323 145 306 145 253 c 2
 145 132 l 2
 145 62 212 17 282 17 c 0
EndSplineSet
Fore
SplineSet
75 105 m 2x7c
 75 566 l 2
 75 601 61 632 28 639 c 0
 23 640 20 646 20 652 c 0
 20 658 23 663 27 664 c 0
 78 676 108 692 140 704 c 0
 141 704 141 705 142 705 c 0
 145 705 148 701 148 698 c 0
 148 693 145 649 145 593 c 2
 145 388 l 2
 145 367 145 356 154 355 c 1
 204 397 266 414 300 414 c 0
 404 414 480 325 480 217 c 0
 480 100 410 -14 259 -14 c 0xbc
 197 -14 127 15 113 15 c 0
 101 15 89 -3 84 -3 c 0
 76 -3 68 3 68 9 c 0
 68 11 75 52 75 105 c 2x7c
282 17 m 0
 358 17 405 94 405 195 c 0
 405 272 360 373 265 373 c 0
 237 373 188 362 166 338 c 0
 152 323 145 306 145 253 c 2
 145 132 l 2
 145 62 212 17 282 17 c 0
EndSplineSet
Validated: 1
Substitution2: "Smallcaps subtable" b.sc
Substitution2: "sups subtable" b.sups
Substitution2: "sinf subtable" b.sinf
Substitution2: "ordn subtable" b.ordn
Substitution2: "subs subtable" b.subs
EndChar

StartChar: c
Encoding: 99 99 14
Width: 377
VWidth: 0
Flags: W
HStem: -14 52<188.967 300.34> 376 37<164.716 278.981>
VStem: 35 69<132.446 283.536>
AnchorPoint: "cedilla" 240 8 basechar 0
AnchorPoint: "below_accent" 199 -100 basechar 0
AnchorPoint: "top_accent" 230 550 basechar 0
LayerCount: 3
Back
SplineSet
35 180 m 8
 35 303 123 413 246 413 c 16
 289 413 336 402 366 365 c 0
 369.142 361.133 370.473 357.265 370.473 353.482 c 0
 370.473 341.616 357.374 330.583 346 323 c 0
 342 320 337 319 332 319 c 0
 323 319 313 324 308 329 c 0
 275 365 264 376 214 376 c 8
 141 376 104 299 104 226 c 16
 104 130 167 38 263 38 c 16
 305 38 325 54 351 88 c 0
 354 91 357 93 360 93 c 0
 366.173 93 372.347 86.7778 372.347 79.8208 c 0
 372.347 42.0992 292.489 -14 206 -14 c 8
 105 -14 35 77 35 180 c 8
EndSplineSet
Fore
SplineSet
333 319 m 0
 324 319 313 324 308 329 c 0
 275 365 264 376 214 376 c 8
 141 376 104 299 104 226 c 16
 104 130 167 38 263 38 c 16
 305 38 325 54 351 88 c 0
 354 91 357 93 360 93 c 0
 366 93 372 86 372 79 c 0
 372 42 292 -14 206 -14 c 8
 105 -14 35 77 35 180 c 8
 35 303 123 413 246 413 c 16
 289 413 336 402 366 365 c 0
 369 361 371 357 371 353 c 0
 371 336 343 319 333 319 c 0
EndSplineSet
Substitution2: "Smallcaps subtable" c.sc
Substitution2: "sups subtable" c.sups
Substitution2: "sinf subtable" c.sinf
Substitution2: "ordn subtable" c.ordn
Substitution2: "subs subtable" c.subs
EndChar

StartChar: d
Encoding: 100 100 11
Width: 506
VWidth: 0
Flags: W
HStem: -19 50<184.419 289.304> 21 24<433.943 503.841> 379 35<175.114 291.457> 684 20G<415 424>
VStem: 35 74<111.575 287.804> 352 70<62.7966 323.828 384.004 628.506>
AnchorPoint: "top_right" 489 660 basechar 0
AnchorPoint: "below_accent" 241 -100 basechar 0
LayerCount: 3
Back
SplineSet
422 94 m 0
 422 78 422 75 424 61 c 0
 425 52 432 44 441 46 c 0
 463 50 475 57 494 61 c 0
 504 63 507 32 497 30 c 0
 448 21 440 9 401 -14 c 0
 357 -19 l 0
 363 2 368 43 359 43 c 0
 352 43 352 46 338 32 c 0
 333 27 292 -14 226 -14 c 0
 112 -14 28 74 28 175 c 0
 28 317 110 416 260 414 c 0
 287 414 311 410 329 404 c 0
 338 401 351 391 351 425 c 0
 351 448 351 491 351 566 c 0
 351 581 336 632 302 639 c 8
 292 641 291 662 301 664 c 16
 353 676 389 692 421 704 c 0
 426 706 429 702 430 698 c 0
 430 686 423 652 423 562 c 0
 423 429 422 278 422 94 c 0
226 378 m 0
 187 378 109 335 109 201 c 0
 109 47 205 28 248 29 c 0
 303 30 349 59 352 107 c 0
 357 189 357 202 352 277 c 0
 348 333 287 378 226 378 c 0
EndSplineSet
Fore
SplineSet
338 393 m 0xbc
 342 388 346 384 348 384 c 0
 351 384 352 390 352 408 c 2
 352 566 l 2
 352 620 335 632 301 639 c 0
 296 640 293 646 293 652 c 0
 293 657 295 663 300 664 c 0
 373 681 408 704 422 704 c 0
 426 704 428 702 429 698 c 1
 429 686 422 652 422 562 c 2
 422 110 l 2
 422 68 427 45 443 45 c 0
 453 45 479 46 489 48 c 0
 494 49 504 47 504 35 c 0
 504 24 495 21 490 21 c 0x7c
 438 14 402 -1 373 -13 c 0
 369 -15 355 -19 349 -19 c 0
 345 -19 346 -18 346 -15 c 0
 346 -2 351 34 351 51 c 2
 351 57 l 1
 331 26 286 -14 220 -14 c 0
 106 -14 35 89 35 190 c 0
 35 306 120 414 260 414 c 0
 288 414 332 400 338 393 c 0xbc
229 379 m 0
 190 379 109 347 109 213 c 0
 109 62 213 31 257 31 c 0xbc
 313 31 352 72 352 120 c 2
 352 255 l 2
 352 311 307 379 229 379 c 0
EndSplineSet
Substitution2: "Smallcaps subtable" d.sc
Substitution2: "sups subtable" d.sups
Substitution2: "sinf subtable" d.sinf
Substitution2: "ordn subtable" d.ordn
Substitution2: "subs subtable" d.subs
EndChar

StartChar: j
Encoding: 106 106 16
Width: 213
VWidth: 0
Flags: W
HStem: -287 27<-34.3848 3.48842> 352 25<17.0088 48.0645> 513 101<60.1171 142.823>
VStem: 51 101<522.117 604.823> 71 73<-125.075 340.129>
LayerCount: 3
Fore
SplineSet
51 563 m 0xf0
 51 592 73 614 101 614 c 0
 130 614 152 592 152 563 c 0
 152 535 130 513 101 513 c 0
 73 513 51 535 51 563 c 0xf0
EndSplineSet
Refer: 344 567 N 1 0 0 1 0 0 3
Substitution2: "Smallcaps subtable" j.sc
Substitution2: "historic_j subtable" j.hist
Substitution2: "sups subtable" j.sups
Substitution2: "sinf subtable" j.sinf
Substitution2: "ordn subtable" j.ordn
Substitution2: "subs subtable" j.subs
Substitution2: "Single Substitution lookup 8 subtable" dotlessj
EndChar

StartChar: l
Encoding: 108 108 2
Width: 240
VWidth: 0
Flags: W
HStem: -3 27<20.0556 73.9702 166.03 219.944> 685 20G<155.5 157.5>
VStem: 85 70<31.1488 627.687>
AnchorPoint: "top_right" 222 660 basechar 0
AnchorPoint: "below_accent" 120 -100 basechar 0
AnchorPoint: "top_accent" 107 782 basechar 0
LayerCount: 3
Fore
SplineSet
155 62 m 2
 155 35 178 30 198 24 c 0
 209 20 221 16 221 6 c 0
 221 -2 208 -3 201 -3 c 0
 162 -3 155 2 120 2 c 0
 85 2 78 -3 39 -3 c 0
 32 -3 19 -2 19 6 c 0
 19 16 31 20 42 24 c 0
 62 30 85 35 85 62 c 2
 85 566 l 2
 85 605 72 632 39 639 c 0
 34 640 31 646 31 652 c 0
 31 658 34 663 38 664 c 0
 89 676 122 692 154 704 c 0
 155 704 155 705 156 705 c 0
 159 705 162 701 162 698 c 0
 162 686 155 652 155 562 c 2
 155 62 l 2
EndSplineSet
Substitution2: "Smallcaps subtable" l.sc
Substitution2: "sups subtable" l.sups
Substitution2: "sinf subtable" l.sinf
Substitution2: "ordn subtable" l.ordn
Substitution2: "subs subtable" l.subs
Substitution2: "loclCAT subtable" l.CAT
EndChar

StartChar: m
Encoding: 109 109 7
Width: 778
VWidth: 0
Flags: W
HStem: -3 27<24.9975 78.5549 171.445 225.003 288.056 342.563 435.843 491.003 554.056 607.97 700.03 753.944> 349 25<43.0088 74.2415> 367 47<229.666 347 494.255 621.5> 410 20G<144 162.5>
VStem: 90 70<31.1488 335.415> 354 70<31.541 334.103> 619 70<31.1488 332.312>
AnchorPoint: "below_accent" 390 -100 basechar 0
AnchorPoint: "top_accent" 390 550 basechar 0
LayerCount: 3
Back
SplineSet
156 349 m 1
 174 370 247 414 310 414 c 0
 358 414 382 394 403 354 c 0
 405 351 420 356 429 365 c 0
 439 376 505 414 568 414 c 0
 633 414 670 373 670 295 c 2
 670 84 l 2
 670 55 669 43 678 34 c 0
 687 23 711 25 718 21 c 8
 726 16 727 -3 718 -3 c 0
 679 -3 667 2 635 2 c 24
 600 2 586 -3 547 -3 c 0
 538 -3 538 16 547 21 c 0
 554 25 575 22 587 34 c 8
 599 47 600 59 600 77 c 18
 600 272 l 10
 600 318 567 363 524 363 c 0
 490 363 466 356 441 336 c 0
 429 327 412 308 412 268 c 2
 412 84 l 2
 412 55 411 43 420 34 c 0
 429 23 453 25 460 21 c 8
 468 16 469 -3 460 -3 c 0
 421 -3 409 2 377 2 c 24
 342 2 328 -3 289 -3 c 0
 280 -3 280 16 289 21 c 0
 296 25 317 22 329 34 c 8
 341 47 342 59 342 77 c 18
 342 272 l 10
 342 318 309 363 266 363 c 0
 232 363 205 354 180 334 c 0
 168 325 155 309 155 268 c 0
 155 189 155 138 155 77 c 0
 155 61 157 46 168 34 c 0
 177 24 201 25 208 21 c 8
 216 16 217 -3 208 -3 c 0
 169 -3 153 2 119 2 c 24
 85 2 71 -3 32 -3 c 0
 23 -3 23 16 32 21 c 0
 39 25 60 22 72 34 c 8
 83 46 85 58 85 74 c 0
 85 104 85 247 85 277 c 0
 85 313 80 342 46 349 c 8
 37 351 36 372 45 374 c 16
 96 386 121 406 154 429 c 0
 158 432 161 427 163 423 c 0
 163 411 151 355 156 349 c 1
EndSplineSet
Fore
SplineSet
689 62 m 2xae
 689 35 712 30 732 24 c 0
 743 20 755 16 755 6 c 0
 755 -2 742 -3 735 -3 c 0
 695 -3 691 2 656 2 c 0
 621 2 613 -3 573 -3 c 0
 566 -3 553 -2 553 6 c 0
 553 16 565 20 576 24 c 0
 596 30 619 35 619 62 c 2
 619 272 l 10
 619 320 582 367 539 367 c 0
 505 367 477 360 452 340 c 0
 440 331 424 308 424 268 c 2
 424 62 l 2
 424 35 449 30 469 24 c 0
 480 20 492 16 492 6 c 0
 492 -2 480 -3 472 -3 c 0
 432 -3 425 2 390 2 c 0
 355 2 347 -3 307 -3 c 0
 300 -3 287 -2 287 6 c 0
 287 16 299 20 310 24 c 0
 330 30 354 35 354 62 c 2
 354 272 l 10
 354 320 317 367 274 367 c 0xae
 240 367 212 360 187 340 c 0
 175 331 160 309 160 268 c 2
 160 62 l 1
 161 35 183 30 203 24 c 0
 214 20 226 16 226 6 c 0
 226 -2 214 -3 206 -3 c 0
 166 -3 160 2 125 2 c 0
 90 2 84 -3 44 -3 c 0
 36 -3 24 -2 24 6 c 0
 24 16 36 20 47 24 c 0
 67 30 89 35 90 62 c 1
 90 277 l 2
 90 313 85 342 51 349 c 0
 46 350 43 356 43 362 c 0
 43 368 46 373 50 374 c 0
 102 386 127 407 161 430 c 1xde
 164 430 166 426 168 423 c 1
 168 414 163 378 163 359 c 0
 163 353 164 348 165 347 c 1
 192 372 244 414 323 414 c 0
 371 414 400 396 416 354 c 0
 419 347 422 343 426 343 c 0
 430 343 436 348 445 358 c 0
 468 385 526 414 589 414 c 0
 654 414 689 345 689 275 c 2
 689 62 l 2xae
EndSplineSet
Validated: 1
Substitution2: "Smallcaps subtable" m.sc
Substitution2: "sups subtable" m.sups
Substitution2: "sinf subtable" m.sinf
Substitution2: "ordn subtable" m.ordn
Substitution2: "subs subtable" m.subs
EndChar

StartChar: n
Encoding: 78 110 6
Width: 527
VWidth: 0
Flags: W
HStem: -3 27<24.9975 78.5549 171.03 225.003 304.056 357.97 450.03 504.003> 349 25<41.0133 72.6656> 365 49<236.974 340.865> 410 20G<159.5 161.5>
VStem: 41 119<348.549 397.23> 90 70<31.1488 335.218> 369 70<31.1488 335.56>
AnchorPoint: "top_left" 37.5 609 basechar 0
AnchorPoint: "below_accent" 265 -100 basechar 0
AnchorPoint: "top_accent" 258 550 basechar 0
LayerCount: 3
Back
SplineSet
162 421 m 0xd8
 162 409 151 354 156 348 c 1
 175 367 255 414 318 414 c 0
 383 414 427 373 427 295 c 2
 427 90 l 2
 427 61 430 51 439 42 c 0
 449 31 473 25 480 21 c 8
 488 16 489 -3 480 -3 c 0
 441 -3 426 2 391 2 c 24
 355 2 338 -3 299 -3 c 0
 290 -3 290 16 299 21 c 0
 306 25 329 28 341 40 c 8
 354 53 357 65 357 83 c 18
 357 272 l 2
 357 330 319 365 266 365 c 0xb8
 232 365 205 353 180 334 c 0
 165 323 155 309 155 268 c 0
 155 187 155 139 155 77 c 0
 155 61 157 46 168 34 c 0
 177 24 201 25 208 21 c 8
 216 16 217 -3 208 -3 c 0
 169 -3 158 2 126 2 c 24
 89 2 71 -3 32 -3 c 0
 23 -3 23 16 32 21 c 0
 39 25 60 22 72 34 c 8
 84 46 85 58 85 74 c 0
 85 159 85 212 85 277 c 0
 85 313 78 342 44 349 c 8
 34 351 33 372 43 374 c 16
 95 386 130 412 153 429 c 0
 157 432 161 425 162 421 c 0xd8
EndSplineSet
Fore
SplineSet
279 365 m 0xaa
 212 365 160 347 160 268 c 2
 160 62 l 2
 160 35 183 30 203 24 c 0
 214 20 226 16 226 6 c 0
 226 -2 214 -3 206 -3 c 0
 166 -3 160 2 125 2 c 0
 90 2 84 -3 44 -3 c 0
 36 -3 24 -2 24 6 c 0
 24 16 36 20 47 24 c 0
 67 30 89 35 90 62 c 1
 90 277 l 2xa6
 90 313 83 342 49 349 c 0
 44 350 41 356 41 362 c 0xca
 41 367 43 373 48 374 c 0
 100 386 135 412 158 429 c 0
 159 430 159 430 160 430 c 0xd6
 163 430 166 424 167 421 c 1
 167 411 160 373 160 356 c 0
 160 352 160 349 161 348 c 1
 190 372 263 414 326 414 c 4
 391 414 439 353 439 275 c 2
 439 62 l 2
 439 35 462 30 482 24 c 0
 493 20 505 16 505 6 c 0
 505 -2 493 -3 485 -3 c 0
 445 -3 440 2 405 2 c 0
 370 2 363 -3 323 -3 c 0
 316 -3 303 -2 303 6 c 0
 303 16 315 20 326 24 c 0
 346 30 369 35 369 62 c 2
 369 272 l 2
 369 330 332 365 279 365 c 0xaa
EndSplineSet
Validated: 1
Substitution2: "Smallcaps subtable" n.sc
Substitution2: "sups subtable" n.sups
Substitution2: "sinf subtable" n.sinf
Substitution2: "ordn subtable" n.ordn
Substitution2: "subs subtable" n.subs
EndChar

StartChar: s
Encoding: 115 115 17
Width: 323
VWidth: 0
Flags: W
HStem: -14 27<110.848 199.568> 388 26<136.996 212.641>
VStem: 30 32<54.7601 91.9763> 53 60<277.962 365.426> 225 68<30.1894 129.958> 239 40<312.953 369.5>
AnchorPoint: "cedilla" 199 8 basechar 0
AnchorPoint: "below_accent" 167 -100 basechar 0
AnchorPoint: "top_accent" 176 550 basechar 0
LayerCount: 3
Back
SplineSet
189 381 m 0xd4
 150 381 122 350 122 316 c 0xd4
 122 276 174 243 207 225 c 0
 241 207 296 170 296 106 c 0
 296 37 254 -14 139 -14 c 0
 119 -14 54 9 48 22 c 0
 41 36 36 60 35 83 c 0
 35 94 63 96 65 85 c 0
 72 51 108 18 143 18 c 0
 196 18 217 48 216 88 c 0xe8
 215 141 180 152 144 174 c 0
 94 205 53 231 53 295 c 0
 53 366 96 414 194 414 c 0
 234 414 256 404 266 394 c 1
 280 363 283 341 283 313 c 0
 283 302 247 317 245 329 c 0
 239 368 210 381 189 381 c 0xd4
EndSplineSet
Fore
SplineSet
176 388 m 0xd4
 138 388 113 362 113 322 c 0xd4
 113 282 166 251 198 231 c 0
 228 212 293 172 293 106 c 0
 293 37 260 -14 149 -14 c 0
 95 -14 49 9 43 22 c 0
 36 36 31 60 30 83 c 0
 30 89 39 92 47 92 c 0
 54 92 61 90 62 85 c 0
 69 51 114 13 155 13 c 0
 203 13 225 43 225 83 c 0xe8
 225 119 193 143 149 174 c 0
 101 208 53 247 53 296 c 0
 53 353 89 414 187 414 c 0
 227 414 252 401 262 391 c 1
 274 376 279 341 279 313 c 0
 279 310 277 309 273 309 c 0
 263 309 239 321 239 330 c 0
 238 358 209 388 176 388 c 0xd4
EndSplineSet
Substitution2: "Smallcaps subtable" s.sc
Substitution2: "Single Substitution lookup 41 subtable" longs
Substitution2: "sups subtable" s.sups
Substitution2: "sinf subtable" s.sinf
Substitution2: "ordn subtable" s.ordn
Substitution2: "subs subtable" s.subs
EndChar

StartChar: t
Encoding: 116 116 1
Width: 314
VWidth: 0
Flags: W
HStem: -14 55<175.024 262.227> 352 48<155.176 303.943> 352 27<36.6315 66.3251>
VStem: 85 70<60.25 351.513>
AnchorPoint: "top_right" 249 600 basechar 0
AnchorPoint: "cedilla" 205 8 basechar 0
AnchorPoint: "below_accent" 186 -100 basechar 0
AnchorPoint: "top_accent" 133 550 basechar 0
LayerCount: 3
Back
SplineSet
144 468 m 0xb0
 150 468 158 467 158 458 c 10
 158 414 l 18
 158 405 167 400 180 400 c 10
 294 400 l 18xd0
 299 400 302 388 302 376 c 0xb0
 302 364 299 352 294 352 c 10
 195 352 l 18xd0
 161 352 155 351 155 324 c 10
 155 135 l 18
 155 61 190 41 221 41 c 0
 260 41 280 48 296 60 c 0
 302 64 306 55 306 47 c 0
 306 44 305 42 304 40 c 0
 295 25 240 -14 188 -14 c 8
 126.62 -14 85 22 85 105 c 10
 85 337 l 2
 85 356 68 350 47 352 c 0
 43 353 35 362 35 369 c 0
 35 372 37.8415 375.401 40 376 c 0
 92.9997 390.698 134 468 144 468 c 0xb0
EndSplineSet
Fore
SplineSet
189 -14 m 0xd0
 127 -14 85 22 85 105 c 10
 85 337 l 2
 85 349 78 352 47 352 c 0
 43 352 35 365 35 372 c 0
 35 375 38 378 40 379 c 0xb0
 93 394 136 468 146 468 c 0
 152 468 164 467 163 458 c 10
 155 414 l 18
 153 405 167 400 180 400 c 10
 294 400 l 18
 299 400 304 388 304 376 c 0
 304 364 299 352 294 352 c 10
 195 352 l 18
 161 352 155 351 155 324 c 10
 155 135 l 18
 155 61 190 41 221 41 c 0
 260 41 280 48 296 60 c 0
 302 64 306 55 306 47 c 0
 306 36 250 -14 189 -14 c 0xd0
EndSplineSet
Substitution2: "Smallcaps subtable" t.sc
Substitution2: "sups subtable" t.sups
Substitution2: "sinf subtable" t.sinf
Substitution2: "ordn subtable" t.ordn
Substitution2: "subs subtable" t.subs
EndChar

StartChar: u
Encoding: 117 117 15
Width: 527
VWidth: 0
Flags: W
HStem: -19 56<186.992 285.45> 21 24<446.943 516.841> 365 32<29.0288 68.315 280.055 349.325> 395 20G<414 438.5>
VStem: 85 70<71.1627 353.726> 368 70<78.3695 352.26>
AnchorPoint: "ogonek" 433 18 basechar 0
AnchorPoint: "below_accent" 259 -100 basechar 0
AnchorPoint: "top_accent" 251 550 basechar 0
LayerCount: 3
Back
Fore
SplineSet
432 415 m 1x1c
 434 415 l 2x1c
 443 415 451 405 446 397 c 0
 442 390 438 342 438 326 c 2
 438 114 l 2
 438 73 440 45 456 45 c 0
 466 45 492 46 502 48 c 0
 507 49 517 47 517 35 c 0
 517 24 508 21 503 21 c 0x6c
 451 14 415 -1 386 -13 c 0
 382 -15 368 -19 362 -19 c 0
 358 -19 359 -18 359 -15 c 0
 359 -2 364 34 364 51 c 2
 364 57 l 1
 312 6 261 -14 199 -14 c 0
 134 -14 85 27 85 105 c 2
 85 308 l 2
 85 337 72 353 42 365 c 0
 39 366 29 370 29 380 c 0
 29 393 39 396 44 397 c 0
 98 399 108 405 147 414 c 1
 157 415 162 410 161 400 c 0
 157 369 155 353 155 323 c 2
 155 128 l 2
 155 80 196 37 239 37 c 0
 273 37 298 38 323 57 c 0
 338 68 368 91 368 132 c 2
 368 315 l 2
 368 356 323 364 303 365 c 0
 298 365 280 368 280 382 c 0
 280 394 299 397 303 397 c 0xac
 404 402 396 405 432 415 c 1x1c
EndSplineSet
Substitution2: "Smallcaps subtable" u.sc
Substitution2: "Single Substitution lookup 36 subtable" u.LAT
Substitution2: "sups subtable" u.sups
Substitution2: "sinf subtable" u.sinf
Substitution2: "ordn subtable" u.ordn
Substitution2: "subs subtable" u.subs
Substitution2: "loclLAT subtable" u.LAT
EndChar

StartChar: v
Encoding: 118 118 22
Width: 438
VWidth: 0
Flags: W
HStem: -22 21G<213.5 218.5> 378 27<6.05563 50.2604 155.71 191.944 272.056 310.439 397.433 441.944>
VStem: 319 124<325.5 400>
AnchorPoint: "below_accent" 218 -100 basechar 0
AnchorPoint: "top_accent" 218 550 basechar 0
LayerCount: 3
Back
Fore
SplineSet
294 378 m 0
 283 382 271 386 271 396 c 0
 271 404 284 405 291 405 c 0
 306 405 329 400 364 400 c 0
 399 400 404 405 423 405 c 0
 430 405 443 404 443 396 c 0
 443 386 431 382 420 378 c 0
 400 372 372 344 358 311 c 18
 280 123 l 2
 275 112 243 23 243 23 c 1
 243 23 221 -22 216 -22 c 0
 211 -22 199 8 196 17 c 2
 74 329 l 10
 64 353 48 372 28 378 c 4
 17 382 5 386 5 396 c 4
 5 404 18 405 25 405 c 4
 64 405 63 400 98 400 c 4
 133 400 134 405 173 405 c 0
 180 405 193 404 193 396 c 0
 193 386 181 382 170 378 c 0
 156 374 150 356 150 337 c 0
 150 328 151 318 154 310 c 2
 228 111 l 2
 233 97 235 96 240 110 c 2
 312 295 l 2
 317 308 319 320 319 331 c 0
 319 356 308 374 294 378 c 0
EndSplineSet
Validated: 1
Substitution2: "Smallcaps subtable" v.sc
Substitution2: "Single Substitution lookup 29 subtable" v.LATmedi
Substitution2: "sups subtable" v.sups
Substitution2: "sinf subtable" v.sinf
Substitution2: "ordn subtable" v.ordn
Substitution2: "subs subtable" v.subs
Substitution2: "loclLAT subtable" v.LAT
EndChar

StartChar: w
Encoding: 119 119 23
Width: 685
VWidth: 0
Flags: W
HStem: 378 27<6.05563 52.3254 163.534 199.997 252.997 297.989 402.984 449.944 518.056 559.777 647.56 689.003>
VStem: 325 69<275.812 359.977> 575 115<321.5 400>
AnchorPoint: "below_accent" 349 -100 basechar 0
AnchorPoint: "top_accent" 342 550 basechar 0
LayerCount: 3
Back
SplineSet
310 329 m 8
 295 355 280 366 253 381 c 8
 245 386 243 405 253 405 c 8
 288 405 308 400 344 400 c 24
 380 400 415 405 436 405 c 0
 445 405 444 386 436 381 c 8
 419 372 403 373 394 357 c 24
 385 342 390 328 397 312 c 18
 467 136 l 2
 483 94 484 110 495 138 c 2
 558 295 l 10
 566 316 572 327 564 352 c 0
 559 367 535 373 521 381 c 8
 513 386 513 405 521 405 c 8
 553 405 575 400 603 400 c 8
 630 400 646 405 673 405 c 8
 682 405 680 385 673 381 c 8
 658 373 648 371 636 359 c 16
 625 349 616 331 608 311 c 26
 469 -16 l 2
 465 -25 455 -25 452 -16 c 2
 348 242 l 2
 342 256 341 255 335 241 c 2
 226 -16 l 2
 222 -25 207 -25 204 -16 c 2
 65 329 l 10
 53 358 32 366 5 381 c 8
 -3 386 -5 405 5 405 c 8
 40 405 60 400 96 400 c 24
 131 400 166 405 187 405 c 0
 196 405 195 386 187 381 c 8
 170 372 153 374 145 357 c 24
 137 341 147 329 154 312 c 18
 224 136 l 2
 240 94 240 110 252 138 c 2
 311 278 l 2
 325 313 310 329 310 329 c 8
EndSplineSet
Fore
SplineSet
614 312 m 26
 477 -16 l 2
 475 -20 472 -23 468 -23 c 0
 465 -23 462 -20 460 -16 c 2
 356 242 l 2
 352 252 349 255 343 241 c 2
 234 -16 l 2
 232 -20 229 -23 226 -23 c 0
 223 -23 220 -20 219 -16 c 2
 80 329 l 10
 70 355 48 372 28 378 c 0
 17 382 5 386 5 396 c 0
 5 404 18 405 25 405 c 0
 31 405 98 400 98 400 c 0
 98 400 174 405 181 405 c 0
 186 405 201 404 201 396 c 0
 201 386 189 382 178 378 c 0
 164 374 157 357 157 338 c 0
 157 329 159 320 162 312 c 2
 238 116 l 2
 243 102 247 103 253 117 c 2
 319 278 l 2
 323 289 325 299 325 308 c 0
 325 345 296 372 275 378 c 0
 264 381 252 386 252 396 c 0
 252 404 264 405 272 405 c 0
 290 405 310 400 347 400 c 0
 384 400 409 405 431 405 c 0
 438 405 451 404 451 396 c 0
 451 386 439 382 428 378 c 0
 413 373 394 366 394 342 c 0
 394 334 396 324 401 312 c 2
 476 119 l 2
 482 105 486 104 492 118 c 2
 568 295 l 2
 573 306 575 317 575 326 c 0
 575 355 555 373 540 378 c 0
 529 382 517 386 517 396 c 0
 517 404 530 405 537 405 c 0
 566 405 576 400 612 400 c 0
 649 400 648 405 670 405 c 0
 678 405 690 404 690 396 c 0
 690 386 678 382 667 378 c 0
 647 372 627 342 614 312 c 26
EndSplineSet
Substitution2: "Smallcaps subtable" w.sc
Substitution2: "sups subtable" w.sups
Substitution2: "sinf subtable" w.sinf
Substitution2: "ordn subtable" w.ordn
Substitution2: "subs subtable" w.subs
EndChar

StartChar: y
Encoding: 89 121 24
Width: 438
VWidth: 0
Flags: W
HStem: -285 66<17.1881 107.75> 378 27<6.05563 49.8994 152.137 193.546 399.046 441.944>
VStem: 322 121<327 400>
AnchorPoint: "top_accent" 234 550 basechar 0
LayerCount: 3
Back
SplineSet
188 5 m 2
 65 329 l 10
 54 358 32 366 5 381 c 8
 -3 386 -5 405 5 405 c 8
 40 405 60 400 96 400 c 24
 131 400 166 405 187 405 c 0
 196 405 195 386 187 381 c 8
 170 372 153 374 145 357 c 24
 137 341 147 329 154 312 c 18
 224 136 l 2
 240 94 241 110 252 138 c 2
 315 295 l 10
 323 316 321 328 313 353 c 0
 308 368 292 373 278 381 c 8
 270 386 270 405 278 405 c 8
 310 405 332 400 360 400 c 8
 387 400 403 405 430 405 c 8
 439 405 437 385 430 381 c 8
 415 373 405 371 393 359 c 16
 382 349 370 332 362 311 c 26
 226 -13 l 2
 222 -22 171 -148 130 -244 c 0
 118 -271 94 -285 65 -285 c 8
 40 -285 14 -271 14 -249 c 8
 14 -234 20 -220 39 -219 c 0
 65 -218 88 -236 100 -214 c 0
 143 -133 157 -107 186 -30 c 0
 191 -17 193 -9 188 5 c 2
EndSplineSet
Fore
SplineSet
13 -249 m 8
 13 -233 20 -219 40 -219 c 0
 55 -219 69 -225 80 -225 c 0
 88 -225 94 -222 99 -214 c 0
 120 -178 161 -93 190 -16 c 0
 192 -10 193 -2 193 7 c 0
 193 18 192 28 189 36 c 2
 73 329 l 10
 63 353 48 372 28 378 c 0
 17 382 5 386 5 396 c 0
 5 404 18 405 25 405 c 0
 65 405 63 400 98 400 c 0
 133 400 134 405 174 405 c 0
 182 405 194 402 194 394 c 0
 194 384 176 375 165 372 c 0
 151 368 145 359 145 340 c 0
 145 332 150 319 153 312 c 2
 232 116 l 2
 238 102 242 103 247 117 c 2
 314 295 l 2
 318 304 322 322 322 332 c 0
 322 357 314 365 302 370 c 0
 291 375 273 384 273 394 c 0
 273 402 286 405 293 405 c 0
 311 405 327 400 364 400 c 0
 401 400 401 405 423 405 c 0
 430 405 443 404 443 396 c 0
 443 386 431 382 420 378 c 0
 400 372 374 343 361 311 c 26
 225 -13 l 2
 221 -22 170 -148 129 -244 c 0
 117 -271 93 -285 64 -285 c 8
 40 -285 13 -271 13 -249 c 8
EndSplineSet
Validated: 1
Substitution2: "Smallcaps subtable" y.sc
Substitution2: "sups subtable" y.sups
Substitution2: "sinf subtable" y.sinf
Substitution2: "ordn subtable" y.ordn
Substitution2: "subs subtable" y.subs
EndChar

StartChar: z
Encoding: 122 122 65
Width: 377
VWidth: 0
Flags: W
HStem: -5 40<126.777 296.375> 286 21G<38.5 48> 364 37<95.9758 241.234> 396 20G<67 70.5>
VStem: 37 33<291.591 332.258>
AnchorPoint: "below_accent" 178 -100 basechar 0
AnchorPoint: "top_accent" 201 550 basechar 0
LayerCount: 3
Fore
SplineSet
256 35 m 2xe8
 286 35 312 69 342 112 c 0
 345 117 352 136 364 136 c 0
 373 136 372 117 372 113 c 0
 372 105 349 25 344 9 c 0
 343 4 336 -5 330 -5 c 0
 301 -5 228 0 119 0 c 0
 91 0 56 -5 39 -5 c 0
 34 -5 25 7 25 12 c 0
 25 17 48 51 62 70 c 0
 129 166 175 238 248 354 c 0
 251 358 254 364 239 364 c 2
 122 364 l 2xe8
 104 364 90 337 70 311 c 0
 65 305 53 286 43 286 c 0
 34 286 33 300 37 308 c 0
 45 327 54 373 54 398 c 0
 54 408 65 416 69 416 c 0xd8
 72 416 78 412 84 407 c 0
 90 402 109 401 127 401 c 0
 142 401 156 402 165 402 c 0
 234 402 290 403 351 405 c 0
 356 405 361 397 358 393 c 0
 344 376 334 363 320 343 c 2
 127 50 l 2
 122 42 133 35 139 35 c 2
 256 35 l 2xe8
EndSplineSet
Validated: 1
Substitution2: "Smallcaps subtable" z.sc
Substitution2: "sups subtable" z.sups
Substitution2: "sinf subtable" z.sinf
Substitution2: "ordn subtable" z.ordn
Substitution2: "subs subtable" z.subs
EndChar

StartChar: bar
Encoding: 124 124 105
Width: 260
VWidth: 0
Flags: W
HStem: -289 21G<109 116.5>
VStem: 100 60<-285.107 700.117>
LayerCount: 3
Fore
SplineSet
100 676 m 10
 100 698 140 707 146 707 c 0
 153 707 160 701 160 694 c 18
 160 -265 l 10
 160 -286 121 -289 112 -289 c 0
 106 -289 100 -282 100 -275 c 18
 100 676 l 10
EndSplineSet
Substitution2: "sups subtable" bar.sups
Substitution2: "sinf subtable" bar.sinf
Substitution2: "ordn subtable" bar.ordn
Substitution2: "subs subtable" bar.subs
EndChar

StartChar: exclamdown
Encoding: 161 161 67
Width: 282
VWidth: 0
Flags: W
HStem: -180 21G<135 169.5> 374 120<105.745 198.255>
VStem: 92 120<387.745 480.255> 101 100<-168.701 156.736> 124 50<0.580078 261.326>
LayerCount: 3
Fore
SplineSet
152 374 m 24xe0
 119 374 92 401 92 434 c 24
 92 467 119 494 152 494 c 24
 185 494 212 467 212 434 c 24
 212 401 185 374 152 374 c 24xe0
153 -180 m 0
 117 -180 101 -145 101 -106 c 0xd0
 101 -43 114 87 124 205 c 0
 126 234 137 263 152 263 c 0
 162 263 172 233 174 211 c 0xc8
 186 95 201 -21 201 -108 c 0xd0
 201 -144 186 -180 153 -180 c 0
EndSplineSet
EndChar

StartChar: cent
Encoding: 97 162 1021
Width: 412
VWidth: 0
Flags: W
HStem: -14 59<235.234 317.67> 384 28<184.969 235>
VStem: 35 67<124.871 282.833>
LayerCount: 3
Fore
SplineSet
194 -12 m 1
 109 3 35 89 35 188 c 0
 35 301 119 401 238 412 c 1
 243 462 l 2
 244 473 254 479 265 479 c 0
 273 479 279 470 278 462 c 2
 273 413 l 1
 312 411 353 398 380 365 c 0
 383 361 384 357 384 353 c 0
 384 341 371 331 360 323 c 0
 356 321 351 319 347 319 c 0
 338 319 329 323 326 329 c 0
 312 354 296 372 269 379 c 1
 235 46 l 1
 240 45 245 45 250 45 c 0
 292 45 340 50 365 88 c 0
 367 91 370 93 374 93 c 0
 381 93 387 87 387 81 c 0
 387 80 387 78 386 77 c 0
 349 15 300 -12 228 -14 c 1
 223 -65 l 2
 222 -74 213 -80 204 -80 c 0
 195 -80 187 -74 188 -65 c 2
 194 -12 l 1
200 53 m 1
 235 384 l 1
 233 384 l 2
 153 384 102 297 102 222 c 0
 102 135 142 75 200 53 c 1
EndSplineSet
Validated: 1
EndChar

StartChar: currency
Encoding: 164 164 1075
Width: 483
VWidth: 0
Flags: W
HStem: 75 50<166.617 315.383> 415 50<167.424 315.383>
VStem: 49 50<194.664 345.223> 383 50<194.664 345.336>
LayerCount: 3
Fore
SplineSet
41 434 m 2
 39 436 38 438 38 441 c 0
 38 454 56 472 69 472 c 0
 72 472 75 471 77 469 c 2
 122 424 l 1
 155 449 196 465 241 465 c 0
 286 465 327 450 359 424 c 1
 405 470 l 2
 407 472 410 473 413 473 c 0
 425 473 443 457 443 443 c 0
 443 439 442 436 439 433 c 2
 394 388 l 1
 419 355 433 314 433 270 c 0
 433 226 419 185 394 152 c 1
 441 105 l 2
 443 103 444 101 444 98 c 0
 444 85 426 67 413 67 c 0
 410 67 407 68 405 70 c 2
 359 116 l 1
 327 90 286 75 241 75 c 0
 196 75 155 90 123 116 c 1
 76 70 l 2
 74 68 71 67 68 67 c 0
 55 67 38 84 38 97 c 0
 38 100 39 103 41 105 c 2
 88 152 l 1
 63 185 49 226 49 270 c 0
 49 314 63 355 88 387 c 1
 41 434 l 2
241 415 m 24
 162 415 99 349 99 270 c 24
 99 191 162 125 241 125 c 24
 320 125 383 191 383 270 c 24
 383 349 320 415 241 415 c 24
EndSplineSet
EndChar

StartChar: brokenbar
Encoding: 166 166 106
Width: 260
VWidth: 0
Flags: W
HStem: -290 21G<109 116.5> 276 21G<109 116.5> 685 20G<143 149.5>
VStem: 100 60<-286.107 171.668 282.519 698.117>
LayerCount: 3
Fore
SplineSet
112 276 m 0
 106 276 100 289 100 299 c 2
 100 674 l 10
 100 696 140 705 146 705 c 0
 153 705 160 699 160 692 c 18
 160 297 l 2
 160 287 121 276 112 276 c 0
146 179 m 0
 153 179 160 167 160 157 c 2
 160 -266 l 10
 160 -287 121 -290 112 -290 c 0
 106 -290 100 -283 100 -276 c 18
 100 156 l 2
 100 166 140 179 146 179 c 0
EndSplineSet
Substitution2: "sups subtable" brokenbar.sups
Substitution2: "sinf subtable" brokenbar.sinf
Substitution2: "ordn subtable" brokenbar.ordn
Substitution2: "subs subtable" brokenbar.subs
EndChar

StartChar: section
Encoding: 167 167 1090
Width: 400
VWidth: 0
Flags: W
HStem: -148 54<88.8253 192.796> 596 44<162.652 273.871>
VStem: 24 49<293.853 443.615> 307 39<51.084 209.409>
LayerCount: 3
Fore
SplineSet
217 305 m 0
 175 348 110 412 94 458 c 0
 92 463 85 462 84 458 c 0
 77 431 73 412 73 385 c 0
 73 316 103 266 163 204 c 0
 205 161 270 97 286 51 c 0
 288 46 295 47 296 51 c 0
 303 78 307 97 307 124 c 0
 307 193 277 243 217 305 c 0
229 640 m 0
 254 640 288 631 299 621 c 0
 305 616 311 611 311 603 c 0
 311 599 294 556 273 556 c 0
 269 556 264 558 260 562 c 0
 240 580 216 596 198 596 c 0
 158 596 137 565 137 533 c 0
 137 496 182 438 241 385 c 0
 325 310 346 247 346 159 c 0
 346 86 330 49 296 -11 c 24
 262 -70 217 -113 177 -137 c 0
 162 -146 141 -148 123 -148 c 0
 88 -148 61 -134 61 -116 c 0
 61 -107 66 -81 89 -64 c 0
 96 -59 106 -66 111 -70 c 0
 128 -85 157 -94 180 -94 c 0
 214 -94 232 -64 232 -12 c 0
 232 38 170 95 118 149 c 0
 56 212 24 270 24 329 c 0
 24 418 52 467 90 513 c 1
 105 571 158 640 229 640 c 0
EndSplineSet
Substitution2: "sups subtable" section.sups
Substitution2: "sinf subtable" section.sinf
Substitution2: "ordn subtable" section.ordn
Substitution2: "subs subtable" section.subs
EndChar

StartChar: dieresis
Encoding: 168 168 72
Width: 317
VWidth: 0
Flags: W
HStem: 474 100<30.7018 109.298 207.702 286.298>
VStem: 20 100<484.702 563.298> 197 100<484.702 563.298>
LayerCount: 3
Fore
SplineSet
247 574 m 0
 272 574 297 549 297 524 c 0
 297 499 272 474 247 474 c 0
 222 474 197 499 197 524 c 0
 197 549 222 574 247 574 c 0
70 574 m 0
 95 574 120 549 120 524 c 0
 120 499 95 474 70 474 c 0
 45 474 20 499 20 524 c 0
 20 549 45 574 70 574 c 0
EndSplineSet
EndChar

StartChar: uni00B2
Encoding: 178 178 573
Width: 300
VWidth: 0
Flags: W
HStem: 440 52<100.824 235.007> 716 54<76.9321 163.692>
VStem: 178 56<615.835 702.329>
LayerCount: 3
Fore
SplineSet
42 678 m 1
 37 668 26 672 26 683 c 0
 26 703 73 770 143 770 c 0
 194 770 234 728 234 677 c 16
 234 643 217 623 200 598 c 0
 178 565 108 506 101 498 c 0
 97 494 109 492 113 492 c 2
 182 492 l 2
 212 492 241 512 256 542 c 0
 258 547 265 551 271 550 c 16
 274 550 275 548 275 545 c 0
 275 544 274 542 274 541 c 0
 261 505 253 481 247 450 c 0
 245 439 241 437 238 437 c 0
 237 437 236 437 235 437 c 0
 184 440 184 440 151 440 c 24
 103 440 79 440 28 438 c 0
 25 437 23 440 23 444 c 0
 23 447 25 451 28 454 c 2
 67 494 l 2
 83 510 178 588 178 653 c 0
 178 690 151 716 121 716 c 0
 85 716 70 708 42 678 c 1
EndSplineSet
Validated: 1
EndChar

StartChar: uni00B3
Encoding: 179 179 574
Width: 300
VWidth: 0
Flags: W
HStem: 434 34<85.0589 180.553> 586 11<83 88.8379> 593 32<134 184> 723 47<93.2855 180.775>
VStem: 187 56<658.134 714.96> 201 52<488.737 578.834>
LayerCount: 3
Fore
SplineSet
112 434 m 0xb4
 83 434 46 439 46 467 c 0
 46 475 55 495 64 495 c 0
 70 495 75 492 77 490 c 0
 89 482 112 468 142 468 c 0
 155 468 201 478 201 536 c 8
 201 570 172 593 134 593 c 0xb4
 124 593 108 589 97 586 c 0
 91 584 78 592 83 597 c 24
 98 612 118 615 132 622 c 0
 166 640 187 653 187 686 c 16
 187 707 158 723 140 723 c 0
 117 723 91 716 68 693 c 0
 66 691 62 687 60 687 c 0
 57 687 50 694 52 698 c 0
 68 729 102 770 155 770 c 0
 206 770 243 750 243 699 c 0xd8
 243 674 220 651 184 633 c 0
 180 631 180 625 184 625 c 8
 224 625 253 590 253 550 c 16
 253 469 165 434 112 434 c 0xb4
EndSplineSet
EndChar

StartChar: acute
Encoding: 115 180 88
Width: 382
VWidth: 0
Flags: W
HStem: 449 201
VStem: 143 173
LayerCount: 3
Back
Fore
SplineSet
281 650 m 0
 299 650 316 645 316 631 c 0
 316 612 263 582 183 471 c 0
 178 464 165 449 156 449 c 0
 147 449 143 453 143 462 c 0
 143 477 210 598 231 632 c 0
 242 650 259 650 281 650 c 0
EndSplineSet
Validated: 1
EndChar

StartChar: periodcentered
Encoding: 183 183 112
Width: 200
VWidth: 0
Flags: W
HStem: 150 110<56.8467 143.153>
VStem: 45 110<161.847 248.153>
LayerCount: 3
Fore
SplineSet
100 260 m 24
 130 260 155 235 155 205 c 24
 155 175 130 150 100 150 c 24
 70 150 45 175 45 205 c 24
 45 235 70 260 100 260 c 24
EndSplineSet
EndChar

StartChar: guillemotright
Encoding: 187 187 115
Width: 676
VWidth: 0
Flags: W
HStem: 380 20G<104 111.5 316 323.5>
LayerCount: 3
Fore
SplineSet
141 37 m 0
 128 24 119 19 111 19 c 0
 106 19 102 25 102 31 c 0
 102 55 185 147 257 203 c 0
 265 209 265 211 257 217 c 0
 182 275 100 362 100 391 c 0
 100 397 102 400 106 400 c 0
 117 400 129 388 135 382 c 0
 204 316 259 279 361 218 c 0
 363 217 364 214 364 211 c 0
 364 202 356 187 346 182 c 0
 287 155 210 106 141 37 c 0
353 37 m 0
 340 24 331 19 323 19 c 0
 318 19 314 25 314 31 c 0
 314 55 397 147 469 203 c 0
 477 209 477 211 469 217 c 0
 394 275 312 362 312 391 c 0
 312 397 314 400 318 400 c 0
 329 400 341 388 347 382 c 0
 416 316 471 279 573 218 c 0
 575 217 576 214 576 211 c 0
 576 202 568 187 558 182 c 0
 499 155 422 106 353 37 c 0
EndSplineSet
Substitution2: "guillemet_var subtable" guillemotright.alt
EndChar

StartChar: onequarter
Encoding: 188 188 1071
Width: 641
VWidth: 0
Flags: W
HStem: -10 21G<516.5 521> 107 41<410.953 509.994 562.011 628.146> 283 25<41.0807 94.4421 173.08 227.988> 608 20G<160 164> 635 20G<563.5 576>
VStem: 106 60<313.843 539.082> 510 52<-2.11044 104.947 148.046 265.092>
LayerCount: 3
Fore
SplineSet
121 -11 m 26
 533 638 l 26
 542 652 555 655 572 655 c 24
 580 655 589 645 585 638 c 26
 173 -11 l 26
 165 -24 152 -26 137 -26 c 24
 128 -26 116 -18 121 -11 c 26
502 148 m 2
 505 148 510 150 510 153 c 2
 510 264 l 2
 510 266 506 267 504 265 c 24
 466 223 440 190 411 153 c 0
 410 151 409 148 411 148 c 2
 502 148 l 2
584 108 m 0
 577 108 562 107 562 103 c 2
 562 19 l 2
 562 4 523 -10 519 -10 c 0
 514 -10 510 -8 510 -2 c 2
 510 100 l 2
 510 104 502 105 501 105 c 0
 452 105 418 102 355 101 c 0
 351 101 347 107 349 109 c 0
 391 165 436 219 480 273 c 0
 492 288 515 313 538 338 c 24
 543 343 549 349 553 350 c 0
 557 351 560 345 560 342 c 0
 560 316 560 225 562 151 c 24
 562 149 563 147 565 147 c 18
 583 147 l 2
 597 147 608 147 624 148 c 0
 627 148 631 146 631 143 c 0
 631 129 621 107 618 107 c 0
 607 107 594 108 584 108 c 0
154 626 m 0
 157 627 159 628 161 628 c 0
 167 628 171 622 170 614 c 0
 168 600 166 576 166 544 c 0
 166 500 165 464 165 433 c 0
 165 403 166 378 166 354 c 0
 167 315 172 314 216 308 c 0
 224 307 228 301 228 295 c 0
 228 289 224 283 216 283 c 0
 159 283 166 288 134 288 c 24
 102 288 106 283 52 283 c 0
 45 283 41 290 41 297 c 0
 41 303 44 308 52 308 c 0
 79 310 106 313 106 354 c 2
 106 507 l 2
 106 534 69 548 52 554 c 0
 44 557 41 562 41 567 c 0
 41 574 46 580 51 581 c 0
 102 586 142 620 154 626 c 0
EndSplineSet
EndChar

StartChar: threequarters
Encoding: 190 190 1072
Width: 641
VWidth: 0
Flags: W
HStem: -10 21G<516.5 521> 101 8<349.115 350.971> 107 41<410.953 509.994 562.011 628.146> 274 34<92.719 184.221> 450 11<92 97.8789> 457 32<143 193> 585 47<101.936 189.775> 635 20G<563.5 576>
VStem: 196 56<519.602 576.944> 210 52<337.604 435.571> 510 52<-2.11044 104.947 148.046 265.092>
LayerCount: 3
Fore
SplineSet
121 274 m 0x9760
 91 274 53 278 53 307 c 0
 53 315 62 335 71 335 c 0
 77 335 82 332 84 330 c 0
 96 322 121 308 151 308 c 0
 164 308 210 323 210 381 c 8
 210 420 181 457 143 457 c 0x9760
 133 457 117 453 106 450 c 0
 100 448 87 456 92 461 c 24
 107 476 128 477 141 486 c 0
 171 506 196 516 196 548 c 16
 196 569 167 585 149 585 c 0
 126 585 101 575 77 555 c 0
 74 552 71 548 67 549 c 24
 63 551 59 556 61 560 c 0
 77 591 111 632 164 632 c 1
 215 631 252 612 252 561 c 0x9ba0
 252 536 229 512 193 494 c 0
 189 492 189 489 193 489 c 8
 237 487 262 445 262 401 c 16
 262 320 174 274 121 274 c 0x9760
121 -11 m 10
 533 638 l 26
 542 652 555 655 572 655 c 24
 580 655 589 645 585 638 c 26
 173 -11 l 26
 165 -24 152 -26 137 -26 c 16
 129 -26 120 -20 120 -14 c 0
 120 -13 120 -12 121 -11 c 10
502 148 m 2xb320
 505 148 510 150 510 153 c 2
 510 264 l 2
 510 266 506 267 504 265 c 24
 466 223 440 190 411 153 c 0
 410 151 409 148 411 148 c 2
 502 148 l 2xb320
584 108 m 0
 577 108 562 107 562 103 c 2
 562 19 l 2
 562 4 523 -10 519 -10 c 0
 514 -10 510 -8 510 -2 c 2
 510 100 l 2
 510 104 502 105 501 105 c 0
 452 105 418 102 355 101 c 0
 352 101 348 105 348 108 c 0
 348 109 349 109 349 109 c 1xd320
 391 165 436 219 480 273 c 0
 492 288 515 313 538 338 c 24
 543 343 549 349 553 350 c 1
 554 350 l 2
 557 350 560 345 560 342 c 0
 560 316 560 225 562 151 c 24
 562 149 563 147 565 147 c 18
 583 147 l 2
 597 147 608 147 624 148 c 0
 627 148 631 146 631 143 c 0
 631 129 621 107 618 107 c 0
 607 107 594 108 584 108 c 0
EndSplineSet
Validated: 1
EndChar

StartChar: questiondown
Encoding: 126 191 1029
Width: 355
VWidth: 0
Flags: W
HStem: -181 92<202.941 302.018> 374 120<186.745 279.255>
VStem: 68 55<-18.1186 89.5> 173 120<387.745 480.255> 232 53<218.758 284.304> 232 37<221.96 297.929>
LayerCount: 3
Fore
SplineSet
233 374 m 24xf0
 200 374 173 401 173 434 c 24
 173 467 200 494 233 494 c 24
 266 494 293 467 293 434 c 24
 293 401 266 374 233 374 c 24xf0
273 -181 m 0
 240 -181 198 -164 165 -131 c 0
 109 -75 68 14 68 65 c 0
 68 114 92 149 112 160 c 0
 156 184 170 192 202 213 c 0
 230 231 231 244 232 276 c 0xe8
 232 286 237 299 247 299 c 0
 254 299 265 286 269 270 c 0xe4
 275 249 285 228 285 183 c 0xe8
 285 149 247 125 184 93 c 0
 156 79 123 51 123 22 c 0
 123 -44 156 -92 224 -93 c 0
 243 -93 252 -89 271 -89 c 0
 292 -89 313 -118 313 -145 c 0
 313 -164 290 -181 273 -181 c 0
EndSplineSet
Validated: 1
EndChar

StartChar: AE
Encoding: 198 198 1000
Width: 866
VWidth: 0
Flags: W
HStem: -5 33<-3.35062 59.8209 349.687 433.53> 1 34<184.941 264.333 555.199 775.885> 285 43<298.004 454 533.496 692.438> 598 50<435.875 454> 618 35<535.287 755.859> 626 25<290.02 341.067>
VStem: -5 175<2 86.5> 454 79<52.4363 284.888 332.239 597.55> 706 32<224.771 272.415> 789 25<532.08 574.023>
AnchorPoint: "top_accent" 540 700 basechar 0
LayerCount: 3
Fore
SplineSet
533 354 m 2x2bc0
 533 343 540 332 550 332 c 0
 592 332 622 333 646 334 c 0
 665 335 678 336 690 347 c 0
 699 355 702 359 707 371 c 0
 709 376 720 388 725 388 c 0
 730 388 739 381 738 372 c 0
 736 349 735 331 735 313 c 0
 735 290 736 269 738 240 c 0
 738 231 737 223 729 223 c 8
 716 223 708 239 706 246 c 0
 696 277 675 284 659 285 c 0
 617 287 595 287 556 287 c 0
 544 287 533 280 533 264 c 2
 533 111 l 2
 533 73 553 35 598 35 c 2
 702 35 l 2x6bc0
 707 35 765 43 778 53 c 0
 796 67 812 99 820 116 c 0
 824 124 827 127 834 126 c 16
 841 125 847 121 847 115 c 0
 847 77 838 43 830 12 c 0
 828 4 826 -5 816 -5 c 0xa3c0
 698 -5 606 1 512 1 c 2
 492 1 l 10x63c0
 447 1 431 -5 377 -5 c 0xa3c0
 360 -5 348 -2 348 6 c 0
 348 15 358 20 381 24 c 0
 430 33 454 50 454 96 c 2
 454 267 l 2
 454 277 452 285 432 285 c 2
 291 285 l 10
 276 285 268 275 261 262 c 0
 235 218 211 174 179 112 c 0
 173 101 170 91 170 82 c 0
 170 50 206 37 235 30 c 0
 258 24 268 19 268 10 c 0
 268 2 256 -1 239 -1 c 0
 221 -1 186 1 150 1 c 0x63c0
 105 1 57 -5 24 -5 c 0
 7 -5 -5 -2 -5 6 c 0
 -5 15 6 21 28 28 c 0
 62 38 104 78 132 126 c 2
 405 594 l 2
 410 602 401 610 388 611 c 1
 300 626 l 1
 293 629 290 634 290 639 c 0
 290 645 294 651 300 651 c 0xa7c0
 342 651 407 648 475 648 c 16x33c0
 587 648 733 653 776 653 c 2
 784 653 l 2
 791 653 801 651 802 644 c 0
 809 606 813 576 814 541 c 0
 814 535 806 532 800 532 c 0
 793 532 791 535 789 542 c 0
 782 564 775 581 766 591 c 0
 747 612 724 618 699 618 c 2
 568 618 l 2
 557 618 533 610 533 592 c 2
 533 354 l 2x2bc0
438 581 m 2
 302 343 l 2
 299 338 298 335 298 333 c 0
 298 329 303 328 314 328 c 2
 438 328 l 2
 453 328 454 328 454 343 c 2
 454 580 l 2
 454 592 454 598 451 598 c 0x33c0
 448 598 444 592 438 581 c 2
EndSplineSet
Validated: 1
Substitution2: "c2sc subtable" AE.sc
EndChar

StartChar: Ccedilla
Encoding: 199 199 135
Width: 640
VWidth: 0
Flags: W
HStem: -275 53<313.107 414.871> -15 31<326.024 480.938> 632 31<314.682 483.324>
VStem: 46 100<217.847 434.419> 425 53<-216.671 -136.134> 576 37<473.764 560.679>
AnchorPoint: "top_accent" 381 700 basechar 0
LayerCount: 3
Back
SplineSet
410 663 m 0
 442 663 498 657 516 651 c 0
 534 645 575 638 592 633 c 0
 600 631 604 617 605 603 c 0
 609 572 612 546 613 494 c 0
 614 485 612 470 602 471 c 0
 591 472 589 479 585 502 c 1
 580 542 553 570 541 581 c 0
 531 591 478 624 386 624 c 0
 240 624 146 481 146 334 c 0
 146 177 247 25 403 25 c 0
 442 25 488 40 527 62 c 0
 566 85 581 119 586 137 c 0
 590 149 606 152 611 156 c 0
 612 157 612 157 613 157 c 0
 617.5 157 619.75 147.438 619.75 138.438 c 0
 619.75 135.438 619.5 132.5 619 130 c 0
 615 105 593 50 578 27 c 0
 573 19 561 16 537 5 c 0
 514 -6 472 -11 429 -14 c 1
 402 -54 l 2
 397 -61 407 -68 412 -70 c 0
 440 -82 478 -112 478 -159 c 0
 478 -227 394 -275 349 -275 c 0
 329 -275 320 -275 311 -262 c 0
 306.165 -255.714 304.369 -249.662 304.369 -243.278 c 0
 304.369 -236.46 306.418 -229.263 309 -221 c 0
 311 -214 317 -207 323 -210 c 0
 346 -220 370 -222 383 -222 c 0
 400 -222 425 -212 425 -183 c 0
 425 -159 413 -133 378 -131 c 0
 371 -131 362 -132 354 -132 c 0
 343 -132 333 -130 328 -122 c 0
 325 -117 328 -105 332 -100 c 2
 395 -15 l 1
 369 -15 l 2
 192 -15 50 132 50 310 c 0
 50 507 214 663 410 663 c 0
EndSplineSet
Fore
Refer: 1076 -1 N 1 0 0 1 299 0 2
Refer: 32 67 N 1 0 0 1 0 0 3
Validated: 5
Substitution2: "c2sc subtable" Ccedilla.sc
EndChar

StartChar: multiply
Encoding: 215 215 1027
Width: 600
VWidth: 0
Flags: W
LayerCount: 3
Fore
SplineSet
290 299 m 2
 295 294 295 296 297 298 c 2
 441 441 l 2
 444 444 447 446 451 446 c 0
 454 446 458 444 460 441 c 0
 467 428 477 413 477 401 c 0
 477 396 475 391 470 386 c 2
 339 255 l 2
 337 253 337 252 339 250 c 2
 482 107 l 2
 485 104 487 100 487 95 c 0
 487 77 468 53 457 53 c 0
 453 53 450 54 447 57 c 2
 298 207 l 2
 296 209 293 209 291 207 c 2
 148 64 l 10
 143 59 134 59 130 63 c 0
 125 68 108 87 108 102 c 0
 108 106 110 111 113 114 c 2
 247 248 l 2
 251 252 250 254 246 258 c 2
 125 379 l 2
 121 383 120 388 120 393 c 0
 120 409 133 430 136 434 c 0
 141 439 150 439 155 434 c 18
 290 299 l 2
EndSplineSet
Substitution2: "Smallcaps subtable" multiply.sc
EndChar

StartChar: Thorn
Encoding: 222 222 1005
Width: 559
VWidth: 0
Flags: W
HStem: -5 29<22.6924 100.398 249.207 325.308> 134 29<220.086 338.416> 491 33<227.17 354.401> 622 31<45.0745 114.782 243.835 323.926>
VStem: 134 80<47.625 136.998 168.451 479.657 512.007 601.154> 426 92<265.542 420.784>
LayerCount: 3
Fore
SplineSet
256 134 m 0
 242 134 231 137 222 137 c 0
 218 137 214 134 214 128 c 2
 214 96 l 2
 214 54 243 33 293 24 c 0
 316 20 326 15 326 6 c 0
 326 -2 314 -5 297 -5 c 0
 243 -5 226 0 180 0 c 24
 130 0 105 -5 51 -5 c 0
 34 -5 22 -2 22 6 c 0
 22 15 32 20 55 24 c 0
 105 33 134 51 134 99 c 2
 134 549 l 2
 134 588 127 613 77 622 c 0
 54 626 44 633 44 642 c 0
 44 650 56 653 73 653 c 0
 127 653 136 650 177 650 c 24
 223 650 242 653 296 653 c 0
 313 653 325 650 325 642 c 0
 325 633 315 626 292 622 c 0
 242 613 214 597 214 549 c 2
 214 532 l 2
 214 521 214 512 220 512 c 0
 223 512 242 517 243 517 c 0
 262 522 288 524 315 524 c 0
 424 524 518 465 518 347 c 0
 518 302 483 220 439 186 c 0
 393 151 311 134 256 134 c 0
265 163 m 0
 305 163 342 174 362 189 c 8
 412 226 426 277 426 335 c 0
 426 412 375 491 299 491 c 0
 262 491 214 482 214 452 c 2
 214 189 l 2
 214 172 247 163 265 163 c 0
EndSplineSet
Validated: 1
Substitution2: "c2sc subtable" Thorn.sc
EndChar

StartChar: germandbls
Encoding: 223 223 21
Width: 505
VWidth: 0
Flags: W
HStem: -12 56<292 388.839> -3 27<25.9975 74.9714 175.029 224.003> 352 24<28.0248 64.1752> 665 41<227.144 349.761>
VStem: 90 70<32.4474 350 389.856 546.953> 246 79<320.595 383.018> 392 63<500.357 625.331> 423 52<74.4136 150.897>
LayerCount: 3
Fore
SplineSet
287 264 m 2xbd
 263 286 246 305 246 336 c 0
 246 383 305 410 351 458 c 0
 374 482 392 519 392 555 c 0
 392 600 373 665 273 665 c 0
 210 665 160 609 160 475 c 2
 160 69 l 2
 160 41 182 30 202 24 c 0
 213 20 225 16 225 6 c 0
 225 -4 207 -3 202 -3 c 0
 163 -3 161 2 126 2 c 0
 91 2 87 -3 48 -3 c 0
 43 -3 25 -4 25 6 c 0
 25 16 37 20 48 24 c 0
 68 30 90 41 90 69 c 2
 90 350 l 1
 77 350 59 350 38 352 c 0
 34 353 27 362 27 369 c 0
 27 372 29 375 31 376 c 0
 61 384 72 392 90 402 c 1
 90 633 221 706 308 706 c 0
 393 706 455 643 455 572 c 0x7e
 455 520 429 492 409 473 c 2
 376 443 l 1
 355 421 325 406 325 364 c 0
 325 353 328 338 344 323 c 2
 437 233 l 1
 464 205 475 179 475 140 c 0
 475 71 404 16 373 0 c 0
 349 -12 336 -12 300 -12 c 0
 284 -12 242 6 242 29 c 0
 242 46 253 84 271 84 c 0
 274 84 277 82 280 80 c 0
 307 59 335 44 366 44 c 0
 392 44 423 58 423 98 c 0
 423 134 399 156 357 196 c 2
 287 264 l 2xbd
EndSplineSet
Validated: 1
Substitution2: "Smallcaps subtable" germandbls.sc
EndChar

StartChar: aacute
Encoding: 160 225 156
Width: 399
VWidth: 0
Flags: W
HStem: -14 46<100.5 201.116 314.769 371.14> 365 49<152.989 252.5> 456 21G<163.5 172> 643 20G<221 234.5>
VStem: 35 80<42.662 121.94 279.95 317.037> 238 68<59.2835 168.996 199.884 352.817>
LayerCount: 3
Fore
SplineSet
192 478 m 0
 185.98 467.573 176 456 168 456 c 0
 159 456 159 460 159 469 c 0
 159 487 189.802 609.433 200 645 c 0
 203.308 656.535 217 663 225 663 c 0
 244 663 263 638 263 622 c 0
 263 612 212.565 513.62 192 478 c 0
EndSplineSet
Refer: 0 97 N 1 0 0 1 0 0 3
Validated: 1
Substitution2: "Smallcaps subtable" aacute.sc
EndChar

StartChar: ae
Encoding: 230 230 1012
Width: 544
VWidth: 0
Flags: W
HStem: -14 60<331.028 454.182> -14 46<100.5 201.473> 365 49<153.551 239> 378 35<339.067 433.317>
VStem: 35 80<42.662 120.882 278.95 316.037> 241 69<67.832 171.994 243.909 350.475> 459 69<289.173 356.371>
AnchorPoint: "top_accent" 299 550 basechar 0
LayerCount: 3
Fore
SplineSet
120 332 m 0x6e
 117 327 116 320 116 313 c 0
 116 308 117 304 117 299 c 0
 117 285 61 264 48 264 c 0
 42 264 40 270 40 273 c 0
 40 294 55 320 80 342 c 0
 111 370 176 414 229 414 c 0x6e
 249 414 284 395 292 381 c 0
 295 375 297 375 304 380 c 0
 328 397 378 413 411 413 c 0
 463 413 528 383 528 318 c 0
 528 296 518 291 504 284 c 0
 491 277 354 218 320 203 c 0
 314 200 309 190 309 185 c 2
 309 129 l 2
 309 63 353 46 397 46 c 0
 437 46 476 57 508 94 c 0
 511 97 514 98 517 98 c 0
 524 98 530 93 530 87 c 0
 530 86 530 84 529 83 c 0
 485 19 442 -14 366 -14 c 0x9e
 327 -14 288 0 257 26 c 0
 254 29 246 38 244 38 c 0
 242 38 239 37 236 34 c 0
 220 22 189 -13 121 -14 c 0
 80 -14 35 26 35 65 c 0
 35 107 59 133 108 155 c 10
 212 202 l 18
 238 214 241 217 241 233 c 2
 241 299 l 26
 241 334 218 365 181 365 c 0
 157 365 128 346 120 332 c 0x6e
310 321 m 1
 310 254 l 2
 310 244 320 242 325 244 c 0
 374 264 433 284 452 292 c 0
 458 294 459 300 459 306 c 0
 459 315 456 325 455 328 c 0
 440 365 415 378 385 378 c 0x1e
 368 378 311 356 310 321 c 1
115 87 m 1
 115 49 145 32 164 32 c 0x4e
 190 32 210 45 226 59 c 0
 233 65 240 71 240 96 c 2
 240 148 l 2
 240 164 240 172 232 172 c 0
 216 172 117 139 115 87 c 1
EndSplineSet
Validated: 1
Substitution2: "Smallcaps subtable" ae.sc
Ligature2: "LATliga subtable" a e
LCarets2: 1 0 
EndChar

StartChar: ccedilla
Encoding: 166 231 159
Width: 377
VWidth: 0
Flags: W
HStem: -274 49<138.625 216.545> -14 52<190.498 209> 376 37<164.716 278.981>
VStem: 35 69<132.446 283.536> 236 50<-205.712 -134.075>
AnchorPoint: "below_accent" 199 -100 basechar 0
AnchorPoint: "top_accent" 230 550 basechar 0
LayerCount: 3
Back
SplineSet
164 -129 m 0
 163 -129 163 -129 162 -129 c 0
 154 -129 138 -118 149 -104 c 2
 220 -14 l 1
 215 -14 211 -14 206 -14 c 0
 105 -14 35 77 35 180 c 0
 35 303 123 413 246 413 c 0
 289 413 336 402 366 365 c 0
 379 349 361 333 346 323 c 0
 342 320 337 319 332 319 c 0
 323 319 313 324 308 329 c 0
 275 365 264 376 214 376 c 0
 141 376 104 299 104 226 c 0
 104 130 167 38 263 38 c 0
 305 38 325 54 351 88 c 0
 354 91 357 93 360 93 c 0
 367 93 374 85 372 77 c 0
 364 49 320 7 255 -8 c 1
 229 -43 l 2
 222 -52 231 -61 236 -63 c 0
 268 -77 297 -106 297 -139 c 0
 297 -219 208 -274 172 -274 c 0
 145 -274 139 -249 144 -224 c 0
 146 -217 152 -212 159 -215 c 0
 174 -221 186 -225 208 -225 c 0
 234 -225 247 -206 247 -180 c 0
 247 -144 215 -129 180 -127 c 0
 173 -127 169 -127 164 -129 c 0
EndSplineSet
Fore
SplineSet
151 -129 m 0
 144 -129 133 -123 133 -114 c 0
 133 -111 135 -108 138 -104 c 2
 209 -14 l 2
 208 -14 207 -14 206 -14 c 0
 105 -14 35 77 35 180 c 0
 35 303 123 413 246 413 c 0
 289 413 336 402 366 365 c 0
 369 361 371 357 371 353 c 0
 371 336 343 319 333 319 c 0
 324 319 313 324 308 329 c 0
 275 365 264 376 214 376 c 0
 141 376 104 299 104 226 c 0
 104 130 167 38 263 38 c 0
 305 38 325 54 351 88 c 0
 354 91 357 93 360 93 c 0
 366 93 372 86 372 79 c 0
 372 47 314 2 243 -11 c 1
 218 -43 l 2
 216 -45 214 -49 214 -51 c 0
 214 -57 221 -62 225 -63 c 0
 257 -77 286 -106 286 -139 c 0
 286 -219 197 -274 161 -274 c 0
 134 -274 131 -252 131 -233 c 0
 131 -219 140 -214 144 -214 c 0
 151 -214 164 -225 197 -225 c 0
 223 -225 236 -206 236 -180 c 0
 236 -144 212 -123 177 -123 c 0
 164 -123 158 -129 151 -129 c 0
EndSplineSet
Validated: 1
Substitution2: "Smallcaps subtable" ccedilla.sc
EndChar

StartChar: eacute
Encoding: 233 233 161
Width: 388
VWidth: 0
Flags: W
HStem: -14 60<170.037 288.842> 257 31<111.332 284.014> 383 31<163.177 267.455> 456 21G<191.5 200> 643 20G<249 262.5>
VStem: 30 62<133.034 255.743> 295 63<292.515 363.238> 337 17<81.0588 89.6221>
LayerCount: 3
Fore
SplineSet
220 478 m 0xfc
 213.98 467.573 204 456 196 456 c 0
 187 456 187 460 187 469 c 0
 187 487 217.802 609.433 228 645 c 0
 231.308 656.535 245 663 253 663 c 0
 272 663 291 638 291 622 c 0
 291 612 240.565 513.62 220 478 c 0xfc
EndSplineSet
Refer: 13 101 N 1 0 0 1 0 0 3
Validated: 1
Substitution2: "Smallcaps subtable" eacute.sc
EndChar

StartChar: iacute
Encoding: 172 237 165
Width: 245
VWidth: 0
Flags: W
HStem: -3 27<24.9975 78.9702 171.03 224.926> 352 25<35.0088 66.0645> 456 21G<87.5 96> 643 20G<145 158.5>
VStem: 90 70<31.1488 339.165>
LayerCount: 3
Fore
SplineSet
116 478 m 0
 109.98 467.573 100 456 92 456 c 0
 83 456 83 460 83 469 c 0
 83 487 113.802 609.433 124 645 c 0
 127.308 656.535 141 663 149 663 c 0
 168 663 187 638 187 622 c 0
 187 612 136.565 513.62 116 478 c 0
EndSplineSet
Refer: 76 305 N 1 0 0 1 0 0 3
Validated: 1
Substitution2: "Smallcaps subtable" iacute.sc
EndChar

StartChar: eth
Encoding: 240 240 1031
Width: 487
VWidth: 0
Flags: W
HStem: -14 30<199.521 297.656> 380 34<177.37 303.068> 678 27<64.1382 126.55>
VStem: 25 83<113.216 280.802> 378 78<138.996 306.968>
LayerCount: 3
Fore
SplineSet
234 380 m 0
 149 380 108 293 108 210 c 0
 108 111 172 16 252 16 c 0
 332 16 378 130 378 219 c 0
 378 322 315 380 234 380 c 0
456 250 m 0
 456 133 381 -14 231 -14 c 0
 119 -14 25 66 25 186 c 0
 25 310 128 414 251 414 c 0
 283 414 315 406 343 391 c 0
 352 387 353 390 351 400 c 0
 335 459 313 516 283 552 c 1
 128 472 l 2
 120 468 114 475 114 480 c 0
 114 489 114 511 122 515 c 2
 254 584 l 1
 199 636 134 667 84 678 c 0
 76 680 64 683 64 693 c 0
 64 702 76 705 90 705 c 0
 151 705 236 671 309 612 c 1
 410 665 l 2
 418 670 435 674 435 664 c 0
 435 646 433 630 417 622 c 2
 342 583 l 1
 399 522 456 427 456 250 c 0
EndSplineSet
Validated: 1
Substitution2: "Smallcaps subtable" eth.sc
EndChar

StartChar: oacute
Encoding: 243 243 170
Width: 495
VWidth: 0
Flags: W
HStem: -14 30<203.025 317.686> 383 31<177.889 291.342> 456 21G<218.5 227> 643 20G<276 289.5>
VStem: 35 82<109.934 279.37> 378 82<111.572 289.08>
LayerCount: 3
Fore
SplineSet
247 478 m 0
 240.98 467.573 231 456 223 456 c 0
 214 456 214 460 214 469 c 0
 214 487 244.802 609.433 255 645 c 0
 258.308 656.535 272 663 280 663 c 0
 299 663 318 638 318 622 c 0
 318 612 267.565 513.62 247 478 c 0
EndSplineSet
Refer: 3 111 N 1 0 0 1 0 0 3
Validated: 1
Substitution2: "Smallcaps subtable" oacute.sc
EndChar

StartChar: divide
Encoding: 247 247 1026
Width: 590
VWidth: 0
Flags: W
HStem: 69 92<256.347 333.653> 232 50<53.1042 534.632> 353 92<255.394 332.653>
VStem: 249 92<76.3474 153.653 360.963 437.301>
CounterMasks: 1 e0
LayerCount: 3
Fore
SplineSet
295 161 m 24
 320 161 341 140 341 115 c 24
 341 90 320 69 295 69 c 24
 270 69 249 90 249 115 c 24
 249 140 270 161 295 161 c 24
295 445 m 24
 320 445 340 424 340 399 c 24
 340 374 319 353 294 353 c 24
 269 353 248 374 248 399 c 24
 248 425 269 445 295 445 c 24
64 232 m 10
 57 232 50 238 50 244 c 0
 50 253 56 282 74 282 c 18
 527 282 l 2
 533 282 541 277 541 271 c 0
 541 270 540 269 540 268 c 8
 534 251 528 232 509 232 c 18
 64 232 l 10
EndSplineSet
Substitution2: "Smallcaps subtable" divide.sc
EndChar

StartChar: uacute
Encoding: 185 250 174
Width: 527
VWidth: 0
Flags: W
HStem: -19 56<186.992 285.45> 21 24<446.943 516.841> 365 32<29.0288 68.315 280.055 349.325> 395 20<414 438.5> 456 21G<223.5 232> 643 20G<281 294.5>
VStem: 85 70<71.1627 353.726> 368 70<78.3695 352.26>
LayerCount: 3
Fore
SplineSet
252 478 m 0x0f
 245.98 467.573 236 456 228 456 c 0
 219 456 219 460 219 469 c 0
 219 487 249.802 609.433 260 645 c 0
 263.308 656.535 277 663 285 663 c 0
 304 663 323 638 323 622 c 0
 323 612 272.565 513.62 252 478 c 0x0f
EndSplineSet
Refer: 15 117 N 1 0 0 1 0 0 3
Validated: 1
Substitution2: "Smallcaps subtable" uacute.sc
EndChar

StartChar: yacute
Encoding: 253 253 176
Width: 438
VWidth: 0
Flags: W
HStem: -285 66<17.1881 107.75> 378 27<6.05563 49.8994 152.137 193.546 399.046 441.944> 456 21G<206.5 215> 643 20G<264 277.5>
VStem: 322 121<327 400>
LayerCount: 3
Fore
SplineSet
235 478 m 0
 228.98 467.573 219 456 211 456 c 0
 202 456 202 460 202 469 c 0
 202 487 232.802 609.433 243 645 c 0
 246.308 656.535 260 663 268 663 c 0
 287 663 306 638 306 622 c 0
 306 612 255.565 513.62 235 478 c 0
EndSplineSet
Refer: 24 121 N 1 0 0 1 0 0 3
Validated: 1
Substitution2: "Smallcaps subtable" yacute.sc
EndChar

StartChar: thorn
Encoding: 254 254 1004
Width: 505
VWidth: 0
Flags: W
HStem: -285 27<16.9975 72.75 164.81 217.003> -14 31<192.371 319.672> 369 45<229.222 336.995> 685 20G<155.5 157.5>
VStem: 85 70<-249.996 17.9674 43.7392 338.399 348.056 626.571> 401 80<127.023 298.226>
AnchorPoint: "top_accent" 261 550 basechar 0
LayerCount: 3
Fore
SplineSet
85 566 m 2
 85 599 72 632 39 639 c 0
 34 640 31 646 31 652 c 0
 31 658 34 663 38 664 c 0
 89 676 122 692 154 704 c 0
 155 704 155 705 156 705 c 0
 159 705 162 701 162 698 c 0
 162 686 156 652 155 562 c 2
 155 386 l 2
 155 363 156 349 157 348 c 1
 176 367 254 414 317 414 c 0
 420 414 481 319 481 225 c 0
 481 106 382 -14 256 -14 c 0
 228 -14 178 0 158 18 c 1
 155 18 155 -27 155 -33 c 2
 155 -219 l 2
 155 -247 175 -252 195 -258 c 0
 206 -262 218 -266 218 -276 c 0
 218 -285 204 -285 195 -285 c 0
 156 -285 152 -280 117 -280 c 0
 82 -280 78 -285 39 -285 c 0
 30 -285 16 -285 16 -276 c 0
 16 -266 28 -262 39 -258 c 0
 59 -252 85 -247 85 -219 c 2
 85 566 l 2
271 17 m 0
 310 17 401 59 401 193 c 0
 401 347 308 369 265 369 c 0
 231 369 204 359 179 340 c 0
 164 329 155 310 155 269 c 2
 155 115 l 2
 155 96 159 60 178 42 c 0
 193 28 227 17 271 17 c 0
EndSplineSet
Substitution2: "Smallcaps subtable" thorn.sc
EndChar

StartChar: cacute
Encoding: 198 263 185
Width: 377
VWidth: 0
Flags: W
HStem: -14 52<188.967 300.34> 376 37<164.716 278.981> 456 21G<202.5 211> 643 20G<260 273.5>
VStem: 35 69<132.446 283.536>
LayerCount: 3
Fore
SplineSet
231 478 m 0
 224.98 467.573 215 456 207 456 c 0
 198 456 198 460 198 469 c 0
 198 487 228.802 609.433 239 645 c 0
 242.308 656.535 256 663 264 663 c 0
 283 663 302 638 302 622 c 0
 302 612 251.565 513.62 231 478 c 0
EndSplineSet
Refer: 14 99 N 1 0 0 1 0 0 3
Validated: 1
Substitution2: "Smallcaps subtable" cacute.sc
EndChar

StartChar: dcaron
Encoding: 271 271 193
Width: 506
VWidth: 0
Flags: H
LayerCount: 3
Back
SplineSet
458 657 m 0x2f
 458 678 490 705 511 705 c 0
 523 705 527 691 527 675 c 0
 527 638 505.844 573.913 488 537 c 0
 479.731 519.894 473 512 467 512 c 0
 463 512 460 522 460 535 c 0
 460 540 463 569 463 584 c 0
 463 621 458 641 458 657 c 0x2f
EndSplineSet
Refer: 11 100 N 1 0 0 1 0 0 2
Fore
Refer: 986 -1 N 1 0 0 1 454 0 2
Refer: 11 100 N 1 0 0 1 0 0 3
Substitution2: "Smallcaps subtable" dcaron.sc
MultipleSubs2: "CCMP_Precomp subtable" d uni030C.alt
EndChar

StartChar: Dcroat
Encoding: 272 272 994
Width: 754
VWidth: 0
Flags: W
HStem: -7 35<30.0745 112.208 251.726 448.386> 317 36<46.0087 129 210 387.479> 628 31<29.2164 94.5968 230.74 433.726>
VStem: 129 81<62.1482 317 353 605.889> 609 95<215.09 461.507>
LayerCount: 3
Fore
SplineSet
609 346 m 0
 609 503 502 628 345 628 c 0
 258 628 210 627 210 567 c 2
 210 353 l 1
 377 353 l 2
 383 353 391 348 391 342 c 0
 391 341 390 340 390 339 c 0
 383 326 374 317 359 317 c 2
 210 317 l 1
 210 121 l 2
 210 80 224 66 245 50 c 0
 269 32 292 28 317 28 c 0
 335 28 354 30 376 30 c 0
 529 30 609 193 609 346 c 0
371 -7 m 0
 351 -7 242 0 163 0 c 0
 123 0 111 -5 58 -5 c 0
 41 -5 29 -2 29 6 c 0
 29 15 39 20 62 24 c 0
 112 33 129 51 129 99 c 2
 129 317 l 1
 60 317 l 2
 51 317 46 329 46 335 c 0
 46 344 58 353 70 353 c 2
 129 353 l 1
 129 549 l 2
 129 597 112 613 62 622 c 0
 39 626 29 633 29 642 c 0
 29 650 41 653 58 653 c 0
 112 653 121 651 162 651 c 2
 169 651 l 2
 212 651 313 659 340 659 c 0
 611 659 704 530 704 335 c 0
 704 149 562 -7 371 -7 c 0
EndSplineSet
Substitution2: "c2sc subtable" Dcroat.sc
EndChar

StartChar: dcroat
Encoding: 273 273 996
Width: 506
VWidth: 0
Flags: W
HStem: -14 45<184.419 298.086> 21 24<433.943 503.841> 379 35<175.114 291.457> 535 36<200.009 352 422 513.479> 684 20G<415 424>
VStem: 35 74<111.575 287.804> 352 70<62.7966 323.828 384.004 535 571 628.279>
LayerCount: 3
Fore
SplineSet
229 379 m 0xbe
 190 379 109 347 109 213 c 0
 109 62 213 31 257 31 c 0
 313 31 352 72 352 120 c 2
 352 255 l 2
 352 311 307 379 229 379 c 0xbe
338 393 m 0
 342 388 346 384 348 384 c 0
 351 384 352 390 352 408 c 2
 352 535 l 1
 214 535 l 2
 205 535 200 547 200 553 c 0
 200 562 212 571 224 571 c 2
 352 571 l 1
 351 621 334 632 301 639 c 0
 296 640 293 646 293 652 c 0
 293 657 295 663 300 664 c 0
 373 681 408 704 422 704 c 0
 426 704 428 702 429 698 c 1
 429 686 422 654 422 571 c 1
 503 571 l 2
 509 571 517 566 517 560 c 0
 517 559 516 558 516 557 c 0
 509 544 500 535 485 535 c 2
 422 535 l 1
 422 110 l 2
 422 68 427 45 443 45 c 0
 453 45 479 46 489 48 c 0
 494 49 504 47 504 35 c 0
 504 24 495 21 490 21 c 0x7e
 438 14 402 -1 373 -13 c 0
 369 -15 355 -19 349 -19 c 0
 345 -19 346 -18 346 -15 c 0
 346 -2 351 34 351 51 c 2
 351 57 l 1
 331 26 286 -14 220 -14 c 0
 106 -14 35 89 35 190 c 0
 35 306 120 414 260 414 c 0
 288 414 332 400 338 393 c 0
EndSplineSet
Substitution2: "Smallcaps subtable" dcroat.sc
EndChar

StartChar: eogonek
Encoding: 216 281 201
Width: 388
VWidth: 0
Flags: W
HStem: -287 66<231.324 300.883> -14 60<170.037 268.589> 257 31<111.332 284.014> 383 31<163.177 267.455>
VStem: 30 62<133.034 255.743> 142 74<-206.017 -103.966> 295 63<292.515 363.238>
LayerCount: 3
Fore
SplineSet
243 -287 m 0
 185 -287 142 -253 142 -179 c 0
 142 -107 204 -43 245 -9 c 1
 231 -12 215 -14 198 -14 c 0
 107 -14 30 70 30 203 c 0
 30 316 116 414 229 414 c 0
 310 414 358 376 358 323 c 0
 358 290 351 275 337 268 c 0
 323 261 303 257 281 257 c 2
 117 257 l 2
 101 257 92 254 92 220 c 0
 92 130 153 46 243 46 c 0
 268 46 311 56 337 90 c 0
 340 93 345 97 348 97 c 0
 355 97 356 85 354 77 c 0
 349 59 331 35 303 16 c 1
 287 4 216 -55 216 -152 c 0
 216 -196 242 -221 276 -221 c 0
 311 -221 330 -200 335 -200 c 0
 339 -200 343 -201 343 -207 c 0
 343 -226 299 -287 243 -287 c 0
213 383 m 0
 157 383 111 329 111 303 c 0
 111 295 116 288 130 288 c 2
 212 288 l 2
 241 288 264 289 285 293 c 0
 292 294 295 310 295 321 c 0
 295 361 252 383 213 383 c 0
EndSplineSet
Validated: 1
Substitution2: "Smallcaps subtable" eogonek.sc
EndChar

StartChar: hbar
Encoding: 230 295 995
Width: 497
VWidth: 0
Flags: W
HStem: -3 27<18.0556 69.766 164.237 213.003 296.056 344.313 441.781 491.944> 362 52<226.693 320.965> 538 33<15.1377 83 153 304.321> 685 20G<153 157>
VStem: 83 70<32.0327 335.273 351.281 538 571 627.818> 357 70<32.9166 324.754>
AnchorPoint: "below_accent" 231 -100 basechar 0
AnchorPoint: "top_accent" 242 757 basechar 0
LayerCount: 3
Fore
SplineSet
427 68 m 2
 427 41 450 30 470 24 c 0
 481 20 493 16 493 6 c 0
 493 -2 480 -3 473 -3 c 0
 472 -3 471 -3 470 -3 c 0
 431 -3 427 2 392 2 c 0
 357 2 357 -3 318 -3 c 0
 317 -3 316 -3 315 -3 c 0
 308 -3 295 -2 295 6 c 0
 295 16 307 20 318 24 c 0
 338 30 357 41 357 68 c 2
 357 272 l 2
 357 323 306 362 263 362 c 0
 238 362 199 355 180 340 c 0
 159 323 153 309 153 268 c 2
 153 65 l 1
 154 38 171 30 191 24 c 0
 202 20 214 16 214 6 c 0
 214 -2 202 -3 194 -3 c 0
 193 -3 192 -3 191 -3 c 0
 152 -3 153 2 118 2 c 0
 83 2 79 -3 40 -3 c 0
 39 -3 38 -3 37 -3 c 0
 30 -3 17 -2 17 6 c 0
 17 16 29 20 40 24 c 0
 60 30 83 38 83 65 c 2
 83 538 l 1
 29 538 l 2
 20 538 15 547 15 553 c 0
 15 562 27 571 39 571 c 2
 83 571 l 1
 82 605 70 632 38 639 c 0
 33 640 30 646 30 652 c 0
 30 658 33 663 37 664 c 0
 88 676 121 692 153 704 c 0
 154 704 155 705 155 705 c 1
 159 705 160 701 162 698 c 1
 162 686 154 670 153 571 c 1
 293 571 l 2
 300 571 309 564 306 557 c 0
 299 544 290 538 275 538 c 2
 153 538 l 1
 153 388 l 2
 153 362 156 357 161 351 c 1
 192 374 249 414 312 414 c 0
 377 414 427 372 427 294 c 2
 427 68 l 2
EndSplineSet
Validated: 1
Substitution2: "Smallcaps subtable" hbar.sc
EndChar

StartChar: Iogonek
Encoding: 302 302 220
Width: 340
VWidth: 0
Flags: W
HStem: -287 71<139.439 217.053> -5 29<19.6924 97.1038 243.602 321.308> 622 31<31.0745 107.441 235.205 312.926>
VStem: 38 85<-199.668 -110.749> 130 80<46.75 604.158>
LayerCount: 3
Fore
SplineSet
152 -287 m 0
 89 -287 38 -237 38 -174 c 0
 38 -100 130 -31 179 -0 c 1
 178 0 177 0 176 0 c 0
 126 0 102 -5 48 -5 c 0
 31 -5 19 -2 19 6 c 0
 19 15 29 20 52 24 c 0
 102 33 130 51 130 98 c 2
 130 550 l 2
 130 597 113 613 63 622 c 0
 40 626 30 633 30 642 c 0
 30 650 42 653 59 653 c 0
 113 653 130 650 176 650 c 0
 219 650 231 653 285 653 c 0
 302 653 314 650 314 642 c 0
 314 633 304 626 281 622 c 0
 231 613 210 597 210 550 c 2
 210 98 l 2
 210 51 239 33 289 24 c 0
 312 20 322 15 322 6 c 0
 322 -2 310 -5 293 -5 c 0
 255 -5 235 -2 210 -1 c 1
 177 -29 123 -85 123 -155 c 0
 123 -190 154 -216 189 -216 c 0
 224 -216 262 -181 271 -176 c 0
 276 -173 283 -174 283 -182 c 0
 283 -225 206 -287 152 -287 c 0
EndSplineSet
Substitution2: "c2sc subtable" Iogonek.sc
EndChar

StartChar: iogonek
Encoding: 303 303 221
Width: 245
VWidth: 0
Flags: W
HStem: -298 66<109.324 178.883> -3 27<24.9975 78.9702 171.116 224.926> 352 25<35.0088 66.0645> 513 101<77.1171 159.823>
VStem: 20 74<-217.017 -105.506> 68 101<522.117 604.823> 90 70<31.1488 339.165>
LayerCount: 3
Fore
SplineSet
121 -298 m 0xf8
 63 -298 20 -264 20 -190 c 0xf8
 20 -98 100 -19 123 2 c 1
 90 2 82 -3 44 -3 c 0
 36 -3 24 -2 24 6 c 0
 24 16 36 20 47 24 c 0
 67 30 90 35 90 62 c 2
 90 279 l 2xf2
 90 315 77 345 43 352 c 0
 38 353 35 359 35 365 c 0
 35 370 38 376 42 377 c 0
 109 393 154 434 162 434 c 0
 166 434 169 432 169 429 c 0xf4
 165 388 160 339 160 294 c 2
 160 62 l 2xf2
 160 35 183 30 203 24 c 0
 214 20 226 16 226 6 c 0
 226 -2 215 -3 206 -3 c 0
 179 -3 167 0 150 1 c 1
 135 -17 94 -74 94 -163 c 0
 94 -207 120 -232 154 -232 c 0
 189 -232 208 -211 213 -211 c 0
 217 -211 221 -212 221 -218 c 0
 221 -237 177 -298 121 -298 c 0xf8
68 563 m 0xf4
 68 592 90 614 118 614 c 0
 147 614 169 592 169 563 c 0
 169 535 147 513 118 513 c 0
 90 513 68 535 68 563 c 0xf4
EndSplineSet
Substitution2: "Smallcaps subtable" iogonek.sc
EndChar

StartChar: dotlessi
Encoding: 305 305 76
Width: 245
VWidth: 0
Flags: W
HStem: -3 27<24.9975 78.9702 171.03 224.926> 352 25<35.0088 66.0645>
VStem: 90 70<31.1488 339.165>
AnchorPoint: "top_accent" 115 550 basechar 0
LayerCount: 3
Fore
SplineSet
162 434 m 0
 166 434 169 432 169 429 c 0
 165 388 160 339 160 294 c 2
 160 62 l 2
 160 35 183 30 203 24 c 0
 214 20 226 16 226 6 c 0
 226 -2 215 -3 206 -3 c 0
 168 -3 160 2 125 2 c 0
 90 2 83 -3 44 -3 c 0
 36 -3 24 -2 24 6 c 0
 24 16 36 20 47 24 c 0
 67 30 90 35 90 62 c 2
 90 279 l 2
 90 315 77 345 43 352 c 0
 38 353 35 359 35 365 c 0
 35 370 38 376 42 377 c 0
 109 393 154 434 162 434 c 0
EndSplineSet
Substitution2: "Smallcaps subtable" dotlessi.sc
EndChar

StartChar: lcommaaccent
Encoding: 316 316 229
Width: 240
VWidth: 0
Flags: W
HStem: -145 88<62.6911 130.02> -3 27<20.0556 73.9702 166.03 219.944> 685 20<155.5 157.5>
VStem: 85 70<31.1488 627.687> 132 54<-221.876 -148.082>
LayerCount: 3
Back
SplineSet
155 62 m 0xf0
 155 35 178 30 198 24 c 0
 209 20 221 16 221 6 c 0
 221 -2 208 -3 201 -3 c 0
 162 -3 155 2 120 2 c 4
 85 2 78 -3 39 -3 c 0
 32 -3 19 -2 19 6 c 0
 19 16 31 20 42 24 c 0
 62 30 85 35 85 62 c 2
 85 566 l 2
 85 605 72 632 39 639 c 0
 34 640 31 646 31 652 c 0
 31 658 34 663 38 664 c 0
 89 676 122 692 154 704 c 0
 155 704 155 705 156 705 c 0
 159 705 162 701 162 698 c 0
 162 686 156 652 156 562 c 0
 156 389 155 260 155 62 c 0xf0
78 -275 m 0xe8
 70 -275 65 -271 65 -266 c 0
 65 -261 70 -256 79 -253 c 0
 118 -239 132 -202 132 -174 c 0
 132 -156 120 -149 102 -145 c 0
 79 -140 52 -122 52 -100 c 0
 52 -76 69 -57 98 -57 c 0
 146 -57 186 -98 186 -154 c 0
 186 -239 103 -275 78 -275 c 0xe8
EndSplineSet
Fore
Refer: 128 806 N 1 0 0 1 14 0 2
Refer: 2 108 N 1 0 0 1 0 0 3
Substitution2: "Smallcaps subtable" lcommaaccent.sc
EndChar

StartChar: lcaron
Encoding: 318 318 231
Width: 240
VWidth: 0
Flags: H
LayerCount: 3
Back
SplineSet
192 657 m 0
 192 683 224 705 245 705 c 0
 257 705 261 691 261 675 c 0
 261 670 261 666 260 661 c 0
 250 592 237 568 222 537 c 0
 216 525 205 512 200 512 c 0
 196 512 194 522 194 535 c 0
 194 554 197 578 197 584 c 0
 197 601 192 624 192 657 c 0
EndSplineSet
Refer: 2 108 N 1 0 0 1 0 0 2
Fore
Refer: 986 -1 N 1 0 0 1 187 0 2
Refer: 2 108 N 1 0 0 1 0 0 3
Substitution2: "Smallcaps subtable" lcaron.sc
MultipleSubs2: "CCMP_Precomp subtable" l uni030C.alt
EndChar

StartChar: Ldot
Encoding: 319 319 232
Width: 574
VWidth: 0
Flags: W
HStem: -5 29<27.3563 94.228> -5 40<220.001 480.636> 314 100<360.438 443.562> 622 31<37.0745 116.488 238.822 330.926>
VStem: 130 80<47.25 603.136> 352 100<322.438 405.562> 541 34<139.048 159.894>
LayerCount: 3
Fore
SplineSet
402 414 m 24x3e
 430 414 452 392 452 364 c 24
 452 336 430 314 402 314 c 24
 374 314 352 336 352 364 c 24
 352 392 374 414 402 414 c 24x3e
EndSplineSet
Refer: 36 76 N 1 0 0 1 0 0 3
LCarets2: 1 0 
Ligature2: "liga_standard subtable" L.CAT periodcentered
Substitution2: "c2sc subtable" Ldot.sc
EndChar

StartChar: Lslash
Encoding: 321 321 1007
Width: 586
VWidth: 0
Flags: W
HStem: -5 40<215.001 475.636> -5 29<22.3563 89.228> 622 31<32.0745 111.488 233.822 325.926>
VStem: 125 80<47.25 281 352 603.136> 536 34<139.048 159.894>
AnchorPoint: "cedilla" 183 8 basechar 0
AnchorPoint: "below_accent" 314 -100 basechar 0
AnchorPoint: "top_accent" 186 700 basechar 0
LayerCount: 3
Fore
SplineSet
205 567 m 2x78
 205 352 l 1
 375 415 l 2
 382 418 393 416 393 409 c 0
 393 389 384 375 375 372 c 2
 205 310 l 1
 205 96 l 2
 205 55 216 35 282 35 c 2
 428 35 l 2xb8
 433 35 466 45 484 61 c 0
 510 84 519 96 536 132 c 0
 539 140 549 162 558 162 c 0
 566 162 570 152 570 144 c 0
 570 142 569 140 569 139 c 0
 555 87 546 54 542 12 c 0
 541 3 538 -5 528 -5 c 0
 394 -5 285 0 185 0 c 0
 135 0 50 -5 50 -5 c 2
 32 -5 22 0 22 7 c 0
 22 19 40 23 44 24 c 0
 96 34 125 52 125 96 c 2
 125 281 l 1
 60 257 l 2
 52 254 39 255 39 263 c 0
 39 277 42 292 53 296 c 2
 125 322 l 1
 125 560 l 2
 125 608 114 613 64 622 c 0
 41 626 31 633 31 642 c 0
 31 650 43 653 60 653 c 0
 114 653 128 650 172 650 c 0
 221 650 244 653 298 653 c 0
 315 653 327 650 327 642 c 0
 327 633 317 626 294 622 c 0
 244 613 205 606 205 567 c 2x78
EndSplineSet
Validated: 1
Substitution2: "c2sc subtable" Lslash.sc
EndChar

StartChar: lslash
Encoding: 322 322 1007
Width: 244
VWidth: 0
Flags: W
HStem: -3 27<22.0556 75.9702 168.03 221.944> 405 20G<221 225> 685 20G<157.5 159.5>
VStem: 87 70<31.1488 317 393 623.225>
AnchorPoint: "below_accent" 115 -100 basechar 0
LayerCount: 3
Fore
SplineSet
157 62 m 2
 157 35 180 30 200 24 c 0
 211 20 223 16 223 6 c 0
 223 -2 210 -3 203 -3 c 0
 202 -3 201 -3 200 -3 c 0
 161 -3 157 2 122 2 c 0
 87 2 83 -3 44 -3 c 0
 43 -3 42 -3 41 -3 c 0
 34 -3 21 -2 21 6 c 0
 21 16 33 20 44 24 c 0
 64 30 87 35 87 62 c 2
 87 317 l 1
 33 288 l 2
 25 284 13 296 13 304 c 0
 13 313 21 319 26 322 c 2
 87 355 l 1
 87 566 l 2
 87 581 74 632 41 639 c 0
 36 640 32 646 32 652 c 0
 32 658 36 663 40 664 c 0
 91 676 124 692 156 704 c 0
 157 704 157 705 158 705 c 0
 161 705 164 701 164 698 c 0
 164 686 158 652 158 562 c 2
 158 393 l 1
 215 423 l 2
 217 424 220 425 222 425 c 0
 228 425 233 420 233 405 c 0
 233 398 224 390 215 385 c 2
 157 355 l 1
 157 62 l 2
EndSplineSet
Validated: 1
Substitution2: "Smallcaps subtable" lslash.sc
EndChar

StartChar: nacute
Encoding: 259 324 235
Width: 527
VWidth: 0
Flags: W
HStem: -3 27<24.9975 78.5549 171.03 225.003 304.056 357.97 450.03 504.003> 349 25<41.0133 72.6656> 365 49<236.974 340.865> 410 20<159.5 161.5> 456 21G<230.5 239> 643 20G<288 301.5>
VStem: 41 119<348.549 397.23> 90 70<31.1488 335.218> 369 70<31.1488 335.56>
LayerCount: 3
Fore
SplineSet
259 478 m 0x8c80
 252.98 467.573 243 456 235 456 c 0
 226 456 226 460 226 469 c 0
 226 487 256.802 609.433 267 645 c 0
 270.308 656.535 284 663 292 663 c 0
 311 663 330 638 330 622 c 0
 330 612 279.565 513.62 259 478 c 0x8c80
EndSplineSet
Refer: 6 110 N 1 0 0 1 0 0 3
Validated: 1
Substitution2: "Smallcaps subtable" nacute.sc
EndChar

StartChar: Eng
Encoding: 265 330 1033
Width: 770
VWidth: 0
Flags: W
HStem: -255 44<509.343 587.216> -5 29<38.6924 95.8125 212.412 280.308> 619 31<546.074 609.256 691.75 771.979> 620 38<18.6632 92.8053>
VStem: 147 37<306.848 499.991> 618 61<-128.375 21.0128> 636 43<136.004 599.75>
AnchorPoint: "below_accent" 401 -100 basechar 0
AnchorPoint: "top_accent" 400 700 basechar 0
LayerCount: 3
Fore
SplineSet
540 -255 m 0xec
 489 -255 421 -239 421 -199 c 0
 421 -181 431 -151 448 -151 c 0
 470 -151 484 -157 496 -174 c 0
 516 -202 531 -211 560 -211 c 0
 588 -211 618 -144 618 -50 c 0
 618 -12 612 0 601 15 c 0
 583 40 242 456 219 484 c 0
 209 496 203 500 198 500 c 0
 191 500 189 487 189 479 c 0
 187 380 184 227 184 104 c 0
 184 68 198 33 248 24 c 0
 271 20 281 15 281 6 c 0
 281 -2 269 -5 252 -5 c 0
 198 -5 195 0 158 0 c 24
 122 0 121 -5 67 -5 c 0
 50 -5 38 -2 38 6 c 0
 38 15 48 20 71 24 c 0
 109 31 127 94 129 107 c 0
 138 182 147 342 147 507 c 0
 147 578 107 601 48 620 c 0
 42 622 17 632 17 644 c 0
 17 656 33 658 40 658 c 0xdc
 118 656 122 653 194 653 c 0
 206 653 211 645 218 636 c 0
 237 609 579 180 599 156 c 0
 604 150 616 136 624 136 c 0
 629 136 633 142 634 157 c 0
 635 189 636 365 636 477 c 2
 636 564 l 1
 635 590 600 615 578 619 c 0
 555 623 545 630 545 639 c 0
 545 647 557 650 574 650 c 2
 631 650 l 2
 679 650 685 653 746 653 c 0
 763 653 775 650 775 642 c 0
 775 633 765 626 742 622 c 0
 692 613 679 601 679 568 c 2xea
 679 14 l 2
 679 -7 668 -255 540 -255 c 0xec
EndSplineSet
Validated: 1
Substitution2: "c2sc subtable" Eng.sc
EndChar

StartChar: OE
Encoding: 338 338 579
Width: 933
VWidth: 0
Flags: W
HStem: -14 39<309.694 511.131> -5 40<619.438 853.391> 320 32<609.086 765.094> 388 20G<798.5 803.5> 618 31<614.697 828.978> 625 39<289.881 481.092>
VStem: 45 97<219.261 444.186> 528 80<44.9994 319.486 352 588.555> 781 32<253.771 304.565> 864 25<526.084 573.315>
LayerCount: 3
Fore
SplineSet
573 1 m 0x7bc0
 526 1 468 -5 466 -5 c 0x7bc0
 440 -11 411 -14 382 -14 c 0
 205 -14 45 130 45 320 c 0
 45 501 166 664 390 664 c 0xb7c0
 421 664 453 659 481 652 c 0
 493 649 532 649 564 649 c 16
 655 649 846 653 856 653 c 0
 863 653 873 651 874 644 c 0
 881 606 889 568 889 541 c 0
 889 529 881 526 875 526 c 0
 868 526 866 529 864 536 c 0
 857 558 851 581 842 591 c 0
 823 612 800 618 775 618 c 2
 644 618 l 2
 633 618 608 605 608 586 c 2
 608 374 l 2
 608 362 616 352 626 352 c 2
 722 352 l 2
 751 352 773 368 783 391 c 0
 785 396 796 408 801 408 c 0
 806 408 814 402 814 392 c 0
 814 383 811 353 811 337 c 0
 811 317 813 277 813 269 c 0
 813 260 812 252 804 252 c 8
 791 252 783 268 781 275 c 0
 771 306 752 320 735 320 c 2
 642 320 l 2
 619 320 608 317 608 294 c 2
 608 102 l 2
 608 51 629 35 674 35 c 2
 778 35 l 2
 828 35 841 43 854 53 c 0
 872 67 888 99 896 116 c 0
 900 124 903 127 910 126 c 16
 917 125 923 123 923 115 c 0
 923 97 913 38 906 12 c 0
 904 3 900 -5 892 -5 c 8
 768 -5 673 1 573 1 c 0x7bc0
528 540 m 2
 528 601 458 625 375 625 c 0
 227 625 142 490 142 350 c 0
 142 179 247 25 395 25 c 0xb7c0
 467 25 528 27 528 80 c 2
 528 540 l 2
EndSplineSet
Validated: 1
Substitution2: "c2sc subtable" OE.sc
EndChar

StartChar: oe
Encoding: 274 339 580
Width: 755
VWidth: 0
Flags: W
HStem: -14 62<534.779 655.598> -14 30<203.025 319.298> 257 31<478.332 651.013> 383 31<177.889 291.75 527.549 640.452>
VStem: 35 82<109.934 279.37> 378 81<130.365 255.13> 660 65<293.056 367.737> 700 21<76.5195 87.7159>
LayerCount: 3
Fore
SplineSet
237 383 m 0x7c
 201 383 173 374 149 343 c 0
 122 309 117 258 117 210 c 0
 117 111 175 16 255 16 c 0
 300 16 338 32 358 71 c 0
 374 102 378 150 378 189 c 0
 378 284 322 383 237 383 c 0x7c
254 414 m 0
 317 414 377 384 415 338 c 0
 421 330 424 328 429 335 c 0
 467 388 519 413 586 414 c 1
 688 414 725 372 725 323 c 0x7e
 725 290 718 275 704 268 c 0
 690 261 670 257 648 257 c 18
 484 257 l 2
 468 257 459 254 459 220 c 0
 459 124 521 48 610 48 c 16
 635 48 674 54 700 88 c 0
 703 91 706 93 709 93 c 0
 716 93 723 85 721 77 c 0
 711 42 657 -14 565 -14 c 0xbd
 510 -14 453 15 419 65 c 0
 414 72 413 72 408 65 c 0
 371 18 312 -14 234 -14 c 0
 122 -14 35 70 35 187 c 0
 35 298 131 414 254 414 c 0
482 318 m 0
 479 313 478 308 478 303 c 0
 478 295 483 288 497 288 c 2
 579 288 l 10
 607 288 631 289 652 293 c 0
 659 294 660 308 660 319 c 2
 660 333 l 1
 657 365 628 383 580 383 c 0
 524 383 494 340 482 318 c 0
EndSplineSet
Validated: 1
Substitution2: "Smallcaps subtable" oe.sc
Ligature2: "LATliga subtable" o e
LCarets2: 1 0 
EndChar

StartChar: racute
Encoding: 341 341 247
Width: 334
VWidth: 0
Flags: W
HStem: -3 27<30.0556 80.5886 180.901 235.944> 348 66<217.752 307.912> 349 25<39.0145 72.2253> 456 21G<162.5 171> 643 20G<220 233.5>
VStem: 39 125<347.525 398.3> 90 70<36.7083 329.52>
LayerCount: 3
Fore
SplineSet
191 478 m 0x98
 184.98 467.573 175 456 167 456 c 0
 158 456 158 460 158 469 c 0
 158 487 188.802 609.433 199 645 c 0
 202.308 656.535 216 663 224 663 c 0
 243 663 262 638 262 622 c 0
 262 612 211.565 513.62 191 478 c 0x98
EndSplineSet
Refer: 12 114 N 1 0 0 1 0 0 3
Validated: 1
Substitution2: "Smallcaps subtable" racute.sc
EndChar

StartChar: Scedilla
Encoding: 350 350 256
Width: 465
VWidth: 0
Flags: W
HStem: -275 53<152.107 253.871> -16 33<151.437 234> 631 33<190.87 312.057>
VStem: 59 77<467.614 571.876> 264 53<-216.671 -136.134> 338 84<78.627 196.667>
LayerCount: 3
Fore
SplineSet
223 17 m 0
 298 17 338 62 338 132 c 0
 338 198 268 263 186 318 c 0
 116 365 59 417 59 497 c 0
 59 584 140 664 260 664 c 0
 324 664 369 644 379 644 c 0
 388 644 394 631 396 621 c 0
 397 618 405 568 405 537 c 0
 405 522 403 512 398 512 c 0
 379 512 366 525 363 540 c 0
 353 598 307 631 251 631 c 0
 189 631 136 590 136 523 c 0
 136 459 218 408 269 375 c 0
 326 338 422 262 422 160 c 0
 422 91 378 10 269 -11 c 1
 241 -54 l 2
 236 -61 246 -68 251 -70 c 0
 279 -82 317 -112 317 -159 c 0
 317 -227 233 -275 188 -275 c 0
 153 -275 143 -258 143 -243 c 0
 143 -220 151 -209 159 -209 c 0
 167 -209 173 -222 222 -222 c 0
 239 -222 264 -212 264 -183 c 0
 264 -159 252 -129 217 -129 c 0
 205 -129 200 -132 191 -132 c 0
 174 -132 165 -121 165 -115 c 0
 165 -108 168 -104 171 -100 c 2
 234 -15 l 1
 228 -15 221 -16 214 -16 c 0
 141 -16 97 0 80 8 c 0
 67 14 61 20 59 25 c 0
 48 48 41 104 41 140 c 0
 41 149 51 169 62 169 c 0
 71 169 82 135 92 103 c 0
 111 42 165 17 223 17 c 0
EndSplineSet
Substitution2: "c2sc subtable" Scedilla.sc
EndChar

StartChar: uni0162
Encoding: 289 354 260
Width: 670
VWidth: 0
Flags: W
HStem: -265 53<243.107 344.871> -5 29<185.692 261.52 411.207 487.308> 604 38<106.512 292.507 378.966 603.53>
VStem: 296 80<48.375 600.468> 355 53<-206.671 -126.134> 619 35<517.175 586.637>
LayerCount: 3
Fore
SplineSet
256 -105 m 0xec
 256 -98 259 -94 262 -90 c 2
 329 -0 l 1
 288 -1 263 -5 214 -5 c 0
 197 -5 185 -2 185 6 c 0
 185 15 195 20 218 24 c 0
 268 33 296 54 296 102 c 2
 296 557 l 2
 296 575 294 597 278 600 c 0
 259 604 238 604 204 604 c 2
 157 604 l 2
 125 604 89 591 75 565 c 0
 69 554 49 527 34 527 c 0
 29 527 27 533 27 540 c 0
 27 546 29 554 32 560 c 0
 50 598 57 629 63 671 c 0
 66 693 75 694 80 694 c 0
 85 694 99 673 105 662 c 0
 113 648 147 642 175 642 c 2
 556 642 l 2
 585 642 604 649 614 656 c 0
 634 670 649 692 664 692 c 0
 668 692 671 679 671 669 c 0
 671 666 670 662 670 660 c 0
 661 623 654 587 654 561 c 0
 654 557 654 553 654 549 c 0
 654 537 648 517 638 517 c 0
 628 517 624 532 619 558 c 0
 614 586 591 604 527 604 c 0
 475 604 410 602 392 600 c 0
 378 598 376 575 376 557 c 2
 376 102 l 2xf4
 376 54 405 33 455 24 c 0
 478 20 488 15 488 6 c 0
 488 -2 476 -5 459 -5 c 0
 413 -5 394 -1 361 -0 c 1
 332 -44 l 2
 327 -51 337 -58 342 -60 c 0
 370 -72 408 -102 408 -149 c 0
 408 -217 324 -265 279 -265 c 0
 244 -265 234 -248 234 -233 c 0
 234 -210 242 -199 250 -199 c 0
 258 -199 264 -212 313 -212 c 0
 330 -212 355 -202 355 -173 c 0
 355 -149 343 -119 308 -119 c 0
 296 -119 291 -122 282 -122 c 0
 265 -122 256 -111 256 -105 c 0xec
EndSplineSet
Validated: 1
Substitution2: "c2sc subtable" uni0162.sc
EndChar

StartChar: tcaron
Encoding: 357 357 263
Width: 314
VWidth: 0
HStem: -14 55<175.024 262.227> 352 27<36.6315 66.3251> 352 48<155.176 303.943> 452 193<230.878 247.467>
VStem: 85 70<60.25 351.513> 221 61<504.557 634.402>
LayerCount: 3
Back
SplineSet
215 602 m 0x9e
 215 628 247 650 268 650 c 0
 280 650 284 636 284 620 c 0
 284 615 284 611 283 606 c 0
 273 537 260 513 245 482 c 0
 239 470 228 457 223 457 c 0
 219 457 217 467 217 480 c 0
 217 499 220 523 220 529 c 0
 220 546 215 569 215 602 c 0x9e
EndSplineSet
Refer: 1 116 N 1 0 0 1 0 0 2
Fore
Refer: 986 -1 N 1 0 0 1 214 -60 2
Refer: 1 116 N 1 0 0 1 0 0 3
Validated: 1
Substitution2: "Smallcaps subtable" tcaron.sc
EndChar

StartChar: Tbar
Encoding: 358 358 998
Width: 670
VWidth: 0
Flags: W
HStem: -5 29<185.692 261.52 411.207 487.308> 362 36<157.009 296 376 518.504> 604 38<106.512 292.507 378.966 605.228>
VStem: 296 80<48.75 362 398 600.363> 620 34<527.664 586.166>
AnchorPoint: "cedilla" 356 18 basechar 0
AnchorPoint: "below_accent" 334 -100 basechar 0
AnchorPoint: "top_accent" 341 700 basechar 0
LayerCount: 3
Fore
SplineSet
296 105 m 2
 296 362 l 1
 171 362 l 2
 162 362 157 374 157 380 c 0
 157 389 169 398 181 398 c 2
 296 398 l 1
 296 557 l 2
 296 575 294 597 278 600 c 0
 259 604 237 604 202 604 c 2
 157 604 l 2
 125 604 89 591 75 565 c 0
 69 554 49 527 34 527 c 0
 29 527 27 533 27 540 c 0
 27 546 29 554 32 560 c 0
 50 598 57 629 63 671 c 0
 66 693 75 694 80 694 c 0
 85 694 99 673 105 662 c 0
 113 648 147 643 175 642 c 0
 237 640 288 639 337 639 c 0
 406 639 471 641 558 645 c 0
 588 646 621 650 631 664 c 0
 642 679 651 686 658 686 c 0
 663 686 670 680 670 672 c 0
 670 634 654 592 654 557 c 2
 654 552 l 2
 654 542 650 527 641 527 c 2
 639 527 l 1
 627 529 624 549 620 558 c 0
 611 577 608 604 544 604 c 0
 492 604 410 602 392 600 c 0
 378 598 376 575 376 557 c 2
 376 398 l 1
 508 398 l 2
 515 398 524 391 521 384 c 0
 514 371 505 362 490 362 c 2
 376 362 l 1
 376 105 l 2
 376 54 405 33 455 24 c 0
 478 20 488 15 488 6 c 0
 488 -2 476 -5 459 -5 c 0
 405 -5 388 0 342 0 c 24
 292 0 268 -5 214 -5 c 0
 197 -5 185 -2 185 6 c 0
 185 15 195 20 218 24 c 0
 268 33 296 54 296 105 c 2
EndSplineSet
Substitution2: "c2sc subtable" Tbar.sc
EndChar

StartChar: tbar
Encoding: 359 359 1000
Width: 317
VWidth: 0
Flags: W
HStem: -14 45<166.36 260.495> 208 38<18.4343 73 143 247.917> 352 48<146.164 293.965> 352 24<33.2972 56.6887>
VStem: 73 70<55.5864 208 246 351.431>
LayerCount: 3
Fore
SplineSet
40 352 m 0xd8
 34 353 25 373 33 376 c 0xd8
 75 393 101 423 120 450 c 0
 125 457 139 462 146 462 c 0
 150 462 152 461 152 459 c 2
 146 414 l 2
 145 405 155 400 168 400 c 2
 286 400 l 2xe8
 291 400 294 388 294 376 c 0xd8
 294 364 291 352 286 352 c 2
 183 352 l 2xe8
 147 352 143 352 143 338 c 0
 143 307 143 277 143 246 c 1
 238 246 l 2
 245 246 254 239 251 232 c 0
 244 219 235 208 220 208 c 2
 143 208 l 1
 143 107 l 2
 143 67 177 31 213 31 c 0
 257 31 272 42 288 54 c 0
 294 58 298 49 298 41 c 0
 298 38 297 36 296 34 c 0
 287 19 232 -14 180 -14 c 0
 124 -14 73 27 73 83 c 2
 73 208 l 1
 31 208 l 2
 22 208 17 215 17 221 c 0
 17 230 29 246 41 246 c 2
 73 246 l 1
 73 337 l 2
 73 356 61 350 40 352 c 0xd8
EndSplineSet
Validated: 1
Substitution2: "Smallcaps subtable" tbar.sc
EndChar

StartChar: uogonek
Encoding: 371 371 275
Width: 527
VWidth: 0
Flags: W
HStem: -287 66<358.324 427.883> -14 51<186.992 296.086> 21 24<444.959 516.841> 365 32<29.0288 68.315 280.055 349.325> 395 20G<414 438.5>
VStem: 85 70<71.1627 353.726> 269 74<-206.017 -103.516> 368 70<78.3695 352.26>
LayerCount: 3
Fore
SplineSet
370 -287 m 0xb7
 312 -287 269 -253 269 -179 c 0
 269 -114 320 -55 360 -19 c 1
 363 -9 364 44 364 57 c 1
 312 6 261 -14 199 -14 c 0
 134 -14 85 27 85 105 c 2
 85 308 l 2
 85 337 72 353 42 365 c 0
 39 366 29 370 29 380 c 0
 29 393 39 396 44 397 c 0
 98 399 108 405 147 414 c 1
 157 415 162 410 161 400 c 0
 157 369 155 353 155 323 c 2
 155 128 l 2
 155 80 196 37 239 37 c 0
 273 37 298 38 323 57 c 0
 338 68 368 91 368 132 c 2
 368 315 l 2
 368 356 323 364 303 365 c 0
 298 365 280 368 280 382 c 0
 280 394 299 397 303 397 c 0xd7
 404 402 396 405 432 415 c 1
 434 415 l 2x8f
 443 415 451 405 446 397 c 0
 442 390 438 342 438 326 c 2
 438 114 l 2
 438 73 440 45 456 45 c 0
 466 45 492 46 502 48 c 0
 507 49 517 47 517 35 c 0
 517 24 508 21 503 21 c 0
 463 16 432 6 407 -4 c 1
 380 -31 343 -82 343 -152 c 0
 343 -196 369 -221 403 -221 c 0
 438 -221 457 -200 462 -200 c 0
 466 -200 470 -201 470 -207 c 0
 470 -226 426 -287 370 -287 c 0xb7
EndSplineSet
Substitution2: "Smallcaps subtable" uogonek.sc
EndChar

StartChar: zacute
Encoding: 313 378 282
Width: 377
VWidth: 0
Flags: W
HStem: -5 40<126.777 296.375> 286 21<38.5 48> 364 37<95.9758 241.234> 396 20<67 70.5> 456 21G<173.5 182> 643 20G<231 244.5>
VStem: 37 33<291.591 332.258>
LayerCount: 3
Fore
SplineSet
202 478 m 0xce
 195.98 467.573 186 456 178 456 c 0
 169 456 169 460 169 469 c 0
 169 487 199.802 609.433 210 645 c 0
 213.308 656.535 227 663 235 663 c 0
 254 663 273 638 273 622 c 0
 273 612 222.565 513.62 202 478 c 0xce
EndSplineSet
Refer: 65 122 N 1 0 0 1 0 0 3
Validated: 1
Substitution2: "Smallcaps subtable" zacute.sc
EndChar

StartChar: uni0181
Encoding: 385 385 2169
Width: 578
VWidth: 0
Flags: W
HStem: -5 29<19.6924 97.1038> -4 41<222.575 361.026> 343 28<219.903 332.234> 459 21G<2.5 24> 625 30<213.43 340.814>
VStem: -38 66<522.7 587.078> 130 78<50.5126 335.62 374.396 611.192> 410 86<428.459 570.467> 443 94<115.164 267.324>
LayerCount: 3
Fore
SplineSet
254 371 m 0x3f
 280 371 325 376 365 400 c 0
 379 408 410 440 410 498 c 0
 410 555 378 625 265 625 c 0
 210 625 208 612 208 582 c 2
 208 408 l 2
 208 373 238 371 254 371 c 0x3f
287 37 m 0x7e80
 365 37 443 103 443 189 c 0
 443 266 396 303 369 318 c 0
 351 328 315 343 265 343 c 0
 222 343 208 320 208 307 c 2
 208 108 l 2
 208 52 236 37 287 37 c 0x7e80
227 655 m 0
 409 655 496 618 496 508 c 0xbf
 496 463 477 427 462 412 c 0
 441 392 428 382 395 369 c 0
 390 367 389 361 395 359 c 0
 455 340 537 310 537 194 c 0
 537 84 474 51 433 30 c 0
 391 9 339 -4 273 -4 c 0x7e80
 255 -4 218 0 178 0 c 0
 126 0 106 -5 48 -5 c 0
 31 -5 19 -2 19 6 c 0
 19 15 29 20 52 24 c 0xbe80
 102 33 130 51 130 99 c 2
 130 549 l 2
 130 597 126 613 96 613 c 0
 66 613 28 582 28 557 c 0
 28 524 62 525 62 502 c 0
 62 478 32 459 16 459 c 0
 -11 459 -38 495 -38 532 c 0
 -38 622 93 655 227 655 c 0
EndSplineSet
Validated: 1
EndChar

StartChar: uni0183
Encoding: 387 387 2168
Width: 515
VWidth: 0
Flags: W
HStem: -14 31<213.819 334.869> -2 21G<81 87.5> 373 41<206.387 329.343> 660 40<148.952 355.338> 675 29<19.1294 59.8595>
VStem: 75 70<69.4872 337.996 355.054 657.041> 373 32<568.789 637.1> 405 75<112.179 288.838>
LayerCount: 3
Fore
SplineSet
114 700 m 2x35
 324 700 l 2
 367 700 397 703 399 703 c 0
 402 703 409 700 409 694 c 0
 409 676 405 630 405 609 c 0
 405 591 404 568 392 568 c 0
 384 568 379 580 373 606 c 0x36
 368 628 345 660 324 660 c 2
 177 660 l 2
 158 660 145 640 145 625 c 2
 145 388 l 2
 145 367 145 356 154 355 c 1
 200 406 266 414 300 414 c 0
 404 414 480 325 480 217 c 0
 480 100 408 -14 257 -14 c 0xb5
 195 -14 134 13 120 13 c 0
 108 13 90 -2 85 -2 c 0
 77 -2 68 3 68 9 c 0
 68 11 75 52 75 105 c 2
 75 566 l 2
 75 649 67 668 34 675 c 0
 29 676 19 682 19 688 c 0
 19 694 24 704 31 704 c 0x6d
 37 704 87 700 114 700 c 2x35
282 17 m 0xa5
 358 17 405 94 405 195 c 0
 405 272 360 373 265 373 c 0
 237 373 188 362 166 338 c 0
 152 323 145 306 145 253 c 2
 145 132 l 2
 145 62 212 17 282 17 c 0xa5
EndSplineSet
Validated: 1
EndChar

StartChar: uni0184
Encoding: 388 388 2380
Width: 568
VWidth: 0
Flags: W
HStem: -5 29<9.69245 86.7619> -4 41<219.505 350.629> 343 15<216.25 238.025>
VStem: 120 80<55.0049 337.828 358.013 535.735> 433 90<115.164 267.859>
LayerCount: 3
Fore
SplineSet
200 576 m 2xb8
 200 408 l 2
 200 376 201 358 212 358 c 0
 214 358 215 358 217 359 c 0
 241 367 273 376 324 376 c 0
 445 376 523 310 523 194 c 0
 523 84 459 51 423 30 c 0
 383 6 329 -4 263 -4 c 0x78
 243 -4 187 4 143 4 c 0
 101 4 92 -5 38 -5 c 0
 21 -5 9 -2 9 6 c 0
 9 15 19 20 42 24 c 0
 92 33 120 51 120 98 c 2
 120 472 l 2
 120 519 97 550 50 571 c 0
 29 581 20 588 20 597 c 0
 20 605 24 613 41 615 c 0
 119 623 174 665 188 665 c 0
 204 665 205 659 205 644 c 0
 205 629 200 588 200 576 c 2xb8
200 108 m 2
 200 63 228 37 277 37 c 0
 355 37 433 103 433 189 c 0
 433 266 386 303 359 318 c 0
 341 328 305 343 255 343 c 0
 225 343 200 335 200 307 c 2
 200 108 l 2
EndSplineSet
EndChar

StartChar: uni0186
Encoding: 390 390 2177
Width: 640
VWidth: 0
Flags: W
HStem: -15 39<209.887 378.196> 628 35<209.169 367.802>
VStem: 46 85<86.2562 196.184> 521 99<229.813 449.5>
LayerCount: 3
Fore
SplineSet
46 137 m 0
 46 172 51 206 83 206 c 0
 108 206 131 181 131 149 c 0
 131 108 164 24 309 24 c 0
 445 24 521 209 521 332 c 0
 521 462 435 628 294 628 c 0
 182 628 109 549 83 498 c 0
 77 487 63 484 58 480 c 0
 57 479 57 479 56 479 c 0
 52 479 49 488 49 497 c 0
 49 500 50 503 50 505 c 0
 54 530 68 586 83 609 c 0
 88 617 107 620 132 630 c 0
 168 644 254 663 330 663 c 0
 497 663 620 550 620 353 c 0
 620 173 485 -15 291 -15 c 0
 123 -15 46 73 46 137 c 0
EndSplineSet
Validated: 1
EndChar

StartChar: uni0187
Encoding: 326 391 2158
Width: 640
VWidth: 0
Flags: W
HStem: -15 31<326.024 481.156> 632 31<314.682 483.324> 678 47<619.979 697.378>
VStem: 46 100<217.847 434.419> 576 37<473.764 560.679>
LayerCount: 3
Fore
SplineSet
605 603 m 0
 609 576 612 546 613 494 c 0
 614 485 612 470 602 471 c 0
 591 472 580 485 576 508 c 1
 571 548 553 570 541 581 c 0
 531 591 486 632 394 632 c 8
 247 632 146 494 146 347 c 8
 146 184 244 16 400 16 c 0
 512 16 560 86 586 137 c 0
 592 148 606 152 611 156 c 0
 612 157 612 157 613 157 c 0
 617 157 620 147 620 138 c 0
 620 135 619 132 619 130 c 0
 615 105 601 49 586 26 c 0
 581 18 561 16 537 5 c 0
 503 -11 429 -15 369 -15 c 8
 187 -15 46 141 46 323 c 0
 46 517 216 663 410 663 c 0
 442 663 498 657 516 651 c 0
 518 650 550 639 566 639 c 0
 571 639 574 640 575 643 c 0
 591 704 639 725 681 725 c 0
 714 725 739 712 752 696 c 0
 758 689 760 683 760 677 c 0
 760 655 742 636 723 636 c 0
 696 636 703 678 654 678 c 0
 632 678 616 652 609 639 c 0
 605 632 604 624 604 617 c 0
 604 612 605 607 605 603 c 0
EndSplineSet
Validated: 1
EndChar

StartChar: uni018A
Encoding: 329 394 2170
Width: 723
VWidth: 0
Flags: W
HStem: -7 35<30.0745 112.208 204.8 471.36> 459 21G<-5.5 16> 624 32<224.025 412.553>
VStem: -46 66<522.531 590.4> 129 81<55.2312 611.929> 593 95<212.71 463.494>
LayerCount: 3
Fore
SplineSet
129 550 m 2
 129 597 126 613 96 613 c 0
 66 613 20 582 20 557 c 0
 20 524 54 525 54 502 c 0
 54 478 24 459 8 459 c 0
 -19 459 -46 500 -46 537 c 0
 -46 627 69 656 308 656 c 0
 569 656 688 556 688 353 c 0
 688 135 562 -7 371 -7 c 0
 351 -7 242 0 163 0 c 0
 123 0 111 -5 58 -5 c 0
 41 -5 29 -2 29 6 c 0
 29 15 39 20 62 24 c 0
 112 33 129 51 129 99 c 2
 129 550 l 2
593 323 m 0
 593 496 521 624 297 624 c 0
 221 624 210 611 210 551 c 2
 210 121 l 2
 210 80 222 58 245 44 c 0
 271 29 362 28 387 28 c 0
 535 28 593 154 593 323 c 0
EndSplineSet
Validated: 1
EndChar

StartChar: uni018B
Encoding: 395 395 2107
Width: 568
VWidth: 0
Flags: W
HStem: -4 28<220.399 332.868 482.48 558.099> 342 33<189.965 326.083> 611 39<147.086 362.186> 622 31<470.559 546.926>
VStem: 45 90<99.4294 262.928> 97 38<521.051 598.848> 368 80<49.125 311.592 357.014 605.956>
LayerCount: 3
Fore
SplineSet
45 178 m 0xda
 45 294 152 375 273 375 c 0
 308 375 334 369 351 359 c 0
 354 357 359 357 361 357 c 0
 368 357 368 376 368 408 c 2
 368 576 l 2
 368 588 350 611 339 611 c 2
 207 611 l 2
 148 611 143 599 135 547 c 0
 133 536 118 519 111 519 c 0
 106 519 97 526 97 540 c 0
 97 573 104 598 105 641 c 0
 105 645 108 655 115 655 c 0
 121 655 151 650 154 650 c 2
 402 650 l 10xe6
 448 650 465 653 519 653 c 0
 536 653 548 650 548 642 c 0
 548 633 538 626 515 622 c 0
 465 613 448 597 448 550 c 2
 448 98 l 2
 448 51 476 33 526 24 c 0
 549 20 559 15 559 6 c 0
 559 -2 547 -5 530 -5 c 0
 476 -5 467 4 425 4 c 0
 381 4 284 -4 264 -4 c 0
 124 -4 45 68 45 178 c 0xda
368 108 m 2
 368 260 l 2
 368 322 304 342 252 342 c 0
 219 342 192 331 177 317 c 0
 154 295 135 275 135 198 c 0xca
 135 92 193 24 288 24 c 0
 337 24 368 63 368 108 c 2
EndSplineSet
Validated: 1
EndChar

StartChar: uni018C
Encoding: 331 396 2171
Width: 506
VWidth: 0
Flags: W
HStem: -19 50<184.419 289.304> 21 24<433.943 503.841> 379 35<175.114 291.457> 659 37<171.976 346.404> 684 20G<429 438>
VStem: 35 74<111.575 287.804> 113 33<586.591 627.258> 352 70<62.7966 323.828 384.004 655.456>
LayerCount: 3
Fore
SplineSet
204 696 m 2xb7
 371 696 l 1xb7
 398 697 422 704 436 704 c 0
 440 704 451 692 451 687 c 0
 451 675 422 652 422 562 c 2
 422 110 l 2
 422 68 427 45 443 45 c 0
 453 45 479 46 489 48 c 0
 494 49 504 47 504 35 c 0
 504 24 495 21 490 21 c 0x6f
 438 14 402 -1 373 -13 c 0
 369 -15 355 -19 349 -19 c 0
 345 -19 346 -18 346 -15 c 0
 346 -2 351 34 351 51 c 2
 351 57 l 1
 331 26 286 -14 220 -14 c 0
 106 -14 35 89 35 190 c 0
 35 306 120 414 260 414 c 0
 288 414 332 400 338 393 c 0
 342 388 346 384 348 384 c 0
 351 384 352 390 352 408 c 2
 352 623 l 2
 352 639 336 659 317 659 c 2
 198 659 l 2
 180 659 166 632 146 606 c 0
 141 600 129 581 119 581 c 0
 110 581 109 595 113 603 c 0
 121 622 130 668 130 693 c 0
 130 703 141 711 145 711 c 0
 148 711 154 707 160 702 c 0
 166 697 185 696 204 696 c 2xb7
229 379 m 0
 190 379 109 347 109 213 c 0
 109 62 213 31 257 31 c 0
 313 31 352 72 352 120 c 2
 352 255 l 2
 352 311 307 379 229 379 c 0
EndSplineSet
Validated: 1
EndChar

StartChar: uni018E
Encoding: 398 398 2105
Width: 535
VWidth: 0
Flags: W
HStem: -5 40<92.6095 326.562> -5 29<448.075 524.308> 320 32<180.906 336.914> 388 20G<142.5 147.5> 618 35<114.141 332.41 433.753 515.827>
VStem: 57 25<526.084 573.315> 133 32<253.771 304.565> 338 80<44.9696 319.486 352 605.889>
LayerCount: 3
Fore
SplineSet
338 102 m 2xbf
 338 294 l 2
 338 317 327 320 304 320 c 2
 211 320 l 2
 194 320 175 306 165 275 c 0
 163 268 155 252 142 252 c 16
 134 252 133 260 133 269 c 0
 133 277 135 317 135 337 c 0
 135 353 132 383 132 392 c 0
 132 402 140 408 145 408 c 0
 150 408 161 396 163 391 c 0
 173 368 195 352 224 352 c 2
 320 352 l 2
 330 352 338 362 338 374 c 2
 338 586 l 2
 338 605 313 618 302 618 c 2
 171 618 l 2
 146 618 123 612 104 591 c 0
 95 581 89 558 82 536 c 0
 80 529 78 526 71 526 c 0
 65 526 57 529 57 541 c 0
 57 568 65 606 72 644 c 0
 73 651 83 653 90 653 c 0
 100 653 221 650 312 650 c 0
 382 650 414 653 489 653 c 0
 506 653 518 650 518 642 c 0
 518 633 508 626 485 622 c 0
 435 613 418 597 418 549 c 2
 418 99 l 2
 418 51 442 33 492 24 c 0
 515 20 525 15 525 6 c 0
 525 -2 513 -5 496 -5 c 0
 442 -5 426 1 381 1 c 16
 281 1 182 -5 54 -5 c 16x7f
 46 -5 42 3 40 12 c 0
 33 38 23 97 23 115 c 0
 23 123 29 125 36 126 c 8
 43 127 46 124 50 116 c 0
 58 99 74 67 92 53 c 0
 105 43 118 35 168 35 c 2
 272 35 l 2
 317 35 338 51 338 102 c 2xbf
EndSplineSet
EndChar

StartChar: uni018F
Encoding: 399 399 2160
Width: 640
VWidth: 0
Flags: W
HStem: -15 39<199.395 369.38> 266 51<112.811 510.731> 628 35<199.904 370.11>
VStem: 20 81<116.959 255.067> 521 99<324.142 459.391>
LayerCount: 3
Fore
SplineSet
288 24 m 0
 390 24 489 97 510 233 c 0
 511 238 511 242 511 246 c 0
 511 258 508 266 499 266 c 2
 156 266 l 2
 122 266 101 240 101 206 c 0
 101 108 169 24 288 24 c 0
20 212 m 0
 20 259 82 317 156 317 c 2
 503 317 l 2
 518 317 521 334 521 350 c 0
 521 356 520 361 520 366 c 0
 503 527 424 628 283 628 c 0
 171 628 109 549 83 498 c 0
 77 487 63 484 58 480 c 0
 57 479 57 479 56 479 c 0
 52 479 49 488 49 497 c 0
 49 500 50 503 50 505 c 0
 54 530 68 586 83 609 c 0
 88 617 107 620 132 630 c 0
 168 644 254 663 330 663 c 0
 497 663 620 538 620 341 c 0
 620 161 456 -15 262 -15 c 0
 230 -15 168 -9 150 -3 c 0
 69 24 20 108 20 212 c 0
EndSplineSet
EndChar

StartChar: florin
Encoding: 337 402 2103
Width: 307
VWidth: 0
Flags: W
HStem: -288 37<-19.5386 57.8539> 352 48<162.009 307.239> 352 24<31.5614 63.3357> 665 41<227.753 333.269>
VStem: 90 72<-156.096 350 400.148 546.953>
LayerCount: 3
Fore
SplineSet
162 478 m 2xb8
 162 422 l 2
 162 404 174 400 187 400 c 10
 305 400 l 18
 308 400 309 395 309 389 c 0
 309 375 303 352 296 352 c 10
 202 352 l 18xd8
 166 352 162 345 162 335 c 2
 162 82 l 2
 162 -21 158 -128 143 -173 c 0
 114 -259 55 -288 1 -288 c 0
 -39 -288 -97 -272 -97 -249 c 0
 -97 -219 -81 -193 -59 -193 c 0
 -35 -193 -27 -251 16 -251 c 0
 41 -251 68 -234 78 -199 c 0
 90 -158 90 -43 90 60 c 2
 90 350 l 1
 77 350 59 350 38 352 c 0
 32 353 23 374 31 376 c 0
 61 384 70 392 89 402 c 1
 89 633 222 706 309 706 c 0
 354 706 374 705 403 681 c 16
 414 672 419 659 419 646 c 0
 419 624 403 606 385 606 c 0
 358 606 344 665 267 665 c 0
 205 665 162 610 162 478 c 2xb8
EndSplineSet
Validated: 1
EndChar

StartChar: uni0193
Encoding: 403 403 2159
Width: 729
VWidth: 0
Flags: W
HStem: -14 37<313.609 497.379> 256 34<437.011 535.328 642.232 692.897> 625 38<306.718 509.484> 675 50<636.55 710.691>
VStem: 45 99<215.989 441.462> 560 65<72.2344 237.12> 594 38<492.515 555.614>
LayerCount: 3
Fore
SplineSet
632 512 m 0xfa
 632 502 625 492 617 492 c 8
 603 492 598 507 594 519 c 0xfa
 586 540 579 553 563 572 c 0
 550 588 499 625 404 625 c 8
 255 625 144 504 144 346 c 0
 144 186 239 23 398 23 c 0
 475 23 520 51 534 60 c 0
 552 72 558 102 558 137 c 0
 558 154 560 177 560 195 c 0
 560 209 559 220 555 225 c 0
 538 247 477 256 457 256 c 0
 452 256 437 263 437 273 c 0
 437 283 452 290 457 290 c 8
 506 290 528 286 583 286 c 8
 618 286 636 290 672 290 c 0
 677 290 693 287 693 274 c 0
 693 265 677 257 672 256 c 0
 643 248 634 234 630 207 c 0
 626 178 625 157 625 132 c 2
 625 105 l 10xfc
 625 98 628 95 631 89 c 24
 635 82 644 77 644 72 c 0
 644 67 638 57 630 54 c 24
 541 23 478 -14 399 -14 c 8
 207 -14 45 137 45 329 c 16
 45 522 219 663 413 663 c 16
 463 663 559 644 575 640 c 0
 580 639 592 638 593 643 c 0
 610 704 662 725 704 725 c 0
 740 725 777 711 777 681 c 0
 777 659 757 625 738 625 c 0
 711 625 720 675 671 675 c 0
 649 675 634 652 627 639 c 0
 623 632 622 624 622 617 c 0
 622 612 623 607 623 603 c 0
 627 576 632 538 632 512 c 0xfa
EndSplineSet
Validated: 1
EndChar

StartChar: uni0194
Encoding: 339 404 2361
Width: 672
VWidth: 0
Flags: W
HStem: -286 47<286.474 349.128> 620 33<1.64938 63.9711 204.045 280.926 408.06 481.202 603.378 676.313>
VStem: 218 56<-230.541 -83.0286> 357 74<-227.145 -60.2197>
LayerCount: 3
Fore
SplineSet
289 72 m 2
 103 547 l 2
 89 584 67 610 33 620 c 0
 11 627 0 633 0 642 c 0
 0 650 12 653 29 653 c 0
 60 653 105 650 151 650 c 0
 191 650 233 652 253 652 c 0
 270 652 282 649 282 641 c 0
 282 632 272 625 249 621 c 0
 219 615 186 598 186 580 c 0
 186 572 192 542 195 533 c 2
 322 197 l 2
 338 156 346 148 362 189 c 2
 499 547 l 2
 501 551 507 575 507 579 c 0
 507 595 464 613 440 620 c 0
 426 624 407 631 407 640 c 0
 407 648 419 651 436 651 c 0
 462 651 497 650 535 650 c 0
 574 650 623 653 649 653 c 0
 666 653 678 650 678 642 c 0
 678 633 668 627 645 622 c 0
 596 611 561 571 547 535 c 2
 379 95 l 2
 371 76 373 69 384 41 c 0
 425 -65 431 -87 431 -155 c 0
 431 -224 376 -286 305 -286 c 0
 247 -286 218 -237 218 -174 c 0
 218 -139 243 -64 290 42 c 0
 296 54 294 59 289 72 c 2
310 -28 m 0
 294 -65 274 -119 274 -161 c 0
 274 -206 290 -239 316 -239 c 0
 344 -239 357 -215 357 -173 c 0
 357 -148 344 -83 325 -28 c 0
 322 -20 314 -20 310 -28 c 0
EndSplineSet
Validated: 33
EndChar

StartChar: uni0195
Encoding: 340 405 2173
Width: 693
VWidth: 0
Flags: W
HStem: -14 43<438.189 547.585> -3 27<20.0556 71.3797 166.237 215.003> 362 52<227.089 339.5> 685 20G<155 159>
VStem: 85 70<32.0327 331.372 351.291 626.703> 343 70<53.875 327.903> 608 70<134.334 294.601>
LayerCount: 3
Fore
SplineSet
608 218 m 0xbe
 608 313 520 360 520 370 c 0
 520 389 560 414 577 414 c 0
 596 414 678 357 678 249 c 0
 678 132 609 -14 459 -14 c 0xbe
 403 -14 343 45 343 114 c 2
 343 272 l 10
 343 319 298 362 261 362 c 0
 236 362 201 351 182 336 c 0
 161 319 155 309 155 268 c 2
 155 65 l 1
 156 38 173 30 193 24 c 0
 204 20 216 16 216 6 c 0
 216 -2 204 -3 196 -3 c 0
 195 -3 194 -3 193 -3 c 0
 154 -3 155 2 120 2 c 0
 85 2 81 -3 42 -3 c 0
 41 -3 40 -3 39 -3 c 0
 32 -3 19 -2 19 6 c 0
 19 16 31 20 42 24 c 0x7e
 62 30 84 38 85 65 c 1
 85 566 l 2
 85 602 74 632 40 639 c 0
 35 640 32 646 32 652 c 0
 32 658 35 663 39 664 c 0
 90 676 123 692 155 704 c 0
 156 704 157 705 157 705 c 1
 161 705 162 701 164 698 c 1
 164 686 155 669 155 562 c 2
 155 388 l 2
 155 376 158 357 163 351 c 1
 194 374 247 414 310 414 c 0
 369 414 413 372 413 294 c 2
 413 114 l 2
 413 67 445 29 489 29 c 0
 595 29 608 124 608 218 c 0xbe
EndSplineSet
Validated: 1
EndChar

StartChar: uni0196
Encoding: 406 406 2378
Width: 375
VWidth: 0
Flags: W
HStem: -11 45<232.687 321.035> 622 31<31.0745 107.441 235.205 312.926>
VStem: 130 80<57.874 604.158>
LayerCount: 3
Fore
SplineSet
210 179 m 2
 210 76 228 34 275 34 c 0
 312 34 346 84 361 84 c 0
 369 84 375 80 375 57 c 0
 375 43 327 -11 247 -11 c 0
 169 -11 130 42 130 120 c 2
 130 550 l 2
 130 597 113 613 63 622 c 0
 40 626 30 633 30 642 c 0
 30 650 42 653 59 653 c 0
 113 653 130 650 176 650 c 24
 219 650 231 653 285 653 c 0
 302 653 314 650 314 642 c 0
 314 633 304 626 281 622 c 0
 231 613 210 597 210 550 c 2
 210 179 l 2
EndSplineSet
Validated: 1
EndChar

StartChar: uni0197
Encoding: 407 407 2174
Width: 340
VWidth: 0
Flags: W
HStem: -5 29<19.6924 97.1038 243.602 321.308> 317 36<44.3505 296.42> 622 31<31.0745 107.441 235.205 312.926>
VStem: 130 80<46.75 604.158>
LayerCount: 3
Fore
SplineSet
67 353 m 26
 284 353 l 18
 290 353 297 347 297 341 c 0
 297 321 281 317 266 317 c 26
 57 317 l 26
 50 317 43 323 43 329 c 0
 43 338 54 353 67 353 c 26
EndSplineSet
Refer: 33 73 N 1 0 0 1 0 0 2
EndChar

StartChar: uni0198
Encoding: 408 408 2176
Width: 681
VWidth: 0
Flags: W
HStem: -5 29<31.6924 105.863 244.783 312.308 608.044 687.308> 323 22<211.264 231.838> 621 46<518.472 582.401> 622 31<32.0745 108.441 226.967 296.926>
VStem: 131 80<50.6023 322.99 345.01 605.863> 583 71<533.412 619.926>
LayerCount: 3
Fore
SplineSet
654 575 m 0xec
 654 528 611 511 593 511 c 0
 582 511 572 522 572 539 c 0
 572 549 583 576 583 588 c 0
 583 602 583 621 559 621 c 0xec
 539 621 516 600 473 558 c 1
 473 558 362 448 298 371 c 24
 293 365 296 360 303 353 c 2
 545 95 l 1
 588 47 598 36 655 24 c 0
 678 19 688 15 688 6 c 0
 688 -2 676 -5 659 -5 c 0
 600 -5 575 0 520 0 c 0
 495 0 484 -1 439 -1 c 0
 422 -1 410 2 410 10 c 0
 410 19 418 23 437 27 c 0
 457 32 465 39 465 47 c 0
 465 55 458 63 450 72 c 2
 238 306 l 26
 231 314 220 323 215 323 c 0
 210 323 211 309 211 302 c 0
 211 239 213 190 216 110 c 0
 218 67 230 33 280 24 c 0
 303 20 313 15 313 6 c 0
 313 -2 301 -5 284 -5 c 0
 230 -5 224 2 186 2 c 24
 137 2 114 -5 60 -5 c 0
 43 -5 31 -2 31 6 c 0
 31 15 41 20 64 24 c 0
 114 33 131 51 131 101 c 2
 131 551 l 2
 131 597 114 613 64 622 c 0
 41 626 31 633 31 642 c 0
 31 650 43 653 60 653 c 0
 114 653 128 651 172 651 c 24
 210 651 215 653 269 653 c 0
 286 653 298 650 298 642 c 0
 298 633 288 626 265 622 c 0xdc
 215 613 211 590 211 551 c 2
 211 364 l 2
 211 359 211 345 216 345 c 0
 223 345 236 355 243 363 c 2
 426 567 l 1
 488 631 531 667 578 667 c 0
 623 667 654 645 654 575 c 0xec
EndSplineSet
Validated: 1
EndChar

StartChar: uni019F
Encoding: 350 415 2134
Width: 763
VWidth: 0
Flags: W
HStem: -14 39<308.828 487.027> 276 77<380.585 532.196> 320 77<238.654 373.8> 625 39<289.881 468.848>
VStem: 45 97<258.21 444.186> 621 97<206.698 409.656>
LayerCount: 3
Fore
SplineSet
45 320 m 0xbc
 45 501 166 664 390 664 c 0
 564 664 718 532 718 335 c 0
 718 155 601 -14 382 -14 c 0
 205 -14 45 130 45 320 c 0xbc
375 625 m 0
 227 625 142 490 142 350 c 0
 142 332 143 314 145 297 c 1
 173 328 253 397 290 397 c 0xbc
 336 397 410 353 489 353 c 0xdc
 526 353 589 392 612 405 c 1
 586 539 505 625 375 625 c 0
618 366 m 1
 588 334 515 276 477 276 c 0xdc
 429 276 327 320 273 320 c 0
 230 320 160 269 151 265 c 1
 179 131 272 25 395 25 c 0
 545 25 621 134 621 305 c 0
 621 326 620 346 618 366 c 1
EndSplineSet
Validated: 1
EndChar

StartChar: Ohorn
Encoding: 351 416 287
Width: 778
VWidth: 0
Flags: W
HStem: -14 39<309.694 487.027> 547 42<653.863 719.472> 625 39<286.978 469.205>
VStem: 45 97<219.261 447.814> 621 97<206.698 451.272> 721 56<595.766 672.5>
AnchorPoint: "cedilla" 412 8 basechar 0
AnchorPoint: "ogonek" 520 18 basechar 0
AnchorPoint: "below_accent" 370 -100 basechar 0
AnchorPoint: "top_accent" 383 700 basechar 0
LayerCount: 3
Back
SplineSet
375 625 m 4
 227 625 142 490 142 350 c 4
 142 179 247 25 395 25 c 4
 545 25 621 134 621 305 c 4
 621 495 535 625 375 625 c 4
45 320 m 4
 45 501 166 664 390 664 c 4
 564 664 718 532 718 335 c 4
 718 155 601 -14 382 -14 c 4
 205 -14 45 130 45 320 c 4
EndSplineSet
Fore
SplineSet
667 547 m 0
 653 547 651 539 654 534 c 0
 694 474 718 421 718 335 c 0
 718 155 601 -14 382 -14 c 0
 205 -14 45 130 45 320 c 0
 45 500 163 664 382 664 c 0
 523 664 587 608 629 598 c 0
 636 596 662 589 670 589 c 0
 695 589 721 601 721 615 c 0
 721 647 679 630 679 663 c 0
 679 688 717 721 739 721 c 0
 757 721 777 684 777 661 c 0
 777 584 702 547 667 547 c 0
375 625 m 0
 227 625 142 490 142 350 c 0
 142 179 247 25 395 25 c 0
 545 25 621 134 621 305 c 0
 621 495 535 625 375 625 c 0
EndSplineSet
Validated: 1
EndChar

StartChar: ohorn
Encoding: 417 417 288
Width: 506
VWidth: 0
Flags: W
HStem: -14 30<203.025 317.686> 337 37<428.689 442.736> 383 31<177.889 291.789>
VStem: 35 82<109.934 279.37> 378 82<111.572 289.7> 446 60<375.435 435.285>
AnchorPoint: "ogonek" 337 18 basechar 0
AnchorPoint: "below_accent" 246 -100 basechar 0
AnchorPoint: "top_accent" 246 550 basechar 0
LayerCount: 3
Back
SplineSet
237 383 m 4
 201 383 173 374 149 343 c 4
 122 309 117 258 117 210 c 4
 117 111 175 16 255 16 c 4
 300 16 338 32 358 71 c 4
 374 102 378 150 378 189 c 4
 378 284 322 383 237 383 c 4
254 414 m 4
 370 414 460 321 460 213 c 4
 460 96 384 -14 234 -14 c 4
 122 -14 35 70 35 187 c 4
 35 298 131 414 254 414 c 4
EndSplineSet
Fore
SplineSet
237 383 m 0xf8
 201 383 173 374 149 343 c 0
 122 309 117 258 117 210 c 0
 117 111 175 16 255 16 c 0
 300 16 338 32 358 71 c 0
 374 102 378 150 378 189 c 0
 378 284 322 383 237 383 c 0xf8
460 213 m 0
 460 96 384 -14 234 -14 c 0
 122 -14 35 70 35 187 c 0
 35 298 131 414 254 414 c 0
 280 414 308 407 327 401 c 0
 358 390 405 374 420 374 c 0
 438 374 446 391 446 405 c 0
 446 421 428 435 417 439 c 0
 412 441 408 447 408 454 c 0
 408 472 435 497 465 497 c 0
 485 497 506 466 506 432 c 0xf4
 506 390 462 337 422 337 c 0
 417 337 421 327 424 323 c 0
 450 289 460 248 460 213 c 0
EndSplineSet
Validated: 1
EndChar

StartChar: uni01A2
Encoding: 418 418 2363
Width: 888
VWidth: 0
Flags: W
HStem: -286 29<567.692 645.104 791.602 869.308> -15 31<292.958 416.845> 612 38<569.838 671.868> 622 31<783.205 860.926> 632 31<292.841 427.286>
VStem: 41 100<189.154 426.553> 531 89<191.475 497.886> 678 80<-234.25 604.12>
LayerCount: 3
Fore
SplineSet
363 632 m 8xcf
 216 632 141 473 141 326 c 8
 141 177 209 16 365 16 c 0
 466 16 531 150 531 291 c 0
 531 457 507 632 363 632 c 8xcf
643 650 m 16xe7
 686 650 779 653 833 653 c 0
 850 653 862 650 862 642 c 0
 862 633 852 626 829 622 c 0xd7
 779 613 758 597 758 550 c 2
 758 -183 l 2
 758 -230 787 -248 837 -257 c 0
 860 -261 870 -266 870 -275 c 0
 870 -283 858 -286 841 -286 c 0
 787 -286 770 -281 724 -281 c 24
 674 -281 650 -286 596 -286 c 0
 579 -286 567 -283 567 -275 c 0
 567 -266 577 -261 600 -257 c 0
 650 -248 678 -230 678 -183 c 2
 678 550 l 2
 678 597 672 612 621 612 c 0xe7
 597 612 587 608 569 597 c 24
 562 593 561 583 565 578 c 0
 610 519 620 434 620 326 c 8
 620 158 525 -15 356 -15 c 0
 186 -15 41 120 41 302 c 0
 41 496 185 663 379 663 c 0xcf
 444 663 513 638 520 638 c 0
 530 638 595 650 643 650 c 16xe7
EndSplineSet
EndChar

StartChar: uni01A3
Encoding: 354 419 2364
Width: 648
VWidth: 0
Flags: W
HStem: -287 27<447.056 500.97 593.03 646.944> -14 38<204.516 324.037> 337 39<437.25 501.032> 382 32<198.653 309.59> 406 20G<566.5 584.5>
VStem: 35 82<108.761 280.438> 376 75<102.947 308.239> 512 70<-252.851 330.541>
LayerCount: 3
Fore
SplineSet
436 293 m 0xef
 440 280 451 244 451 204 c 0
 451 79 367 -14 235 -14 c 0
 131 -14 35 54 35 178 c 0
 35 319 135 414 282 414 c 0xf7
 316 414 369 401 385 396 c 0
 420 385 454 376 491 376 c 0
 528 376 550 426 583 426 c 0
 586 426 589 422 589 419 c 0
 589 407 582 373 582 283 c 2
 582 -222 l 2
 582 -249 605 -254 625 -260 c 0
 636 -264 648 -268 648 -278 c 0
 648 -286 635 -287 628 -287 c 0
 589 -287 582 -282 547 -282 c 0
 512 -282 505 -287 466 -287 c 0
 459 -287 446 -286 446 -278 c 0
 446 -268 458 -264 469 -260 c 0
 489 -254 512 -249 512 -222 c 2
 512 269 l 2
 512 308 496 337 473 337 c 0
 451 337 426 324 436 293 c 0xef
257 382 m 16
 185 382 117 320 117 205 c 0
 117 72 212 24 272 24 c 8
 350 24 376 117 376 195 c 16
 376 281 343 382 257 382 c 16
EndSplineSet
Validated: 33
EndChar

StartChar: uni01A4
Encoding: 420 420 2179
Width: 552
VWidth: 0
Flags: W
HStem: -5 29<24.6924 100.631 239.305 309.308> 254 26<258.396 359.545> 459 21G<2.5 24> 625 32<218.626 350.619>
VStem: -38 66<522.7 587.217> 130 80<45.1651 611.523> 449 88<384.194 545.892>
LayerCount: 3
Fore
SplineSet
308 254 m 0
 292 254 258 257 258 269 c 0
 258 275 265 280 272 280 c 2
 274 280 l 1
 281 279 287 279 294 279 c 0
 329 279 365 291 386 307 c 0
 433 343 449 407 449 467 c 0
 449 577 349 625 274 625 c 0
 236 625 210 616 210 586 c 2
 210 111 l 2
 210 63 227 33 277 24 c 0
 300 20 310 15 310 6 c 0
 310 -2 298 -5 281 -5 c 0
 227 -5 221 2 183 2 c 24
 132 2 107 -5 53 -5 c 0
 36 -5 24 -2 24 6 c 0
 24 15 34 20 57 24 c 0
 107 33 130 51 130 100 c 2
 130 548 l 2
 130 597 126 613 96 613 c 0
 66 613 28 582 28 557 c 0
 28 524 62 525 62 502 c 0
 62 478 32 459 16 459 c 0
 -11 459 -38 495 -38 532 c 0
 -38 622 97 657 232 657 c 0
 307 657 403 646 436 629 c 0
 471 611 537 570 537 484 c 0
 537 439 518 358 463 304 c 0
 422 264 356 254 308 254 c 0
EndSplineSet
Validated: 1
EndChar

StartChar: uni01A5
Encoding: 356 421 2109
Width: 519
VWidth: 0
Flags: W
HStem: -285 27<19.9975 73.9702 172.131 235.003> -14 31<195.568 322.672> 369 45<231.792 339.995> 676 30<208.703 273.114>
VStem: 85 70<-246.875 17.9674 46.5485 335.473 348.048 577.501> 404 80<127.023 298.226>
LayerCount: 3
Fore
SplineSet
157 357 m 2
 157 352 157 349 158 348 c 1
 177 367 257 414 320 414 c 0
 423 414 484 319 484 225 c 0
 484 106 385 -14 259 -14 c 0
 231 -14 179 0 159 18 c 1
 156 18 155 -27 155 -33 c 2
 155 -220 l 2
 155 -247 193 -252 213 -258 c 0
 224 -262 236 -266 236 -276 c 0
 236 -284 222 -285 214 -285 c 0
 175 -285 155 -280 120 -280 c 0
 85 -280 79 -285 40 -285 c 0
 33 -285 19 -284 19 -276 c 0
 19 -266 31 -262 42 -258 c 0
 62 -252 85 -247 85 -220 c 2
 84 462 l 2
 84 612 181 706 267 706 c 0
 300 706 331 702 344 686 c 0
 350 679 352 673 352 667 c 0
 352 645 334 622 315 622 c 0
 288 622 285 676 236 676 c 0
 193 676 157 609 157 500 c 2
 157 357 l 2
274 17 m 0
 313 17 404 59 404 193 c 0
 404 347 311 369 268 369 c 0
 234 369 207 359 182 340 c 0
 167 329 158 310 156 269 c 0
 156 252 155 229 155 205 c 0
 155 171 156 136 157 115 c 0
 158 97 162 60 181 42 c 0
 196 28 230 17 274 17 c 0
EndSplineSet
Validated: 1
EndChar

StartChar: uni01A8
Encoding: 424 424 2179
Width: 323
VWidth: 0
Flags: W
HStem: -14 29<133.992 230.193> 386 28<101.765 183.266>
VStem: 24 81<34.1966 146.248> 41 32<312.058 360.802> 208 80<267.067 369.827>
LayerCount: 3
Fore
SplineSet
139 386 m 0xe8
 106 386 75 354 73 330 c 0
 72 321 57 309 47 309 c 0
 43 309 41 310 41 313 c 0xd8
 41 341 46 376 58 391 c 1
 68 401 121 414 161 414 c 0
 242 414 288 383 288 326 c 0
 288 265 235 236 186 204 c 0
 153 183 105 152 105 101 c 0
 105 40 133 15 184 15 c 0
 219 15 257 40 264 74 c 0
 265 79 269 92 276 92 c 0
 284 92 293 89 293 83 c 0
 292 60 287 36 280 22 c 0
 274 9 219 -14 165 -14 c 0
 54 -14 24 44 24 89 c 0
 24 154 101 195 144 222 c 0
 176 242 208 268 208 308 c 0
 208 349 191 386 139 386 c 0xe8
EndSplineSet
EndChar

StartChar: uni01AA
Encoding: 426 426 2370
Width: 320
VWidth: 0
Flags: W
HStem: -288 28<277.496 347.593> -189 20G<411.5 426> 549 32<79.8953 164> 676 30<66.4728 129.399>
VStem: 6 51<597.891 671.029> 171 70<-219.875 550.714> 359 72<-248.392 -189.197>
LayerCount: 3
Fore
SplineSet
6 625 m 0
 6 678 63 706 116 706 c 0
 174 706 210 663 228 592 c 1
 248 597 266 604 281 612 c 0
 295 619 301 601 301 593 c 0
 301 587 272 575 234 565 c 1
 239 535 241 502 241 465 c 2
 241 -45 l 2
 241 -211 265 -260 309 -260 c 0
 345 -260 359 -238 359 -219 c 0
 359 -201 401 -169 422 -169 c 0
 430 -169 431 -182 431 -195 c 0
 431 -258 368 -288 289 -288 c 0
 211 -288 171 -211 171 -104 c 2
 171 500 l 2
 171 519 170 536 168 552 c 1
 152 550 137 549 123 549 c 0
 70 549 6 572 6 625 c 0
164 582 m 1
 153 642 129 676 98 676 c 0
 76 676 57 659 57 637 c 0
 57 599 99 581 137 581 c 0
 146 581 155 581 164 582 c 1
EndSplineSet
Validated: 1
EndChar

StartChar: uni01AD
Encoding: 429 429 2111
Width: 307
VWidth: 0
Flags: W
HStem: -14 55<175.024 262.227> 352 48<155.176 301.965> 352 24<21.0171 58.4493> 676 30<206.82 273.114>
VStem: 85 70<60.25 350 400.148 575.542>
LayerCount: 3
Fore
SplineSet
155 414 m 18xb8
 155 405 167 400 180 400 c 10
 294 400 l 18xd8
 299 400 302 388 302 376 c 0xb8
 302 364 299 352 294 352 c 10
 195 352 l 18xd8
 161 352 155 351 155 324 c 10
 155 135 l 18
 155 61 190 41 221 41 c 0
 260 41 280 48 296 60 c 0
 302 64 306 55 306 47 c 0
 306 36 250 -14 189 -14 c 0
 127 -14 85 22 85 105 c 10
 85 350 l 1
 72 350 54 350 33 352 c 0
 29 353 19 363 19 370 c 0
 19 373 24 375 26 376 c 0
 56 384 65 392 85 402 c 1
 85 465 l 2
 85 612 181 706 267 706 c 0
 300 706 331 702 344 686 c 0
 350 679 352 673 352 667 c 0
 352 645 334 622 315 622 c 0
 288 622 285 676 236 676 c 0
 193 676 158 609 155 500 c 1
 155 414 l 18xb8
EndSplineSet
Validated: 1
EndChar

StartChar: uni01AE
Encoding: 430 430 2182
Width: 670
VWidth: 0
Flags: W
HStem: -200 37<410.068 503.588> 604 38<106.512 292.507 378.966 603.53>
VStem: 296 80<-124.856 600.468> 531 84<-136.638 -73.7709> 619 35<517.175 586.637>
LayerCount: 3
Fore
SplineSet
296 -16 m 2
 296 557 l 2
 296 575 294 597 278 600 c 0
 259 604 238 604 204 604 c 2
 157 604 l 2
 125 604 89 591 75 565 c 0
 69 554 49 527 34 527 c 0
 29 527 27 533 27 540 c 0
 27 546 29 554 32 560 c 0
 50 598 57 629 63 671 c 0
 66 693 75 694 80 694 c 0
 85 694 99 673 105 662 c 0
 113 648 147 642 175 642 c 2
 556 642 l 2
 585 642 604 649 614 656 c 0
 634 670 649 692 664 692 c 0
 668 692 671 679 671 669 c 0
 671 666 670 662 670 660 c 0
 661 623 654 587 654 561 c 0
 654 557 654 553 654 549 c 0
 654 537 648 517 638 517 c 0
 628 517 624 532 619 558 c 0
 614 586 591 604 527 604 c 0
 475 604 410 602 392 600 c 0
 378 598 376 575 376 557 c 2
 376 43 l 2
 376 -123 403 -163 450 -163 c 0
 503 -163 531 -120 531 -101 c 0
 531 -83 586 -47 607 -47 c 0
 615 -47 615 -60 615 -73 c 0
 615 -159 524 -200 422 -200 c 0
 344 -200 296 -123 296 -16 c 2
EndSplineSet
Validated: 1
EndChar

StartChar: Uhorn
Encoding: 431 431 289
Width: 738
VWidth: 0
Flags: W
HStem: -14 50<312.955 480.757> 620 33<25.4669 83.9594 202.114 256.781 515.06 566.939>
VStem: 103 80<187.656 606.064> 588 57<326.698 605.503> 592 43<165.341 460.842> 730 52<654.618 724.5>
AnchorPoint: "ogonek" 490 18 basechar 0
AnchorPoint: "below_accent" 393 -100 basechar 0
AnchorPoint: "top_accent" 390 700 basechar 0
LayerCount: 3
Fore
SplineSet
684 724 m 0xf4
 684 743 715 777 744 777 c 0
 764 777 782 736 782 713 c 0
 782 655 734 624 676 609 c 8
 650 602 647 587 645 547 c 0xf4
 638 432 638 346 635 254 c 0
 630 99 524 -14 380 -14 c 16
 188 -14 103 128 103 322 c 2
 103 547 l 2
 103 595 79 614 57 620 c 0
 34 626 24 633 24 642 c 0
 24 650 36 653 53 653 c 0
 83 653 112 650 149 650 c 24
 180 650 208 652 229 652 c 0
 246 652 258 649 258 641 c 0
 258 632 247 628 225 621 c 0
 209 616 183 589 183 549 c 2
 183 294 l 10
 183 162 271 36 403 36 c 16
 530 36 592 144 592 300 c 0xec
 592 344 590 434 588 511 c 0
 587 562 575 612 547 620 c 0
 533 624 514 631 514 640 c 0
 514 648 526 651 543 651 c 0
 567 651 582 650 602 650 c 2
 697 650 l 18
 720 650 730 674 730 680 c 0
 730 699 684 699 684 724 c 0xf4
EndSplineSet
Validated: 1
EndChar

StartChar: uni01B2
Encoding: 369 434 2377
Width: 738
VWidth: 0
Flags: W
HStem: -14 50<278.202 444.794> 619 45<440.412 534.394> 620 33<25.4669 83.9594 202.114 256.781>
VStem: 103 80<141.25 606.064> 595 91<252.26 512.86>
LayerCount: 3
Fore
SplineSet
686 386 m 8xd8
 686 178 542 -14 334 -14 c 16
 173 -14 103 118 103 222 c 2
 103 547 l 2
 103 595 79 614 57 620 c 0
 34 626 24 633 24 642 c 0
 24 650 36 653 53 653 c 0xb8
 83 653 112 650 149 650 c 24
 180 650 208 652 229 652 c 0
 246 652 258 649 258 641 c 0
 258 632 247 628 225 621 c 0
 209 616 183 589 183 549 c 2
 183 253 l 2
 183 124 254 36 357 36 c 0
 506 36 595 199 595 336 c 8
 595 456 592 619 472 619 c 8
 429 619 425 538 397 538 c 0
 382 538 362 562 362 580 c 0
 362 640 432 664 492 664 c 16
 608 664 686 529 686 386 c 8xd8
EndSplineSet
Validated: 1
EndChar

StartChar: uni01B3
Encoding: 435 435 2183
Width: 655
VWidth: 0
Flags: W
HStem: -5 29<153.692 226.247 382.521 455.308> 620 46<536.055 592.398> 620 33<1.64938 59.1406 191.55 253.781>
VStem: 264 80<52.5 323.576> 593 69<529.389 619.201>
LayerCount: 3
Fore
SplineSet
487 538 m 0xd8
 433 455 415 425 369 346 c 0
 344 303 344 295 344 256 c 2
 344 108 l 2
 344 63 373 33 423 24 c 0
 446 20 456 15 456 6 c 0
 456 -2 444 -5 427 -5 c 0
 373 -5 356 0 310 0 c 24
 260 0 236 -5 182 -5 c 0
 165 -5 153 -2 153 6 c 0
 153 15 163 20 186 24 c 0
 236 33 264 60 264 108 c 2
 264 256 l 2
 264 283 244 321 239 330 c 2
 122 522 l 2
 107 546 67 610 33 620 c 0
 11 627 0 633 0 642 c 0
 0 650 12 653 29 653 c 0xb8
 59 653 100 650 146 650 c 24
 177 650 205 652 226 652 c 0
 243 652 255 649 255 641 c 0
 255 632 244 626 222 621 c 0
 203 616 190 611 190 596 c 0
 190 588 194 576 203 560 c 2
 295 395 l 2
 310 369 317 357 323 357 c 0
 331 357 338 367 356 395 c 0
 387 442 443 534 480 592 c 0
 494 614 541 666 588 666 c 0
 633 666 662 642 662 572 c 0
 662 525 621 510 603 510 c 0
 592 510 583 517 583 534 c 0
 583 544 593 575 593 587 c 0
 593 601 593 620 569 620 c 0
 549 620 507 569 487 538 c 0xd8
EndSplineSet
Validated: 1
EndChar

StartChar: uni01B4
Encoding: 436 436 2186
Width: 525
VWidth: 0
Flags: W
HStem: -285 60<17.1881 104.273> 378 27<6.05563 49.8994 156.238 193.003> 455 51<418.382 470.301>
LayerCount: 3
Fore
SplineSet
382 451 m 2
 393 479 431 506 460 506 c 8
 494 506 541 495 541 473 c 8
 541 442 520 406 500 406 c 0
 485 406 463 455 444 455 c 0
 428 455 416 430 412 421 c 10
 225 -13 l 2
 221 -22 170 -148 129 -244 c 0
 117 -271 93 -285 64 -285 c 8
 40 -285 13 -271 13 -249 c 8
 13 -233 20 -219 40 -219 c 0
 55 -219 69 -225 80 -225 c 0
 88 -225 94 -222 99 -214 c 0
 120 -178 161 -93 190 -16 c 0
 192 -10 193 -2 193 7 c 0
 193 18 192 28 189 36 c 2
 73 329 l 10
 63 353 48 372 28 378 c 0
 17 382 5 386 5 396 c 0
 5 404 18 405 25 405 c 0
 26 405 27 405 28 405 c 0
 67 405 63 400 98 400 c 0
 133 400 132 405 171 405 c 0
 172 405 173 405 174 405 c 0
 182 405 194 404 194 396 c 0
 194 386 182 382 171 378 c 0
 157 374 149 354 149 335 c 0
 149 327 150 319 153 312 c 2
 232 116 l 2
 238 102 241 103 247 117 c 2
 382 451 l 2
EndSplineSet
Validated: 1
EndChar

StartChar: uni01B5
Encoding: 372 437 2184
Width: 603
VWidth: 0
Flags: W
HStem: -2 38<180.367 479.543> 317 36<119.35 492.162> 604 42<110.395 431.997>
VStem: 36 37<506.312 565.979>
LayerCount: 3
Fore
SplineSet
142 353 m 26
 481 353 l 18
 487 353 494 347 494 341 c 0
 494 331 478 317 463 317 c 26
 132 317 l 26
 125 317 118 323 118 329 c 0
 118 338 129 353 142 353 c 26
EndSplineSet
Refer: 64 90 S 1 0 0 1 0 0 2
Validated: 5
EndChar

StartChar: uni01B6
Encoding: 438 438 2187
Width: 377
VWidth: 0
Flags: W
HStem: -5 40<126.777 296.375> 183 35<64.2861 324.425> 286 21<38.5 48> 364 37<95.9758 241.234> 396 20<67 70.5>
VStem: 37 33<291.591 332.258>
LayerCount: 3
Fore
SplineSet
87 218 m 26xe4
 313 218 l 18
 319 218 326 212 326 206 c 0
 326 196 310 183 295 183 c 26
 77 183 l 26
 70 183 63 189 63 195 c 0
 63 204 74 218 87 218 c 26xe4
EndSplineSet
Refer: 65 122 S 1 0 0 1 0 0 2
Validated: 5
EndChar

StartChar: uni01B7
Encoding: 439 439 2235
Width: 510
VWidth: 0
Flags: W
HStem: -14 31<161.898 286.402> 346 36<275.656 298.386> 605 45<110.293 354.99>
VStem: 35 44<90.8199 172.905 508.104 577.304> 370 90<111.45 272.84>
AnchorPoint: "top_accent" 250 710 basechar 0
LayerCount: 3
Fore
SplineSet
166 605 m 2
 133 605 91 584 73 535 c 0
 68 523 60 503 45 503 c 0
 39 503 36 508 36 514 c 0
 36 522 40 533 43 541 c 0
 50 562 66 610 70 652 c 0
 71 667 80 669 85 669 c 0
 90 669 100 663 110 655 c 0
 116 651 138 650 161 650 c 0
 169 650 176 650 183 650 c 2
 399 650 l 2
 419 650 435 653 445 653 c 0
 451 653 455 636 451 631 c 2
 270 393 l 18
 267 389 265 382 271 382 c 4
 371 382 460 321 460 205 c 4
 459 53 322 -14 201 -14 c 4
 147 -14 112 0 80 15 c 4
 67 21 49 34 46 52 c 4
 42 80 35 123 35 159 c 4
 35 167 45 174 55 174 c 4
 59 174 67 159 79 130 c 4
 107 60 163 17 218 17 c 4
 323 17 370 103 370 189 c 4
 370 266 319 346 237 346 c 4
 224 346 225 345 214 345 c 4
 200 345 191 348 191 361 c 4
 191 372 191 374 208 395 c 2
 345 570 l 2
 351 577 355 584 355 594 c 0
 355 604 341 605 325 605 c 2
 166 605 l 2
EndSplineSet
Validated: 1
EndChar

StartChar: uni01B8
Encoding: 440 440 2233
Width: 603
VWidth: 0
Flags: W
HStem: -14 35<221.563 361.215> 610 40<164.006 392.25> 638 20G<67.5 75>
VStem: 35 98<108.243 261.976> 220 106<351 402.088> 424 44<76.3131 158.905> 425 32<504.388 568.477>
LayerCount: 3
Fore
SplineSet
298 412 m 2xda
 323 377 326 375 326 361 c 0
 326 341 299 338 276 338 c 0
 266 338 258 339 252 339 c 0
 175 339 133 269 133 192 c 0
 133 106 197 21 286 21 c 0
 349 21 396 46 424 116 c 0
 436 145 444 160 448 160 c 0
 458 160 468 153 468 145 c 0xdc
 468 109 461 80 457 52 c 0
 454 34 436 21 423 15 c 0
 391 0 338 -14 257 -14 c 0
 151 -14 35 54 35 169 c 0
 35 285 116 340 174 359 c 0
 193 365 220 367 220 376 c 0
 220 377 219 378 218 380 c 2
 64 606 l 2
 63 608 46 636 46 638 c 0
 46 650 65 658 70 658 c 0xba
 80 658 152 650 157 650 c 2
 325 650 l 2
 340 650 394 652 398 655 c 0
 408 663 418 669 423 669 c 0
 428 669 436 667 438 652 c 0
 444 610 451 564 455 541 c 0
 456 534 457 526 457 519 c 0
 457 510 455 503 447 503 c 0
 432 503 430 523 425 535 c 0
 407 584 381 610 349 610 c 2
 187 610 l 2
 172 610 164 608 164 604 c 0
 164 600 169 586 188 564 c 1
 298 412 l 2xda
EndSplineSet
Validated: 1
EndChar

StartChar: uni01BB
Encoding: 378 443 2374
Width: 485
VWidth: 0
Flags: W
HStem: 3 58<130.691 411.369> 270 36<85.0087 448.296> 602 62<167.34 280.19>
VStem: 323 86<409.939 555.695>
LayerCount: 3
Fore
SplineSet
99 270 m 2
 90 270 85 282 85 288 c 0
 85 297 97 306 109 306 c 2
 436 306 l 2
 442 306 450 301 450 295 c 0
 450 280 429 270 418 270 c 2
 99 270 l 2
86 516 m 0
 82 509 75 502 69 502 c 0
 63 502 53 518 56 527 c 0
 66 554 139 664 254 664 c 0
 350 664 409 587 409 492 c 0
 409 444 372 365 336 321 c 0
 291 267 139 86 125 76 c 0
 116 70 130 65 138 64 c 0
 160 62 187 61 224 61 c 0
 262 61 302 62 338 64 c 0
 395 67 408 71 433 111 c 0
 438 119 447 130 460 133 c 16
 464 134 465 130 465 125 c 0
 465 122 465 118 464 115 c 0
 440 48 445 80 435 21 c 0
 431 0 424 -3 417 -3 c 2
 412 -3 l 1
 316 3 330 3 278 3 c 24
 183 3 130 3 34 -2 c 0
 29 -2 26 3 26 9 c 0
 26 15 29 22 34 28 c 2
 209 236 l 2
 239 267 323 356 323 476 c 0
 323 546 281 602 224 602 c 0
 157 602 97 539 86 516 c 0
EndSplineSet
Validated: 5
EndChar

StartChar: uni01BD
Encoding: 445 445 2398
Width: 416
VWidth: 0
Flags: W
HStem: -285 40<72.8539 206.771> -268 64<25.7402 73.0242> 93 40<143.948 232.918> 93 33<139.984 199.604> 269 21G<358 368> 361 39<163.31 324.5> 373 30<27.2031 73.3951>
VStem: 301 85<-150.393 16.6242> 343 32<269.789 337.693>
LayerCount: 3
Fore
SplineSet
139 139 m 6x0c80
 139 127 140 126 148 126 c 4x1c80
 155 126 171 133 201 133 c 12
 304 133 386 46 386 -57 c 20
 386 -194 262 -285 128 -285 c 16xa9
 117 -285 72 -284 42 -268 c 24
 27 -260 24 -246 24 -228 c 0
 24 -217 27 -204 38 -204 c 0x49
 56 -204 63 -221 80 -230 c 0
 100 -241 116 -245 128 -245 c 8
 222 -245 301 -171 301 -77 c 20
 301 7 254 93 170 93 c 20
 117 93 78 69 68 69 c 4
 54 69 64 86 63 87 c 5
 66 95 90 300 90 300 c 2
 95 339 77 366 44 373 c 0
 38 374 27 380 27 390 c 0
 27 398 45 403 49 403 c 0xab
 74 403 84 400 107 400 c 0
 109 400 256 400 309 400 c 0
 348 400 361 405 371 405 c 0
 372 405 379 401 379 395 c 0
 379 377 375 331 375 310 c 0
 375 292 374 269 362 269 c 0
 354 269 349 281 343 307 c 0
 338 329 315 360 294 360 c 0
 280 360 203 361 182 361 c 0
 164 361 161 334 160 323 c 2
 139 139 l 6x0c80
EndSplineSet
Validated: 33
EndChar

StartChar: uni01BF
Encoding: 382 447 2365
Width: 499
VWidth: 0
Flags: W
HStem: -285 27<19.9975 73.9702 172.131 235.003> 369 45<226.904 342.059> 406 20G<155.5 157.5>
VStem: 31 124<343.025 400.681> 85 70<-246.875 -56.7473 -20.0024 298.523> 369 82<189.278 340.826>
LayerCount: 3
Fore
SplineSet
85 -220 m 2xcc
 85 287 l 2xcc
 85 302 72 353 39 360 c 0
 34 361 31 367 31 373 c 0
 31 379 34 384 38 385 c 0
 89 397 122 412 154 425 c 0
 155 425 155 426 156 426 c 0xb4
 159 426 162 421 162 417 c 0
 162 405 155 358 155 342 c 0
 155 326 161 330 166 336 c 0
 202 378 235 414 318 414 c 0
 394 414 451 379 451 297 c 0
 451 162 358 50 178 -56 c 0
 164 -64 155 -71 155 -84 c 2
 155 -220 l 2
 155 -247 193 -252 213 -258 c 0
 224 -262 236 -266 236 -276 c 0
 236 -284 222 -285 214 -285 c 0
 175 -285 155 -280 120 -280 c 0
 85 -280 79 -285 40 -285 c 0
 33 -285 19 -284 19 -276 c 0
 19 -266 31 -262 42 -258 c 0
 62 -252 85 -247 85 -220 c 2xcc
369 257 m 0
 369 357 319 369 276 369 c 0
 235 369 155 308 155 226 c 2
 155 16 l 2
 155 -28 163 -28 176 -20 c 0
 276 46 369 157 369 257 c 0
EndSplineSet
Validated: 33
EndChar

StartChar: uni01C0
Encoding: 448 448 581
Width: 125
VWidth: 0
Flags: W
HStem: -14 21G<49 56.5> 684 20G<68 74.5>
VStem: 40 45<-11.6562 700.56>
LayerCount: 3
Fore
SplineSet
40 673 m 10
 40 690 65 704 71 704 c 0
 78 704 85 698 85 691 c 18
 85 10 l 10
 85 -6 61 -14 52 -14 c 0
 46 -14 40 -7 40 0 c 18
 40 673 l 10
EndSplineSet
Validated: 1
EndChar

StartChar: uni01C1
Encoding: 449 449 582
Width: 230
VWidth: 0
Flags: W
HStem: -14 21G<49 56.5 154 161.5> 684 20G<68 74.5 173 179.5>
VStem: 40 45<-11.6562 700.56> 145 45<-11.6562 700.56>
LayerCount: 3
Fore
SplineSet
40 673 m 10
 40 690 65 704 71 704 c 0
 78 704 85 698 85 691 c 18
 85 10 l 10
 85 -6 61 -14 52 -14 c 0
 46 -14 40 -7 40 0 c 18
 40 673 l 10
145 673 m 10
 145 690 170 704 176 704 c 0
 183 704 190 698 190 691 c 18
 190 10 l 10
 190 -6 166 -14 157 -14 c 0
 151 -14 145 -7 145 0 c 18
 145 673 l 10
EndSplineSet
EndChar

StartChar: uni01D6
Encoding: 470 470 300
Width: 527
VWidth: 0
Flags: H
LayerCount: 3
Back
SplineSet
432 415 m 1x1c
 434 415 l 2x1c
 443 415 451 405 446 397 c 0
 442 390 438 342 438 326 c 2
 438 114 l 2
 438 73 440 45 456 45 c 0
 466 45 492 46 502 48 c 0
 507 49 517 47 517 35 c 0
 517 24 508 21 503 21 c 0x6c
 451 14 415 -1 386 -13 c 0
 382 -15 368 -19 362 -19 c 0
 358 -19 359 -18 359 -15 c 0
 359 -2 364 34 364 51 c 2
 364 57 l 1
 312 6 261 -14 199 -14 c 0
 134 -14 85 27 85 105 c 2
 85 308 l 2
 85 337 72 353 42 365 c 0
 39 366 29 370 29 380 c 0
 29 393 39 396 44 397 c 0
 98 399 108 405 147 414 c 1
 157 415 162 410 161 400 c 0
 157 369 155 353 155 323 c 2
 155 128 l 2
 155 80 196 37 239 37 c 0
 273 37 298 38 323 57 c 0
 338 68 368 91 368 132 c 2
 368 315 l 2
 368 356 323 364 303 365 c 0
 298 365 280 368 280 382 c 0
 280 394 299 397 303 397 c 0xac
 404 402 396 405 432 415 c 1x1c
344 593 m 0
 369 593 394 568 394 543 c 0
 394 518 369 493 344 493 c 0
 319 493 294 518 294 543 c 0
 294 568 319 593 344 593 c 0
167 593 m 0
 192 593 217 568 217 543 c 0
 217 518 192 493 167 493 c 0
 142 493 117 518 117 543 c 0
 117 568 142 593 167 593 c 0
145 704 m 26
 368 704 l 18
 374 704 381 698 381 692 c 0
 381 670 369 654 350 654 c 26
 135 654 l 26
 128 654 121 660 121 666 c 0
 121 675 127 704 145 704 c 26
EndSplineSet
Fore
Refer: 2276 -1 N 1 0 0 1 71 164 2
Refer: 621 776 N 1 0 0 1 103 19 2
Refer: 15 117 N 1 0 0 1 0 0 3
MultipleSubs2: "CCMP_Precomp subtable" u uni0308 uni0304.stack
EndChar

StartChar: uni01D8
Encoding: 472 472 302
Width: 527
VWidth: 0
Flags: W
HStem: -19 56<186.992 285.45> 21 24<446.943 516.841> 365 32<29.0288 68.315 280.055 349.325> 395 20<414 438.5> 493 100<127.702 206.298 304.702 383.298>
VStem: 85 70<71.1627 353.726> 117 100<503.702 582.298> 294 100<503.702 582.298> 368 70<78.3695 352.26>
LayerCount: 3
Fore
SplineSet
275 626 m 0x08
 268.98 615.573 259 604 251 604 c 0
 242 604 242 608 242 617 c 0
 242 635 272.802 757.433 283 793 c 0
 286.308 804.535 300 811 308 811 c 0
 327 811 346 786 346 770 c 0
 346 760 295.565 661.62 275 626 c 0x08
EndSplineSet
Refer: 75 252 N 1 0 0 1 0 0 3
Validated: 1
EndChar

StartChar: uni01dd
Encoding: 412 477 2052
Width: 388
VWidth: 0
Flags: W
HStem: -14 31<139.533 236.267> 148 31<108.836 290.258> 362 52<103.724 232.812>
VStem: 21 81<45.1008 143.617> 291 77<116.423 299.15>
LayerCount: 3
Back
SplineSet
21 101 m 0xf4
 21 171 69 179 118 179 c 18
 273 179 l 2
 289 179 291 182 291 216 c 0
 291 296 242 362 167 362 c 16
 125 362 80 346 54 312 c 0
 51 309 48 307 45 307 c 0
 38 307 31 315 33 323 c 4xec
 43 358 103 414 195 414 c 8
 296 414 368 323 368 220 c 8
 368 102 286 -14 176 -14 c 0
 74 -14 21 52 21 101 c 0xf4
286 86 m 0
 293 99 299 148 277 148 c 2
 187 148 l 10
 158 148 135 147 114 143 c 0
 103 141 102 98 102 91 c 0xf4
 102 59 139 17 187 17 c 0
 243 17 274 64 286 86 c 0
EndSplineSet
Fore
SplineSet
21 101 m 0
 21 171 69 179 118 179 c 18
 273 179 l 2
 289 179 291 182 291 216 c 0
 291 296 242 362 167 362 c 16
 125 362 80 346 54 312 c 0
 51 309 48 307 45 307 c 0
 38 307 33 314 33 323 c 0
 33 348 99 414 195 414 c 8
 296 414 368 323 368 220 c 8
 368 102 286 -14 176 -14 c 0
 74 -14 21 52 21 101 c 0
286 86 m 0
 289 92 292 107 292 120 c 0
 292 135 289 148 277 148 c 2
 187 148 l 10
 158 148 135 147 114 143 c 0
 103 141 102 98 102 91 c 0
 102 59 139 17 187 17 c 0
 243 17 274 64 286 86 c 0
EndSplineSet
Validated: 1
EndChar

StartChar: uni01E4
Encoding: 484 484 2187
Width: 729
VWidth: 0
Flags: W
HStem: -14 37<315.229 500.441> 129 44<371.014 694.596> 256 34<437.011 535.328 642.232 692.897> 625 38<314.976 509.098>
VStem: 45 99<204.234 428.131> 560 65<72.4729 237.12> 594 38<492.515 554.786>
LayerCount: 3
Fore
SplineSet
393 173 m 26xf8
 683 173 l 18
 689 173 696 167 696 161 c 0
 696 141 682 129 665 129 c 26
 383 129 l 26
 376 129 369 135 369 141 c 0
 369 150 377 173 393 173 c 26xf8
EndSplineSet
Refer: 40 71 N 1 0 0 1 0 0 2
Validated: 5
EndChar

StartChar: uni01e5
Encoding: 485 485 2188
Width: 435
VWidth: 0
Flags: W
HStem: -290 40<134.447 273.592> -167 40<-11.1628 446.146> 106 35<160.286 250.345> 349 36<369.636 434.987> 386 30<159.333 245.007>
VStem: 11 71<-202.345 -114.769> 35 78<189.846 335.18> 40 59<20.5 79.9296> 295 70<204.204 340.478> 357 61<-156.447 -71.2873>
LayerCount: 3
Fore
SplineSet
11 -127 m 26xfc
 434 -127 l 18
 440 -127 448 -132 448 -138 c 0
 448 -139 447 -140 447 -141 c 8
 447 -157 432 -167 416 -167 c 26
 1 -167 l 26
 -6 -167 -13 -161 -13 -155 c 0
 -13 -146 -3 -127 11 -127 c 26xfc
EndSplineSet
Refer: 25 103 N 1 0 0 1 0 0 2
EndChar

StartChar: uni01F5
Encoding: 436 501 319
Width: 435
VWidth: 0
Flags: W
HStem: -290 40<134.447 273.592> 106 35<160.286 250.275> 349 36<369.636 434.987> 386 30<159.333 244.969> 456 21G<178.5 187> 643 20G<236 249.5>
VStem: 11 71<-202.345 -114.769> 35 78<189.846 335.18> 40 59<20.5 79.9296> 295 70<204.204 340.478> 357 61<-156.447 -71.2873>
LayerCount: 3
Fore
SplineSet
207 478 m 0xfc
 200.98 467.573 191 456 183 456 c 0
 174 456 174 460 174 469 c 0
 174 487 204.802 609.433 215 645 c 0
 218.308 656.535 232 663 240 663 c 0
 259 663 278 638 278 622 c 0
 278 612 227.565 513.62 207 478 c 0xfc
EndSplineSet
Refer: 25 103 N 1 0 0 1 0 0 3
Validated: 1
EndChar

StartChar: uni01F6
Encoding: 502 502 2189
Width: 693
VWidth: 0
Flags: W
HStem: -14 43<645.775 756.713> -5 29<37.6924 109.801 250.294 321.308> 302 48<210 522> 394 20G<792.5 810.5> 622 31<45.0745 116.701 235.842 309.926 424.074 496.241 617.262 686.926>
VStem: 130 80<53.5983 302 350 603.314> 522 80<77.1987 302 350 604.033> 819 82<142.369 296.952>
LayerCount: 3
Fore
SplineSet
602 171 m 2x7f
 602 72 653 29 697 29 c 0
 803 29 819 122 819 216 c 0
 819 311 752 341 752 355 c 0
 752 389 784 414 801 414 c 0
 820 414 901 357 901 249 c 0
 901 132 817 -14 667 -14 c 0xbf
 591 -14 522 31 522 139 c 2
 522 287 l 2
 522 294 523 302 517 302 c 2
 215 302 l 2
 210 302 210 299 210 291 c 2
 210 106 l 2
 210 64 243 32 289 24 c 0
 312 20 322 15 322 6 c 0
 322 -2 310 -5 293 -5 c 0
 239 -5 222 0 176 0 c 24
 133 0 120 -5 66 -5 c 0
 49 -5 37 -2 37 6 c 0
 37 15 47 20 70 24 c 0
 120 33 130 51 130 99 c 2
 130 551 l 2
 130 597 127 613 77 622 c 0
 54 626 44 633 44 642 c 0
 44 650 56 653 73 653 c 0
 127 653 136 650 176 650 c 24
 217 650 228 653 282 653 c 0
 299 653 311 650 311 642 c 0
 311 633 301 626 278 622 c 0
 228 613 210 590 210 551 c 2
 210 359 l 2
 210 351 218 350 224 350 c 2
 515 350 l 2
 520 350 522 353 522 362 c 2
 522 552 l 2
 522 588 506 613 456 622 c 0
 433 626 423 633 423 642 c 0
 423 650 435 653 452 653 c 0
 506 653 523 650 568 650 c 24
 604 650 605 653 659 653 c 0
 676 653 688 650 688 642 c 0
 688 633 678 626 655 622 c 0
 605 613 602 590 602 552 c 2
 602 171 l 2x7f
EndSplineSet
EndChar

StartChar: uni01F7
Encoding: 503 503 2379
Width: 559
VWidth: 0
Flags: W
HStem: -180 29<22.6924 100.398 249.207 325.308> 614 46<305.866 421.58> 622 31<45.0745 114.782>
VStem: 134 80<-127.375 92.2656 137.369 512.911 578.237 608.936> 464 92<387.826 563.556>
LayerCount: 3
Fore
SplineSet
252 103 m 0xd8
 226 88 214 78 214 46 c 2
 214 -79 l 2
 214 -121 243 -142 293 -151 c 0
 316 -155 326 -160 326 -169 c 0
 326 -177 314 -180 297 -180 c 0
 243 -180 226 -175 180 -175 c 24
 130 -175 105 -180 51 -180 c 0
 34 -180 22 -177 22 -169 c 0
 22 -160 32 -155 55 -151 c 0
 105 -142 134 -124 134 -76 c 2
 134 549 l 2
 134 588 127 613 77 622 c 0
 54 626 44 633 44 642 c 0
 44 650 56 653 73 653 c 0
 127 653 108 650 131 650 c 24
 159 650 148 653 202 653 c 0xb8
 219 653 219 650 219 642 c 0
 219 612 214 624 214 598 c 2
 214 579 l 2
 214 568 217 554 220 559 c 0
 262 620 317 660 396 660 c 16
 505 660 556 590 556 472 c 0
 556 342 388 185 252 103 c 0xd8
248 146 m 0
 372 236 464 303 464 448 c 16
 464 518 445 614 375 614 c 8xd8
 281 614 214 508 214 436 c 2
 214 167 l 2
 214 126 222 127 248 146 c 0
EndSplineSet
EndChar

StartChar: aeacute
Encoding: 509 509 1036
Width: 544
VWidth: 0
HStem: -14 46<100.5 201.473> -14 60<331.028 454.182> 365 49<153.551 239> 378 35<339.067 433.317> 456 21G<271.5 280> 643 20G<329 342.5>
VStem: 35 80<42.662 120.882 278.95 316.037> 241 69<67.832 171.994 243.909 350.475> 459 69<289.173 356.371>
LayerCount: 3
Fore
SplineSet
300 478 m 0x0f80
 293.98 467.573 284 456 276 456 c 0
 267 456 267 460 267 469 c 0
 267 487 297.802 609.433 308 645 c 0
 311.308 656.535 325 663 333 663 c 0
 352 663 371 638 371 622 c 0
 371 612 320.565 513.62 300 478 c 0x0f80
EndSplineSet
Refer: 1012 230 N 1 0 0 1 0 0 3
Validated: 1
EndChar

StartChar: uni021C
Encoding: 540 540 2386
Width: 507
VWidth: 0
Flags: W
HStem: -200 37<126.656 263.387> 633 31<159.411 272.14>
VStem: 334 94<419.889 576.785> 382 98<8.63778 202.962>
LayerCount: 3
Fore
SplineSet
162 -200 m 16xd0
 96 -200 45 -191 45 -170 c 0
 45 -143 63 -115 81 -115 c 0
 99 -115 125 -163 192 -163 c 8
 320 -163 382 -22 382 106 c 16xd0
 382 186 346 261 272 261 c 16
 208 261 172 225 157 225 c 0
 143 225 124 236 124 246 c 0
 124 256 149 275 161 280 c 0
 249 318 334 364 334 495 c 16
 334 565 291 633 221 633 c 8
 146 633 100 596 76 505 c 0
 73 490 55 480 50 480 c 0
 45 480 40 496 40 505 c 0
 40 540 44 563 50 597 c 0
 52 607 54 615 63 617 c 0
 107 628 179 664 240 664 c 8
 335 664 428 603 428 508 c 8xe0
 428 425 376 359 320 324 c 0
 315 321 314 314 320 314 c 8
 416 314 480 221 480 126 c 8
 480 -52 340 -200 162 -200 c 16xd0
EndSplineSet
Validated: 1
EndChar

StartChar: uni0222
Encoding: 546 546 2396
Width: 603
VWidth: 0
Flags: W
HStem: -14 39<225.897 395.76> 640 20G<196 241.5>
VStem: 45 97<102.096 223.185> 84 88<479.644 592.619> 451 80<476.026 595.573> 461 97<86.9701 207.645>
LayerCount: 3
Fore
SplineSet
142 178 m 4xe4
 142 91 216 25 303 25 c 0
 378 25 461 58 461 133 c 0
 461 236 368 279 275 322 c 1
 202 288 142 249 142 178 c 4xe4
325 390 m 1
 395 424 451 467 451 527 c 0
 451 618 364 640 364 650 c 0
 364 660 372 676 382 676 c 0
 427 676 531 647 531 557 c 0xd8
 531 462 460 411 381 372 c 1
 471 331 558 279 558 163 c 0
 558 38 415 -14 290 -14 c 0
 175 -14 45 33 45 148 c 0xe4
 45 251 144 301 235 345 c 1
 162 382 84 430 84 514 c 0
 84 607 155 660 237 660 c 0
 246 660 253 651 253 642 c 0
 253 632 172 623 172 543 c 0xd0
 172 468 244 425 325 390 c 1
EndSplineSet
Validated: 1
EndChar

StartChar: uni0223
Encoding: 482 547 2395
Width: 495
VWidth: 0
Flags: W
HStem: -14 30<193.407 310.681>
VStem: 35 82<86.4616 242.586> 64 74<517.155 635.441> 367 68<513.122 649.741> 378 82<99.4939 239.504>
LayerCount: 3
Fore
SplineSet
117 185 m 0xc8
 117 74 175 16 255 16 c 0
 335 16 378 89 378 172 c 0
 378 248 308 298 235 349 c 1
 171 298 117 247 117 185 c 0xc8
256 426 m 1
 315 470 367 512 367 560 c 4
 367 656 319 672 319 682 c 0
 319 694 327 706 337 706 c 0
 362 706 435 675 435 583 c 0xb0
 435 512 370 454 298 398 c 1
 379 343 460 286 460 196 c 0
 460 79 384 -14 234 -14 c 0
 122 -14 35 47 35 164 c 0xc8
 35 255 112 320 192 379 c 1
 124 427 64 481 64 558 c 0
 64 641 140 707 165 707 c 0
 181 707 183 696 183 686 c 0
 183 676 138 642 138 584 c 0xa0
 138 519 192 471 256 426 c 1
EndSplineSet
Validated: 1
EndChar

StartChar: uni0224
Encoding: 548 548 2192
Width: 603
VWidth: 0
Flags: W
HStem: -280 33<387.219 477.299> 0 40<168.002 487.115> 604 42<110.395 431.997>
VStem: 36 37<506.312 565.979> 534 75<-185.443 -43.0621>
LayerCount: 3
Fore
SplineSet
231 0 m 2
 191 0 150 -3 112 -3 c 2
 35 -3 l 9
 28 11 l 1
 28 21 63 73 86 104 c 0
 222 290 300 396 428 588 c 16
 430 591 432 593 432 596 c 0
 432 600 428 603 413 604 c 0
 377 605 320 606 267 606 c 0
 228 606 190 606 165 604 c 0
 133 602 91 584 73 535 c 0
 68 523 60 503 45 503 c 0
 39 503 36 508 36 514 c 0
 36 522 40 533 43 541 c 0
 50 562 66 610 70 652 c 0
 71 667 80 669 85 669 c 0
 90 669 100 663 110 655 c 0
 118 649 154 648 183 647 c 16
 235 646 283 646 328 646 c 0
 411 646 485 647 559 649 c 0
 565 649 574 636 570 631 c 2
 509 550 l 1
 371 364 298 261 171 70 c 16
 169 67 168 62 168 58 c 0
 168 50 171 40 179 40 c 2
 479 40 l 2
 567 40 609 -29 609 -103 c 8
 609 -203 523 -280 423 -280 c 16
 403 -280 387 -270 387 -262 c 0
 387 -253 406 -247 427 -247 c 8
 490 -247 534 -188 534 -125 c 8
 534 -61 503 0 426 0 c 2
 231 0 l 2
EndSplineSet
Validated: 1
EndChar

StartChar: uni0228
Encoding: 552 552 332
Width: 535
VWidth: 0
Flags: W
HStem: -275 53<209.107 310.871> -5 29<23.6924 99.9253> -1 36<223.214 301 332 455.39> 320 32<211.086 367.094> 388 20G<400.5 405.5> 618 35<32.1729 114.247 215.59 433.859>
VStem: 130 80<44.9696 319.486 352 605.889> 321 53<-216.671 -136.134> 383 32<253.771 304.565> 466 25<526.084 573.315>
LayerCount: 3
Fore
SplineSet
222 -115 m 0xdfc0
 222 -108 225 -104 228 -100 c 2
 301 -1 l 1xbfc0
 255 0 211 1 167 1 c 0
 122 1 106 -5 52 -5 c 0
 35 -5 23 -2 23 6 c 0
 23 15 33 20 56 24 c 0xdfc0
 106 33 130 51 130 99 c 2
 130 549 l 2
 130 597 113 613 63 622 c 0
 40 626 30 633 30 642 c 0
 30 650 42 653 59 653 c 0
 134 653 166 650 236 650 c 0
 327 650 448 653 458 653 c 0
 465 653 475 651 476 644 c 0
 483 606 491 568 491 541 c 0
 491 529 483 526 477 526 c 0
 470 526 468 529 466 536 c 0
 459 558 453 581 444 591 c 0
 425 612 402 618 377 618 c 2
 246 618 l 2
 235 618 210 605 210 586 c 2
 210 374 l 2
 210 362 218 352 228 352 c 2
 324 352 l 2
 353 352 375 368 385 391 c 0
 387 396 398 408 403 408 c 0
 408 408 416 402 416 392 c 0
 416 383 413 353 413 337 c 0
 413 317 415 277 415 269 c 0
 415 260 414 252 406 252 c 0
 393 252 385 268 383 275 c 0
 373 306 354 320 337 320 c 2
 244 320 l 2
 221 320 210 317 210 294 c 2
 210 102 l 2
 210 51 231 35 276 35 c 2
 380 35 l 2xbfc0
 430 35 443 43 456 53 c 0
 474 67 490 99 498 116 c 0
 502 124 505 127 512 126 c 0
 519 125 525 123 525 115 c 0
 525 97 515 38 508 12 c 0
 506 3 502 -5 494 -5 c 0
 435 -5 382 -3 332 -2 c 1
 298 -54 l 2
 293 -61 303 -68 308 -70 c 0
 336 -82 374 -112 374 -159 c 0
 374 -227 290 -275 245 -275 c 0
 210 -275 200 -258 200 -243 c 0
 200 -220 208 -209 216 -209 c 0
 224 -209 230 -222 279 -222 c 0
 296 -222 321 -212 321 -183 c 0
 321 -159 309 -129 274 -129 c 0
 262 -129 257 -132 248 -132 c 0
 231 -132 222 -121 222 -115 c 0xdfc0
EndSplineSet
EndChar

StartChar: uni0234
Encoding: 564 564 2193
Width: 323
VWidth: 0
Flags: W
HStem: -13 54<174.482 258.59> 135 40<170.123 269.02> 685 20G<155.5 157.5>
VStem: 9 35<-50.3316 4.29443> 85 70<147 627.687> 279 44<50.8292 125.929>
LayerCount: 3
Fore
SplineSet
85 566 m 0
 85 605 72 632 39 639 c 0
 34 640 31 646 31 652 c 0
 31 658 34 663 38 664 c 0
 89 676 122 692 154 704 c 0
 155 704 155 705 156 705 c 0
 159 705 162 701 162 698 c 0
 162 686 155 652 155 562 c 2
 155 147 l 1
 183 164 215 175 247 175 c 0
 286 175 323 156 323 103 c 0
 323 36 242 -13 189 -13 c 0
 143 -13 109 6 94 49 c 1
 72 23 53 -5 44 -29 c 0
 41 -37 35 -51 22 -51 c 0
 15 -51 9 -43 9 -35 c 0
 9 -15 38 42 85 91 c 1
 85 249 85 408 85 566 c 0
157 107 m 1
 165 56 194 41 221 41 c 0
 247 41 279 55 279 83 c 0
 279 122 251 135 225 135 c 0
 205 135 181 124 157 107 c 1
EndSplineSet
EndChar

StartChar: uni0235
Encoding: 500 565 2194
Width: 589
VWidth: 0
Flags: W
HStem: -13 54<440.482 524.59> -3 27<24.9975 78.5549 171.03 225.003> 135 40<436.123 535.02> 349 25<41.0133 72.6656> 365 49<231.152 329.184> 410 20G<159.5 161.5>
VStem: 41 119<348.549 397.23> 90 70<31.1488 336.45> 275 35<-50.3316 4.29443> 351 70<147 343.695> 545 44<50.8292 125.929>
LayerCount: 3
Fore
SplineSet
351 272 m 0xaae0
 351 330 328 365 275 365 c 0
 208 365 160 347 160 268 c 2
 160 62 l 2
 160 35 183 30 203 24 c 0
 214 20 226 16 226 6 c 0
 226 -2 214 -3 206 -3 c 0
 205 -3 204 -3 203 -3 c 0
 164 -3 160 2 125 2 c 0
 90 2 86 -3 47 -3 c 0
 46 -3 45 -3 44 -3 c 0
 36 -3 24 -2 24 6 c 0
 24 16 36 20 47 24 c 0
 67 30 89 35 90 62 c 1
 90 277 l 2x69e0
 90 313 83 342 49 349 c 0
 44 350 41 356 41 362 c 0x72e0
 41 367 43 373 48 374 c 0
 100 386 135 412 158 429 c 0
 159 430 159 430 160 430 c 0x75e0
 163 430 166 424 167 421 c 1
 167 411 160 373 160 356 c 0
 160 352 160 349 161 348 c 1
 190 372 253 414 316 414 c 0
 381 414 421 373 421 295 c 2
 421 147 l 1
 449 164 481 175 513 175 c 0
 552 175 589 156 589 103 c 0
 589 36 508 -13 455 -13 c 0
 409 -13 375 6 360 49 c 1
 338 23 319 -5 310 -29 c 0
 307 -37 301 -51 288 -51 c 0
 281 -51 275 -43 275 -35 c 0
 275 -15 304 42 351 91 c 1
 351 151 351 212 351 272 c 0xaae0
423 107 m 1
 431 56 460 41 487 41 c 0xa0e0
 513 41 545 55 545 83 c 0
 545 122 517 135 491 135 c 0
 471 135 447 124 423 107 c 1
EndSplineSet
Validated: 1
EndChar

StartChar: dotlessj
Encoding: 567 567 344
Width: 213
VWidth: 0
Flags: W
HStem: -287 27<-34.3848 3.48842> 352 25<17.0088 48.0645>
VStem: 71 73<-125.075 340.129>
AnchorPoint: "top_accent" 100 550 basechar 0
LayerCount: 3
Fore
SplineSet
144 275 m 2
 144 91 l 2
 144 29 143 -72 114 -152 c 0
 89 -220 26 -287 -14 -287 c 0
 -21 -287 -35 -284 -35 -277 c 0
 -35 -269 -26 -261 -24 -260 c 0
 0 -254 23 -237 42 -197 c 0
 71 -136 71 0 71 69 c 2
 71 279 l 2
 71 315 59 345 25 352 c 0
 20 353 17 359 17 365 c 0
 17 370 20 376 24 377 c 0
 91 393 136 434 144 434 c 0
 148 434 151 432 151 429 c 0
 147 388 144 320 144 275 c 2
EndSplineSet
Validated: 1
EndChar

StartChar: uni0238
Encoding: 568 568 2095
Width: 772
VWidth: 0
Flags: W
HStem: -14 45<184.419 298.086> -14 31<490.819 611.869> -2 21G<358 364.5> 379 35<175.114 291.457 490.606 592.59> 684 20G<415 424>
VStem: 35 74<111.575 287.804> 352 70<69.4872 323.828 384.18 628.506> 682 75<112.179 288.838>
LayerCount: 3
Fore
SplineSet
229 379 m 0x9f
 190 379 109 347 109 213 c 0
 109 62 213 31 257 31 c 0
 313 31 352 74 352 122 c 2
 352 255 l 2
 352 311 307 379 229 379 c 0x9f
559 17 m 0x5f
 635 17 682 94 682 195 c 0
 682 272 637 373 542 373 c 0
 514 373 465 362 443 338 c 0
 429 323 422 306 422 253 c 2
 422 132 l 2
 422 62 489 17 559 17 c 0x5f
422 388 m 2
 422 367 422 356 431 355 c 1
 477 406 543 414 577 414 c 0
 681 414 757 325 757 217 c 0
 757 100 685 -14 534 -14 c 0x5f
 472 -14 411 13 397 13 c 0
 385 13 367 -2 362 -2 c 0x3f
 354 -2 345 3 345 9 c 0
 345 11 351 34 351 51 c 2
 351 57 l 1
 331 26 286 -14 220 -14 c 0x9f
 106 -14 35 89 35 190 c 0
 35 306 120 414 260 414 c 0
 288 414 332 400 338 393 c 0
 342 388 346 384 348 384 c 0
 351 384 352 390 352 408 c 2
 352 566 l 2
 352 620 335 632 301 639 c 0
 296 640 293 646 293 652 c 0
 293 657 295 663 300 664 c 0
 373 681 408 704 422 704 c 0
 426 704 428 702 429 698 c 1
 429 686 422 652 422 562 c 2
 422 388 l 2
EndSplineSet
EndChar

StartChar: uni023A
Encoding: 570 570 2198
Width: 684
VWidth: 0
Flags: W
HStem: -5 36<-0.573315 70.1888 195.015 266.525 395.098 475.898 612.158 694.277> 244 43<241.006 430.907>
VStem: -2 178<4 93.5> 489 208<1 90.5> 607 1<700.048 703.952>
LayerCount: 3
Fore
SplineSet
106 -74 m 10xe8
 548 700 l 26
 557 717 575 717 594 717 c 16
 601 717 608 711 608 704 c 0
 608 703 607 701 607 700 c 10
 165 -74 l 26
 156 -90 139 -92 120 -92 c 16
 109 -92 105 -84 105 -77 c 0
 105 -76 103 -79 106 -74 c 10xe8
EndSplineSet
Refer: 31 65 N 1 0 0 1 0 0 2
Validated: 5
EndChar

StartChar: uni023C
Encoding: 507 572 2200
Width: 377
VWidth: 0
Flags: W
HStem: -14 52<188.967 300.34> 376 37<164.716 278.981> 444 20G<350 364.5>
VStem: 35 69<132.446 283.536>
LayerCount: 3
Fore
SplineSet
42 -41 m 10
 312 438 l 26
 323 457 339 464 361 464 c 16
 368 464 372 458 372 451 c 0
 372 446 365 432 361 424 c 10
 97 -47 l 26
 88 -63 71 -65 52 -65 c 16
 41 -65 37 -61 37 -54 c 0
 37 -53 39 -46 42 -41 c 10
EndSplineSet
Refer: 14 99 N 1 0 0 1 0 0 2
Validated: 5
EndChar

StartChar: uni023F
Encoding: 575 575 2203
Width: 323
VWidth: 0
Flags: W
HStem: -240 32<168.853 267.438> -16 29<133.718 200.895> 388 26<136.996 212.641>
VStem: 53 60<277.962 365.426> 225 68<36.8608 129.958> 239 40<312.953 369.5> 271 52<-197.572 -107.934>
LayerCount: 3
Fore
SplineSet
71 -22 m 0xf2
 65 -17 40 12 38 19 c 0
 34 34 31 60 30 83 c 0
 30 89 39 92 47 92 c 0
 54 92 61 90 62 85 c 0
 69 51 114 13 155 13 c 0
 203 13 225 43 225 83 c 0xf8
 225 119 193 143 149 174 c 0
 101 208 53 247 53 296 c 0
 53 353 89 414 187 414 c 0
 227 414 252 401 262 391 c 1
 274 376 279 341 279 313 c 0
 279 310 277 309 273 309 c 0
 263 309 239 321 239 330 c 0xf4
 238 358 209 388 176 388 c 0
 138 388 113 362 113 322 c 0
 113 282 166 251 198 231 c 0
 228 212 293 172 293 106 c 0xf8
 293 37 244 -16 133 -16 c 1
 178 -64 194 -208 243 -208 c 0
 267 -208 271 -190 271 -177 c 0
 271 -166 251 -148 251 -139 c 0
 251 -121 293 -89 314 -89 c 0
 322 -89 323 -107 323 -120 c 0
 323 -183 289 -240 217 -240 c 0
 121 -240 122 -70 71 -22 c 0xf2
EndSplineSet
Validated: 1
EndChar

StartChar: uni0241
Encoding: 577 577 2366
Width: 432
VWidth: 0
Flags: W
HStem: -5 29<41.6924 119.104 265.602 343.308> 626 38<130.301 246.97>
VStem: 6 82<511.5 575.144> 152 80<46.625 292.491> 306 90<418.382 569.71>
LayerCount: 3
Fore
SplineSet
232 97 m 2
 232 51 261 33 311 24 c 0
 334 20 344 15 344 6 c 0
 344 -2 332 -5 315 -5 c 0
 261 -5 244 0 198 0 c 24
 148 0 124 -5 70 -5 c 0
 53 -5 41 -2 41 6 c 0
 41 15 51 20 74 24 c 0
 124 33 152 51 152 97 c 2
 152 235 l 2
 152 298 219 333 239 349 c 0
 273 376 306 411 306 495 c 0
 306 564 257 626 188 626 c 16
 152 626 88 593 88 557 c 0
 88 517 51 496 26 496 c 0
 14 496 6 499 6 514 c 0
 6 575 83 664 206 664 c 8
 300 664 396 608 396 514 c 0
 396 399 324 353 275 324 c 0
 234 299 232 280 232 244 c 2
 232 97 l 2
EndSplineSet
Validated: 1
EndChar

StartChar: uni0245
Encoding: 581 581 2099
Width: 684
VWidth: 0
Flags: W
HStem: -5 36<-0.573315 70.1888 195.015 266.525 401.311 474.5 612.158 694.277>
LayerCount: 3
Fore
SplineSet
178 102 m 2
 176 97 176 92 176 87 c 0
 176 58 202 38 234 30 c 0
 257 24 267 19 267 10 c 0
 267 2 255 -1 238 -1 c 0
 220 -1 184 1 147 1 c 0
 103 1 60 -5 27 -5 c 0
 10 -5 -2 0 -2 8 c 0
 -2 17 9 24 31 31 c 0
 65 41 95 58 117 108 c 0
 192 279 237 393 304 578 c 0
 307 587 311 596 314 608 c 24
 317 619 316 635 318 636 c 0
 330 640 342 643 354 651 c 0
 368 660 370 676 375 676 c 0
 380 676 382 671 385 662 c 0
 449 459 530 223 563 128 c 0
 591 48 624 35 664 28 c 0
 687 24 697 14 697 5 c 0
 697 -3 685 -5 668 -5 c 0
 640 -5 574 1 529 1 c 0
 490 1 454 0 430 0 c 0
 413 0 401 3 401 11 c 0
 401 20 416 26 434 31 c 0
 474 41 485 54 485 76 c 0
 485 84 483 94 481 105 c 0
 474 139 350 541 350 541 c 2
 346 553 344 559 341 559 c 0
 339 559 337 553 333 542 c 2
 178 102 l 2
EndSplineSet
Validated: 1
EndChar

StartChar: uni0246
Encoding: 517 582 2205
Width: 535
VWidth: 0
Flags: W
HStem: -5 29<23.6924 99.9253> -5 40<221.438 455.39> 320 32<211.086 367.094> 388 20<400.5 405.5> 618 35<32.1729 114.247 215.59 433.859>
VStem: 130 80<44.9696 319.486 352 605.889> 383 32<253.771 304.565> 466 25<526.084 573.315> 533 1<700.048 703.952>
LayerCount: 3
Fore
SplineSet
32 -74 m 10x3f80
 474 700 l 26
 483 717 501 717 520 717 c 16
 527 717 534 711 534 704 c 0
 534 703 533 701 533 700 c 10
 91 -74 l 26
 82 -90 65 -92 46 -92 c 16
 35 -92 31 -84 31 -77 c 0
 31 -76 29 -79 32 -74 c 10x3f80
EndSplineSet
Refer: 35 69 N 1 0 0 1 0 0 2
Validated: 5
EndChar

StartChar: uni0248
Encoding: 584 584 2207
Width: 300
VWidth: 0
Flags: W
HStem: -200 42<24.1861 102.338> 292 44<2.01369 295.596> 622 31<32.1602 107.232 225.944 298.926>
VStem: 130 80<-76.2179 606.023>
LayerCount: 3
Fore
SplineSet
24 336 m 26
 284 336 l 18
 290 336 297 330 297 324 c 0
 297 304 283 292 266 292 c 26
 14 292 l 26
 7 292 0 298 0 304 c 0
 0 313 8 336 24 336 c 26
EndSplineSet
Refer: 42 74 S 1 0 0 1 0 0 2
Validated: 5
EndChar

StartChar: uni0249
Encoding: 585 585 2158
Width: 221
VWidth: 0
Flags: W
HStem: -287 27<-15.3848 22.4884> 176 44<13.1049 90 160 219.962> 352 25<36.0088 67.0645> 513 101<79.1171 161.823>
VStem: 70 101<522.117 604.823> 90 70<-125.075 176 220 340.129>
LayerCount: 3
Fore
SplineSet
70 563 m 0xf8
 70 592 92 614 120 614 c 0
 149 614 171 592 171 563 c 0
 171 535 149 513 120 513 c 0
 92 513 70 535 70 563 c 0xf8
160 176 m 1xf4
 160 91 l 2
 160 29 159 -72 130 -152 c 0
 105 -220 45 -287 5 -287 c 0
 -2 -287 -16 -284 -16 -277 c 0
 -16 -269 -7 -261 -5 -260 c 0
 19 -254 42 -237 61 -197 c 0
 90 -136 90 0 90 69 c 2
 90 176 l 1
 23 176 l 2
 17 176 12 182 12 188 c 0
 12 197 16 220 31 220 c 2
 90 220 l 1
 90 279 l 2
 90 315 78 345 44 352 c 0
 39 353 36 359 36 365 c 0
 36 370 39 376 43 377 c 0
 110 393 155 434 163 434 c 0
 167 434 170 432 170 429 c 0
 166 388 160 320 160 275 c 2
 160 220 l 1
 209 220 l 2
 214 220 221 214 221 208 c 0
 221 188 211 176 195 176 c 2
 160 176 l 1xf4
EndSplineSet
Validated: 1
EndChar

StartChar: uni024B
Encoding: 587 587 2208
Width: 522
VWidth: 0
Flags: W
HStem: -288 28<483.496 553.593> -189 20G<617.5 632> -14 38<204.516 336.195> 382 32<198.653 318.636> 401 20G<441.5 446>
VStem: 35 82<108.761 280.438> 377 70<-219.682 24.9948 45.2624 335.098> 436 23<404 420.24> 565 72<-248.392 -189.197>
LayerCount: 3
Fore
SplineSet
447 -46 m 2xee80
 447 -210 471 -260 515 -260 c 0
 551 -260 565 -238 565 -219 c 0
 565 -201 607 -169 628 -169 c 0
 636 -169 637 -182 637 -195 c 0
 637 -258 574 -288 495 -288 c 0
 417 -288 377 -211 377 -103 c 2
 377 -5 l 2
 377 18 375 25 371 25 c 0
 368 25 365 23 362 20 c 0
 345 5 298 -14 235 -14 c 0
 131 -14 35 54 35 178 c 0
 35 319 135 414 282 414 c 0xf680
 350 414 405 392 410 392 c 0
 424 392 429 402 436 417 c 0
 437 418 440 421 443 421 c 0
 449 421 459 416 459 411 c 2xed80
 458 404 l 1
 450 370 447 320 447 295 c 2
 447 -46 l 2xee80
257 382 m 0
 185 382 117 320 117 205 c 0
 117 72 212 24 272 24 c 0
 306 24 333 28 358 47 c 0
 378 61 378 124 378 171 c 0
 378 207 378 250 377 275 c 0
 375 335 323 382 257 382 c 0
EndSplineSet
Validated: 1
EndChar

StartChar: uni024C
Encoding: 588 588 2209
Width: 689
VWidth: 0
Flags: W
HStem: -21 46<603.627 713.254> -5 29<24.6924 100.631 240.775 309.308> 292 44<24.0137 130> 627 30<36.0088 96.507 226.614 350.078>
VStem: 130 80<46.2739 291.042 338.689 603.448> 413 90<410.404 576.45>
LayerCount: 3
Fore
SplineSet
413 477 m 0x3c
 413 558 391 627 278 627 c 0
 223 627 215 603 214 573 c 0
 211 500 210 452 210 372 c 0
 210 339 230 336 263 336 c 0
 355 336 413 400 413 477 c 0x3c
385 325 m 0
 380 323 381 318 385 312 c 0
 447 218 494 143 588 58 c 0
 623 27 656 25 703 25 c 0
 713 25 718 22 718 14 c 0
 718 -15 662 -21 637 -21 c 0xbc
 580 -21 534 -10 499 33 c 0
 450 93 422 124 353 236 c 0
 342 254 310 273 288 280 c 0
 269 286 243 289 225 291 c 0
 214 292 210 286 210 274 c 2
 210 110 l 2
 210 67 227 33 277 24 c 0
 300 20 310 15 310 6 c 0
 310 -2 298 -5 281 -5 c 0
 227 -5 221 2 183 2 c 0
 132 2 107 -5 53 -5 c 0
 36 -5 24 -2 24 6 c 0
 24 15 34 20 57 24 c 0x7c
 107 33 130 51 130 100 c 2
 130 292 l 1
 36 292 l 2
 29 292 22 298 22 304 c 0
 22 313 30 336 46 336 c 2
 130 336 l 1
 130 522 l 2
 130 582 119 613 69 622 c 0
 46 626 36 633 36 642 c 0
 36 650 48 653 65 653 c 0
 119 653 122 652 163 652 c 0
 201 652 220 657 278 657 c 0
 424 657 503 602 503 493 c 0
 503 403 440 353 385 325 c 0
EndSplineSet
EndChar

StartChar: uni024F
Encoding: 591 591 2212
Width: 438
VWidth: 0
Flags: W
HStem: -285 66<17.1881 107.75> 239 44<24.0137 417.596> 378 27<6.05563 49.8994 152.137 193.546 399.046 441.944>
VStem: 322 121<327 400>
LayerCount: 3
Fore
SplineSet
46 283 m 26
 406 283 l 18
 412 283 419 277 419 271 c 0
 419 251 405 239 388 239 c 26
 36 239 l 26
 29 239 22 245 22 251 c 0
 22 260 30 283 46 283 c 26
EndSplineSet
Refer: 24 121 N 1 0 0 1 0 0 2
Validated: 5
EndChar
